<mxfile host="app.diagrams.net" agent="Mozilla/5.0 (Windows NT 10.0; Win64; x64) AppleWebKit/537.36 (KHTML, like Gecko) Chrome/135.0.0.0 Safari/537.36" version="26.1.0">
  <diagram id="f106602c-feb2-e66a-4537-3a34d633f6aa" name="Page-1">
    <mxGraphModel dx="1434" dy="772" grid="1" gridSize="10" guides="1" tooltips="1" connect="1" arrows="1" fold="1" page="1" pageScale="1" pageWidth="1169" pageHeight="827" background="none" math="0" shadow="0">
      <root>
        <mxCell id="0" />
        <mxCell id="1" parent="0" />
        <mxCell id="H5XLg-262uGlo7exfHj2-715" value="" style="fillColor=#F6F6F6;strokeColor=none;shadow=0;gradientColor=none;fontSize=14;align=left;spacing=10;fontColor=#717171;9E9E9E;verticalAlign=top;spacingTop=-4;fontStyle=0;spacingLeft=40;html=1;" parent="1" vertex="1">
          <mxGeometry x="271" y="140" width="730" height="410" as="geometry" />
        </mxCell>
        <mxCell id="tUD9NKAxfMahRDJT9SFy-2" value="" style="shape=image;verticalLabelPosition=bottom;labelBackgroundColor=default;verticalAlign=top;aspect=fixed;imageAspect=0;image=data:image/webp,UklGRuQHAABXRUJQVlA4TNcHAAAvK8FKEF/BqLZtJfd/XGbukIHspKAFM3f3GowiSVJUi/dl/06YDDG229q2lejiZFTgEJPSJb0ROpm768xjGkmyqpEvKoqcA3if/H3Nkv8PAPJ0+Nc3P8ZVUoAcgBWCrIvouOa/4/j+TPneAATGMP79kSwbeS0J8b8C/QuY9aRJt570QKBAYMMDEzMpvjvH9xOV4Vil3Bv5DRkA+4tcvHg+qXT4WkXtXdLcB2AAmAAzwkDwYweox3154yho24Zp+dO+G4KImAA8pBx9JSzbdtM6KYOTx1xmmv8AmziWdO1V9c9SRP8luG0kSZJS2sjK7rnvmX2B68hW68bFWAjRf4URL0m283uJ6D9ESVbDNoeIwtROXpAsI/cPmn/Vqv5T/af6T/Wf6j/VfypB3N5H6y5at8N68JI5s78dv+euOxveWuV14n/+EK7h0ZVUjwbK7/pQSAMaiLmpgCKUEPRo8xajp+5uGRuhq265GqOtbllKoK9u+FKobLbOG5W9w5ZGZ92AEagtLAq1vQFForcHSDR6uz/Ac2sUd3cQx0Fx978KY6G5Oztg89NGc/cST0+Y6COWXnZAZPBWen3NP0qgl4PAnPlKv6vtRKrw2W0XyQpMjd18ddvFMkIiv76wm69u+5GozpkTTt47LqHO0IxqHYai1sEG/ESQlf3TWe9vOEYSYaEbV6tu5irVNNaCpmlF3WiItUlTGj6gwRjLCfQtMN8FjLsZqgt+UoYaliHc76YdU0OJ0kZKG8zFcHG7x/sbGHNEbjxYTcsxMTNTrZuDjJQxhZDWMybd0dbnAOshfn8DYz4KzV2sTzKBwVZ81e7ujJ10ibR1Z80YH9AwkJ5A0Z9nZqTm0ipqqjCLYJ/zNXHaMC9t2idgdod4RJTnQoyDk2XxkCqT/1FYhRQAX5/QHp/NZFBKO2fd27HmXcN94qyH3dEjhZh2fYldXgzrGYY9Z4CGMnNv1TknM4fNF6lDjZ6IYUX0z/B4g+KpB/u49A3C5N9+UK8iMy6jKaYSUeMYgabu3r+P/giXugNzyrrd2zY0VYfUNHLK3obqfg0coMdwRvIt7v7CfEgwDc2gcu4VXb1c1Bu0GC5qXUhNVS2n9GZK6zSSOxrVR7wnhPzzIrwF8vP4dcY+wgEyZn4+3AHusdNPIXy3s5TyfJIbMP0BFzwd+kx8jVh/xd0fCcjEKJZAUeJr5ZLfB9y5YoEGEQCNc09EPaE/4FoA/pmSUFUv8ysXP8J0BU8BkGLlqZIYDfIG2uFhza7H68qMfbQXleF/5qipmE897XxXxZZXePK25F1ZD4Lductfx+mxKGU7PMUbPN5JDx6jCe4M9DqWY5ABAC7L8z3eyQ9eIsa7Uqbu8my9Gl5DFyU9SIxo9zJUwu132S45U3kPjJCn+zVmXUXjsZ/P/Wk50+nOGL2RcG2wzcuPPUY73IS8jnESvT68i/YauH7MbFpQonOsmjyJh3u5nKM+zdW5Tt5HB2266jsCcop5dxST6mcjzzkIuZu7r+z4yMxgYe4NZEMCOCFCUFqC0DRd07mWgrUacMW/KhrGlBBU2GN3vlzZbMAM8wMo7jsNUWGuDAlFkFPZVNYSsK+IoysB8bVFCSFhD9zFRANzcA79iqBLu3XES/Y2hKoyLTcrOLmM8JF+EhVdxwNwYMz4bwX9wevcLrQHXhEVrxKkh3eRgDpNFY304oeYDubgZcovmFmZlu4ZRRiVggtipFNELDEsg070szmFDVA3GXFiUaB7BynbASttK1dwgBnCpAxJbGCjQZFUjzklio9kKw567Ry8Dl3AFhIeCJHMfHVvVksxJg52nLn0K8mnsAw247qvhHJXUGI7TJkYEo+ZONyk8HHGKnyElE5fc5CEycqnBngp8wdKFVq0CnaSLhZ9+QFOKYSFGBEbO5YFv3ZLu0fBeSQTevUP/JtTEAMSYLLg93ZLuzXoCLxyEYnCkwhNft0IObMZP9i0RAc/CtoDebE/arI/nsxJSLlBZ2XyJ88kHvjELdaqIauqFFvjGQ0tM+x1KuHvIBDpxAakNwvguVwBPAb+InVlE/kKAtVe7Ib7NwszBgCB8QL0DsLQE0MaTiGdjGu5TQmz6mkgPCSDmNgBuc2CSR8LA7kNdq6Ez0EW6rpQNoebCKQ2C50UxrXYBg/FpsMXEMmgYFFUpOIWD3szfmzwa86mvJ4DKvt8qcKlwMRuqJXsrYAXDASbftkWPxf+n/QE/D+szQ1xturRNNlP1yxIpAvqO2MGWX0Okn1ulru3cUZJiDSjXAHWBn+dDrHIweexQs7vTTxazCiRnWe2jZGuIKKvF7rnADs3q6ToruQeJZQuybiTRrvCCJ/pgx+EpMrGkEQSTBwijOEKJHguHHyeZHOkZ8JASY5WFsdVOX7zpzcynrxlrbEcyZQn/jtJJyE17iGiWK5K0gyLojx5G7QaOWv6uEhZ5YVjR1qCJJ5LoCqsBIJoR6hu4McxRnX58YxQXXYCV5rbcZO41NyOmcQexe3AmW3mK8XtWEldKm7LqThVgVGBakKGzLYrrW2pYGuttC0rzL10NqTwxsp1rQW5MttqbKACH+prSFb4Zq0CqTJt1qoaUuU7cD0NiTIfKGmIKmFtN66ggaiAJ7N21Qxkpbxrr91VsnUreG1tE631sMZ/rvxXreo/1X+q/1T/qf5T/afmBgAA;" vertex="1" parent="H5XLg-262uGlo7exfHj2-715">
          <mxGeometry x="10.012101653892698" y="9.761904761904763" width="54.9610835325121" height="54.9610835325121" as="geometry" />
        </mxCell>
        <mxCell id="H5XLg-262uGlo7exfHj2-720" value="ETL" style="rounded=1;absoluteArcSize=1;arcSize=2;html=1;strokeColor=#4284F3;gradientColor=none;shadow=0;dashed=1;fontSize=12;fontColor=#9E9E9E;align=left;verticalAlign=top;spacing=10;spacingTop=-4;fillColor=none;dashPattern=1 2;strokeWidth=2;" parent="H5XLg-262uGlo7exfHj2-715" vertex="1">
          <mxGeometry x="10.01" y="78.1" width="699.99" height="322.14" as="geometry" />
        </mxCell>
        <mxCell id="tUD9NKAxfMahRDJT9SFy-17" style="edgeStyle=orthogonalEdgeStyle;rounded=0;orthogonalLoop=1;jettySize=auto;html=1;exitX=1;exitY=0.5;exitDx=0;exitDy=0;entryX=0;entryY=0.5;entryDx=0;entryDy=0;" edge="1" parent="H5XLg-262uGlo7exfHj2-715" source="tUD9NKAxfMahRDJT9SFy-14" target="tUD9NKAxfMahRDJT9SFy-15">
          <mxGeometry relative="1" as="geometry" />
        </mxCell>
        <mxCell id="tUD9NKAxfMahRDJT9SFy-14" value="Silver" style="strokeColor=#dddddd;shadow=1;strokeWidth=1;rounded=1;absoluteArcSize=1;arcSize=2;" vertex="1" parent="H5XLg-262uGlo7exfHj2-715">
          <mxGeometry x="407.44594594594594" y="205.88095238095238" width="73.98648648648648" height="58.57142857142856" as="geometry" />
        </mxCell>
        <mxCell id="tUD9NKAxfMahRDJT9SFy-15" value="Gold" style="strokeColor=#dddddd;shadow=1;strokeWidth=1;rounded=1;absoluteArcSize=1;arcSize=2;" vertex="1" parent="H5XLg-262uGlo7exfHj2-715">
          <mxGeometry x="584.6486486486485" y="205.88095238095238" width="73.98648648648648" height="58.57142857142856" as="geometry" />
        </mxCell>
        <mxCell id="tUD9NKAxfMahRDJT9SFy-19" value="" style="shape=image;verticalLabelPosition=bottom;labelBackgroundColor=default;verticalAlign=top;aspect=fixed;imageAspect=0;image=data:image/png,iVBORw0KGgoAAAANSUhEUgAAAUAAAAFACAMAAAD6TlWYAAADAFBMVEVHcEwaGU0aGU1hXv8aGU1hXv8aGU0aGU0aGU0aGU0aGU0aGU1hXv8aGU0aGU0aGU0aGU0aGU0aGU0aGU1hXv9hXv8aGU0aGU0aGU1hXv8aGU0aGU1hXv8aGU0aGU0aGU0aGU0aGU0aGU0aGU0aGU0aGU0aGU0aGU0aGU0aGU0aGU0aGU0aGU0aGU0aGU0aGU0aGU0aGU0aGU1hXv9hXv9hXv9hXv8aGU0aGU1hXv9hXv9hXv9hXv9hXv8aGU1hXv8aGU1hXv9hXv9hXv9hXv9hXv9hXv9hXv9hXv9hXv9hXv9hXv9hXv9hXv9hXv9hXv9hXv9hXv9hXv9hXv9hXv9hXv9hXv9hXv9hXv9hXv9hXv9hXv9hXv9hXv9hXv9hXv9hXv9hXv9hXv9hXv9hXv9hXv9hXv9hXv9hXv9hXv9hXv9hXv9hXv9hXv9hXv9hXv9hXv9hXv9hXv9hXv9hXv9hXv9hXv9hXv9hXv9hXv9hXv9hXv9hXv9hXv9hXv9hXv9hXv9hXv9hXv9hXv9hXv9hXv9hXv9hXv9hXv9hXv9hXv9hXv9hXv9hXv9hXv9hXv9hXv9hXv9hXv9hXv9hXv9hXv9hXv9hXv9hXv9hXv9hXv9hXv9hXv9hXv9hXv9hXv9hXv9hXv9hXv9hXv9hXv9hXv9hXv9hXv9hXv9hXv9hXv9hXv9hXv9hXv9hXv8aGU0aGU0aGU0aGU0aGU0aGU0aGU0aGU0aGU0aGU0aGU0aGU0aGU1hXv8aGU0aGU1hXv8aGU0aGU0aGU0aGU0aGU0aGU0aGU0aGU0aGU0aGU0aGU0aGU0aGU0aGU0aGU0aGU0aGU0aGU0aGU0aGU0aGU0aGU0aGU0aGU0aGU0aGU0aGU0aGU0aGU0aGU0aGU0aGU0aGU0aGU0aGU0aGU0aGU0aGU0aGU0aGU0aGU0aGU0aGU0aGU0aGU0aGU0aGU0aGU0aGU0aGU0aGU0aGU0aGU0aGU0aGU0aGU0aGU0aGU0aGU0aGU0aGU0aGU0aGU0aGU0LfGrXAAABAHRSTlMAnwECAgEFEM0RGNcELOoEEw1BzAYRCI4WGK9+DB3SkAe4stvcIxwb63GXu6LLINqqV1oUCCgjbRUOGyV5bBot1DJDC7ZAClgJR+D//v366vz38u299dj7zanwutqyo/OV4kXHjoj2i0nmN2eC48N/3UvPHZ3Tcno+6zq+wZuYVcvJXYATY1J3yO81oJMiWtGwb4+mcGCtrE2QdeHWamlkr5zXLC85FmXFTyuEfdRQMWfVW5OtbpKUpE1hjD2nKSDnX4h1UUg/noVltlzREk6CPAmbyGrDOu57KiediTcLviXl4DDdS+P6xenPRngKwPFjRPz28zQz7/1U+/j+/+wvkv+VQwAADw1JREFUeNrswQENAAAAwiD7p7bHBwwAAAAAAAAAAAAAAAAAAAAAAAAAAAAAAAAAAAAAAAAAAAAAAAAACs6+XcA3kW1hAP82SVOk1F1wd3d3SKGCu627u7u7uz+XdXfH3Z16C6UG3Saz0plzRnonk4Tfo4T3y/+9tduJ8HHv3JyTS7/rR9w888Xz7rtvxtRbn7nw7mHxCPHfnec+ftt1c1yqzFmXPv3SADv8EjLw+XvPdgkyl105tj9CfBp6zcJMl7n58z63I8RS/KS5FJ+prHOuQIiFK26e5bJ225QweBNy/8Uun7Ie6w9zIVNmG7eN3KmPrLj41tlZOYbhs89Kh5mQc6e6NNP/ddNd1391Z/q4ISlvPHvJguv0P3owlKCZCbr85j99S0oYNBPv/8dsXYLniKs4ZMDlWkCLlosJDbzwPG0VP2lHiFHCoy72woghMPPW+GnqTjIFIQb24WrltuJ6eNHvHLVCufUKhOidr67PBcPgVfw9S3iHPjMCmpCJz7jIjQ/BQsQ9PAdnXIsQzSQuQF58E5b6P5dNV87rjxCWcht/fLkbPrw9ky+dgBASdg1Nq8wHI+DLtVmU4Gt2WGt9mDi9/DwRPjjpCRwIbqP4I/TCYfDJfmYmfdrxcXGzL46Qn8IhOrS7TbeNP0TBShk9QT6CWvxrlN+0S4S07BD8fZlLln0BLL1bKRG3SQCledKfjndxwEJ3SfFLkNfA8ynAZQMMuY565fEn5t00fPmdDUJdyttIhOUCTpVUu4SYooskWeQeWDhDknmOIpglzHSRB+y6mMbOy1LW6qzbHusHveWzaMEPhYWazpLq4E40EFslKcpO/wBfmk75zXkYqjvPmuFSZc80FCf9qGqeNQEW1nkkVW0XNNCH13er0z7Aga+7yHkDwFLmUdlLLr0MmrCbac++AN4ll0g6R8JhVOqWFGmndYC0qZK/poOkP8CD7FL9HHyZfnoOvOujJESqS2HU8R36QcXJDdCW3LHTnzqOdOIk+TzLxRbbQUbwqtbc0A+q5Tn0gDB44+wtGXR1wOibbfXDhUmJJzfAmNR2spIWODnGvepi2oT6arZLMGcEVGPo/jg+Ht4cKpZkBQckWV4HGDk+SW3ea9/mGJzcAJvSnaS8BifHw2e7VP8EeVK9Ad6Xpc7FFQlgw86jWTkZ3qTRFvJZV0lWuVmcpM067QVOcoDhcZLs+EkKcOhcl2Y4FJMXcMflH+f/fdIKuuEtuRZs4EXUuRkHL6J70C0uNp/uhfss5trpG2DYJfrN9kJewVTZnf1yWH1alHHmk2AD6L450+sM/J5i69G02WiO8v8xwDE0lRRLobh/Pi3aIcqOQiE/DnY+XbAoAuacH9Ov/GfYPpIU7zngP5sYII0HKIYDPGbxWics/gEXMeRxLVUaTyib7JQc6r6A3U03xivhRYsDNO1+BHgNt+sJHcf+32UtNqBe4g7lP2MArKko69p947o+0cYAw7duTjqje9e0Xzs4IOv5uyIDBk56qkPRg//8+/rm9E76yoP7HdBrVjEo6aePd+3+7/ponIhnc116V/WjCZZruMW9Qr2uB8GG023xEnhRRltIUTiQvJq2kV8MS2vfb7K8Q0ri7eT/Ks7H4W+KqmnN6wPM6FJULskKD54RK/dwunT+TXZkMPQqCpThgh831/+jjmqhcuXaplA59iSNrpYU5T3SvkTA7rzRZTD/LdojqN2SO0kuSviqe0AiqP+f/TDMrdlEv/A0ALYkSdFmr/ePF7//JtWrWxu90S0pir/UAtzcp8QjaX77MANAh/aSrO4X6ETtkhRbYr6TBKvXgPVsVSzp5X3XFAF6jFZiZk6m8s/n6bPhTO7OjBiYMmHRNNpSpoB8dSlt0mNgLp86Bdv2yFUb/Vf5en2ATQz3JgrQ/Wl3NajV2hKuXV0uGW05Bti42i6KhmbHAfVzk2WAsT2kBipTdyIgwxZyG/VmymhmurpEFXNeWKiu8stTQJ6ib0BvTYCpqDMkxT55zkVTVlKSzVeAhXGFEmvrpABNlRzSpqD7G2i2e/iWaxng2oOSqGgHAhDxHMWU/TxXFrnLIRsw1SWYNhxk3HgaejAMpnYW0Morg2y3pGie4StA/TptBfMAyb5m2hQ8Ei72MJJsVgGuP2j+pCPhvwncr7r37Yk3uBRPKLVZ2PBsIcDLh4JcRt8N5zwLc11qJVnnY7Raqulm9amvAInHXVUpDRIDrB9mtT87sD+PxvuA9XXTbXIrUCYJRiurvdkW7Xncbo/2wq2c8Ff6Ikpm1i3A1bSGc8+lHqtWIZOcp0CGcJ0ytx9MhfO7a3OYBjbxqtzgT4CR3Y+WVvT9uaZBgMff3/xDRd9WvSTy9TFtCnbjMiexraRITQR+bdOmTTfeu4va1OsqX2hLq5UUB3Z9Wlp6tHux+iIV8NdTOdyYnwgM4zV749uQPcQpsUXpIBdMN6xp0Q/VDbuo/OvcttWPAIt+jALRB1iS3xr19v9UqC3SnTQFq76HYus23Zx0OJ1OXtLlW50y1OtAD6ttW+MAAMf6IxL5IhH+GcpnsbLO1zcFs8+JgOyKKw1nfa+7FuSrq7hDOAymHBv5c0gLkPU0DTy7bT4D3LQfMAlw9SGQmK60jpuPhO1n+q1ZuVd57VaSosdgq1JukDIBPb35KvTkBIv3wC/2C2nRZp5lB4BRyyiWJX8Jo47CLTNzXSzzuQh+4FmZ/A1eGEztP8iryAGyYR/fgkb6CvB4KcwCLF8LVbMimnY/ADvpxarzAd1Hw9oyWATYmtZ53p5w1Sfb6JHb/SyC+SzRv75Sto07pvGMnGTnm92ExTw4eyDIW1k09MgVMPdBrUS/v++uYislReEqXwG+7zQNsG0iNEfrlBf4DtoUTN0gvzZNzoIvrQLs2I7GmqjiSqr4leCP/ov5KOUFvKT/msmfnkeBxD9BY9NHCIeQcu6CuRheDJ5aHUm9t1sHWHkUZgF6BhnmeAF1uaGbgqX67WujwyrAmm2Sd83hj7uX8Fm2BJB7OMDxCcKJo5ni0PghMFdRLVnoXGMd4LYa0wDdFdCJoV29twOwfeuh/2gNfFKlftFiFWBFldU7hB/6XcwN5ykgKdw3nTFWHbqXrsq9TDiERFeJHF0lK56frQPMyzANsHwPdDZ0o+kcpZuCx2PVJprUba9lgNQfMlcNP1zNp1FvigCMH50zlwpDrivjhUNIdJWAbuPerU62DLBltGmAVbHQ2VukzUBtCna18fcwdUdx4jOwCr4NuJSSmfoGyBtT+cPJAOHE0dRRwtBCukq0uVKy5O5jGeBq8wBrj0KnZx7d6ZTuAU3Bdhn8cfOdTtYBHtumrIYDzU2UwKeIpfyh754w3i5u4u7B1Wg4lH2NetWVfNWT8GJvN8mH3s6AZiD5OAqaX2kJbkc9224lN/fmEr5N2KwD7NhLue69ZgbJyfLf4dNYLoJXpIBMmU9DF/cTThzdlqIO5XK9QleJfiznlRDZgNrm+8+JBBi5HqqYlTSZv4d+Cnp6uekVjsEQoHATcLalOfsl9NbEwC8J47m6uEwd4sJtyd3C0KxJwiGk3L/BCxtXApXbWzSw28NN1sACJPsyQKK2U1B5PWnf4qcmXzhNduzaMrESkdo2g+Y/bT46DH88T0Vw1l12XXmrWNwf5OXpWqlMRqhXxcOLDC71D3ZAA79zwd5k8IkE6GnzO2TRadU09BMv6xYFhl1gLXRat6HhdlvFnc6zsoZX++BB7SV3WRT8MF4OMHf82DCQh17k00X3G4aoVCYDZ9PQRWMg4hrB64HA1u9LvPICDJDk7S7dsX/P5iP8EuUVII7P9FOwqCl0bBsl0r5sz/5DfdcauzEFrX7Y36njzortm+qftnwV/JBy2R033XzN2HQw+zlc3l5oNwxRqUxDj1sUweTwSp4F+RCsKlSXWKABkqriA+VaVLtaAyZTsPYDGPxSK7HyA7/VfdSwH+g+0K7911Xc3arACbg+i3umVwhDV30Fcu113AYcCm+2HudmSDQEHZtzI69F4AGKWu6EypGk5ZrXwby3QT6kd5rn5VkPIWDjnlZ7psLQ9L+ApD/KV90Ob2yfSbxRWG0wnrL/QYAFpWDGKdjKAQPHtx6TAJFvzJXVldkQqElnCz3Th88WKt7buf/6Kl8l6tRc0nr5Iu7sS5vWBBhgdVGhZNT+EzDjFDy+XnhXR8wCxI+bJNHBLuEIVMqtXN5OABmqDo0VDiFlfQ6vvikUmk9in4b2yaYlAQR4oKbsa0mncGWNeJpO+NaAtdinm4MfgWV8xs/Jijce+p/8GZuwf4p1MbcLM8+0w5vE1Mo6GX3NKOhSWCer/CkKTXsoF/9GARYrPykxBrirUh7tNdK2Z2NBLZf7W35p6u1Eu7svRM3W9arjx26HylGTNLpKYuU9vt0ThcC9+YLwZ2zeXCbUxeohpNcHwqvEH35VrG0KU8nf0wUVTjgrDNeGr+WfGHNRRktbA46dn37YdktRt+5lseIyUzsKJckw0/PdpNQjfz72ux/DjdGWlu1auaVoX2qr/25dg4AI5e1jhhNHVBcL/deXcCo59+5NtMFEBt19PdvhTdRh8bH8pBuicKIuU8vbO4UhrS7+2xKtsxqUfqElemAHGlfCDVzePisMLfm30H+dfy6CUsw+rbprXGp5+0C8WPH2F/uv8QhKpdXqFyONw6K8HSYODViodVaDknqibV9MY/8ZG6G8jXiOh+4IE/qvw8MQlHYcUA8KNq7Pr+PtIsWi4lX7r/emIDht96invxqVWt4+cr86tEioeIeM1w4hBafkEu3gSKNaPl/ZbeeNglDxPpoOcpf+EFJQ6utWv3NuXAm33HzDvQsenzJRPHF03efCWaLzzkdw2tBW+7qq0U0e0t9w4kioeO1n0dA06qwGH/VE2/c4VSwq3vPP0zqrwcnxntYkO0UsKt7J83hTeQVBqlm39rJ2m3Gq/VuseG8RzxIFG2enjrJOiTjF1Ip3xnLtxBENZU1AiA9hXPHmjrA3PF503wV2hPhwxVXKbnvV7REgDyl1cfYjk0L5+ZZ+14KsnNy5Fw6AasgFM7Om5869Yxj+aA+OBQAAAAAG+VtPY0c1AQAAAAAAAAAAAAAAAAAAAAAAAAAAAAAAAAAAAAAAAAAAAAAAAAAEI8iKRjJfAjEAAAAASUVORK5CYII=;" vertex="1" parent="H5XLg-262uGlo7exfHj2-715">
          <mxGeometry x="129" y="78.1" width="81.9" height="81.9" as="geometry" />
        </mxCell>
        <mxCell id="tUD9NKAxfMahRDJT9SFy-32" value="" style="shape=image;verticalLabelPosition=bottom;labelBackgroundColor=default;verticalAlign=top;aspect=fixed;imageAspect=0;image=data:image/png,iVBORw0KGgoAAAANSUhEUgAABQAAAAGHCAYAAADvHv+EAAAgAElEQVR42uzdB3gUVdcH8DPbN713klASIIEEEnqRIqAiggIKimJXLNhfOyqCioLSlCIKKlUFpCgKgjTpEEJLIJX0Xnc323e+O5D3e20gJdv/v+e5ZHYSZmfOvXczc3JnLhEAAAAAAAAAAAAAAAAAAAAAAAAAAAAAAAAAAAAAAAAAAAAAAAAAAAAAAAAAAAAAAAAAAAAAAAAAAAAAAAAAAAAAAAAAAAAAAAAAAAAAAAAAAAAAAAAAAAAAAAAAAAAAAAAAAAAAAAAAAAAAAAAAAAAAAAAAAAAAAAAAAAAAAAAAAAAAAAAAAAAAAAAAAAAAAAAAAAAAAAAAAAAAAAAAAAAAAAAAAAAAAAAAAAAAAAAAAAAAAAAAAAAAAAAAAAAAAAAAAAAAAAAAAAAAAAAAAAAAAAAAAAAAAAAAgDPhrLZlRVdWutnloKSchRNxFhFbvFCilY2S+6NOh7FlyR9+TPvZ+ZTKWqPCwpYvFL1FYkGTAHDeDzOZyCQW+vyYsCy/BO/qtmw5ihV/VkKFT6U//HglKw2slLJS8HFej6Ims8Ro5kVmEy/iEU0AAAAAAACwOd1RVo5b7ZrZOnwnsvKoTeIjF5nFAVKt/Pk2R1uxl31HhOZ07uhV04Ett2ElghWvy/z3GlYKWSmal596Sm+RnNhTG3Vwd010ld4i1hssYiQDABwU6/siX6ne46U2h5O8JfrBk2LSe7PVnViJvspNaVk5faguIn1Pbat9u2qid+ytjfrvZwACDQAAAAAAANbXsISVb6yyaadNACrFJsmtIbn+fQOKhwwIKBrR1beiL1sd04JvcfL32qjfWNk6K6/HPo1JqtZZJEgGAtgZ6/ucp9jo9Ubc/hv6BxTflepbPpStDm/htxH6+uE9Na027a2N+uHjvB65dUaFAdEHAAAAAAAAq0EC8H9C5Rqv19sd6N3bv/SB7n5lw9kqPxtUQeHumuh1++oiv5mT1y2zyuChR6sEsC1PsVE8LDg/9pV2h+7v6Vd6L1vV2kZvrVebpTvn5Xdb9ml+6pY6o1yDPwYAAAAAAABAi0MCkChSofJ/pe2hMZNi0idJReYUq+77pRkbjPKtnxWkLJ6fn7qzXO+pQesEsC4viUE8LOh8m/+0PfRUL//S+8k2Sf9/IjwjNH1NacfFz5+5cQ3r/42oHQAAAAAAAGgx7pwAjFE2+rzY9vC4R1qdeEYpNiWSfRJ/f2WqNSr3LC5InrngfMquYp23Dq0UoGV5Swzc0ODzUS+1OfxEb/+Sx9mqAAfZNQvr/0dY/3+f9f+trP9jRDAAAAAAAABcP3dMAPpIDJL3OuwZ8EDUqaleEkMvtsoRn8SvrzJ4bPyiMOnj6dl90prMUhNaK8D1a+NRHzQnccf9t4XmPM1exjrobgr9f8396bdO213TKo/1f9wWDAAAAAAAANfOiglA6yXVFMmspF7Tf2UX/UFLkn55Z3R41iyZyNyOrRI5aNVIPMXGxP4BxeP6BpS0qjJ45BXrfGpNvAiJAIBrEOdZ5zu1/e93Luj868IknyrhOX/+Dry7Qv/vMiEy49ZwhaZqe3VslpEXm1GLAAAAAAAAcE30aaycsMqmHS4BeFtoTuflXX5c2tazfjx7KXeSKpLHejR0mxCZcXv/gGK/SoNHbpHWp9HEi9B4Aa5Ae69axdT432+a12n7vAGBRc8oROYIcozb/a9EQFffiuE3BBb5ZGsCDhdqffBIAAAAAAAAALh67pAA9JXoxezi/+Y34/Z/4yfV22uSj+vlE+PReMOEyIwRAwKLuFOqkLxSnVcTWjDAP/OSGKR3hGX1Xpe64WPWZ15Xik1x5Lgjfi9HGqNs7H1rSF77g/UR+wu1PpggBAAAAAAAAK6OqycAheTf0uQtd98blbFIITZHuUCVBcYoG2++LTR3SJhcoz2v9curNSoNaMkAF3mKjaIx4VmdFnfeOvWZ1sfe8xCburLVUic/LM5LYuw4IiS358H6yAOFWp9q1DQAAAAAAABcMVdOAPpI9OJlXbbcPTo8ax57GehC1cZ5SwzhfQJKbh0bfm5AuEJTfr7Jt7DGqMQzwsBtKcQmjvWHmC+Sf351cuu0TyIU6huE1a50jJ4SY6sRobm9D9RF7ilCEhAAAAAAAACulKsmAIXk31dC8i8saz459sP+ryvG3hJDTB//kjFjw7OSwxWa4m1VrYvQqsHddPauCn6v/d6npnfYO4/1g9vYKi9XPVZPsTH8ttDcvvvrorYVaX3qUfsAAAAAAADwr1wxAegtMXDfdPnpljvCsj8n103+/ZGUHXPHPv4lY28LzY2v0HuePacJrEHrBlfX2btKOa3D7/fO6Ljrsz4BJRPItUb6XpKQBBwZmp28rzbqxyKdjxYtAQAAAAAAAC7LiglA60204TuRlUcv+e2x4eeSvk/dsJEtxrpjnVp4rjy9MeSradl9Fmwoj8eIQHA5nbyrxJNbp908Juzcq4EybU9y/mf8XZNao+Kr1jueeKzRJDOiVQAAAAAAAMAlNSxh5RurbNouIwBvC80J+qbLTyvkInNnd61TjiOvcIWm753h524fFZYt+a0mJrPWqNShtYMrmBCZ0fvblE0L+wcU/8dDbGpr1c8aB6cUmzrHKBtrNlXEHbE45eTmAAAAAAAAYBOudAuwl8QgXZy09YN2nvWjidz+apgTceQfrtAMmRCZMTJSoVJlaQKy64wKE1o9OKN7o860X5u64cNHok/M8BCbOpGbjvr7C1Fnn6p+Oot0x++1USUIBwAAAAAAAPwjV0oAfthx1813hp/7EImBPycIPMSmkJ7+ZbdOjDozNEKhLj2rDjxfb1JYEBpwBvdFnQ5bm7phykOtTn0aJNP25YjkiMqfyHv6laXsqon5uljnjZnAAQAAAAAA4O9cJQE4MjQn4MOOu1dJOEsEavWf60MpNrXq6V825qHok92IuHyMGAJH1sGr1vejjjuffid+37IgmfZmjiMPROWfyUTm8FZKVdWKksTDiAYAAAAAAAD8jRUTgCJbHYNSbOJebXfwCYXIlIga/VcKH4lh5PT2e3ecHLD0qzvDz7ZFSMCRxHnWSZcmb5mQ1n/Z/gdbnfpIxPGRhFv6/w03LDh/Sm//El+EAgAAAAAAAGzJZiMAR4Tmxr7U9rAwlYkCYb8yIo6XhcqbkseEZz04NuKcf5XB42SGOkiDyIC9tPaoF81O+O3GhZ23rejmV/6UVGQJJST+roZnK6VKtaIkcS9CAQAAAAAAAH/i7CMA5SKz6NV2B59li36ozavGiTjep7N31cvfpW5IPzVg6Ysh8iZPhAVsibVB7oFWp1J29l6zkX39RSYy9yQ3ntn3egwJOv98v4BifBYCAAAAAACA7a7rbfEmt4TkBff0K33YzscqTKghPHzf1PyVd7bK4ojCO3lXzaoYOv/kgs7b7g6VaxQYegXWJBOZhcRfm+xBny9dlrxlX4yyYQQ5Z+LPYfq/iOMDp8TtfwStCwAAAAAAAGxFYu03kIos3Bvt9j/GFr1tfcFv5jm12iw7Vqj1OfhNUaezbF0FKypWhNsWQ5+MTUsJk2sGKsWmaHKuWUvbPBFzfBUrhxcWdH17albf3yr1ngYe7RlaiDDi7/6o02GvtTvwdJxn3WQ79F9r9X/hFvrQRO/qyDvCszrLOPMAO/R/blBQwaMDAovm7a5pZUBrAwAAAAAAAKtfiFpty74TWXmUAmVaRfWweafZGltNZGFRmWQ5K0sSFu+uif5+TWnHosv9cKJ3tfjGoIJuL7Y5/FArpWocR7yzPaBfGM3088T0EVPXl8Wna8xSE5o1XCsh8dfGo95vStz++ydGnX6JrYp0tv7A+n8u6/+fsf6/lvX/0ivo/z1Y/3+A9f/xrP/72Gg/TW+d6z9iWnafrWh1AAAAAAAAcEHDEla+scqmrZ4AfL/D7kGvtTv4m02u/Hmu+qw6cPYdR0d/mq3xb7za//9Qq5MJH3XcNSNQpr2ZvZQ6WTMxpDWErpyZ2/PDHyvbZqtNMgt6DlwpEfHU1rPec0rc/lH3RZ1+na1yutm6m/v/LNb/F15j/+/M+v97rP/fQjYYHV1vlC/z3/rcQ2h9AAAAAAAAcIEVE4BWnQVYpEzhZiXsfC1Mrkm1coh4dvF/6uO8HneNPjr621qjUn8tGzneGFq1tar1d0qxSdXFp7I/OVcSUByu0HQdG37u/mHB533UJvm5Qq2vSm/BPA1weSHyJvnCztuGLkn+ZUGyT+WLwionOwS+xqA8+VlByjjW/7+/jv5f2dz/Naz/97N2/xdxFHGgLnJRfpMfbgMGAAAAAAAAq84CbNURgCEhE6QVQ+fnk3VvI+QLtT57X8wYfM/asvYlLbXRpclbJjzY6tRituisM+4W7Klt9dmD6cO/ymvyq0Ivgr8KkGqlY8Kzkp5tffTNRO/qW8n5Rr3+f/8fdmjcuHPqgHIn6/+GZ84MGT4/P3UHWiMAADglXVoH0mzp5zoHJG6gwNe+R8UCAIDdWHEEoFVvc3sqJi2JrPwMMQvPZbx57oYWTf4JHjl5yyq2be7h6JNfkHNNEPJfMTcEFH14ZsCX939T0umjWbk9NmZr/BvQmyBQpuXGhGW1n9z62POdvKsmkPMmuUlrlpwZenDcuCxNyyX//tD/paz/L7Ji/5eNDsvqjwQgAAA4LVPxDaTZuthljoeTZiEBCAAArkpkzY2HKTSDrbl9C3ENH+b2fGB5cWJJi2+b5/jJZ4aurjR4zHXm0xiF2JT4WHT6suM3LPvx86RfRnXwqvFAs3dfD7U6GbOz9+r3Fif9sqeTd5UwO7fTJv9Y/6+bk99tYksn//7Q/5dbu/8nelcPQKsEAAAAAAAAa7NqAvDR6BO9rbn9/Cbfma+fHXDUWtvXmiXm2w6P/YAtpjl7PXuKjf1Yfaw51O+bNfdFnenvJ9XL0PzdRxefytBVKZueX9h5247O3lWvslXBzn5Mzf3/uJX7/wy2eMJa7+Er0SfeEpLnhRYKAAAAAAAA1iSy8vaTrbVhC88VDzs4bp61A3S8IbR+U0XcTOEtXaC+FT4Sw23fdPnxpx29Vi+cGHW6i69EL0I3cF0pvuXeq1M23be/7/Ktd0dkzpKJzG3Jms/+tBHW/3NY///UBv2/jvX/Gdbq/6w+PGKUje3QUgEAAAAAAMCarJb8uTfyjBdHfIy1tv9Ncaf5eU1+KmsHyMiL6L3s3j+xxXQXqnfvFN+Kh77u8tPWXX1WfzQx6nRbb4mBQ3dwHUEyrfzJ2LThe/qs2jQ+InOpUmxKJusn/G2G9f/FNuz/W9jiKSu9hTAStzVaLAAAAAAAAFiT1SYBiVE2tiUKt1bCwbSjJmaNrYJ0vDFUvbE87odRYdkpLlb/IV18Kl74ustPo0eU5X7+fnavr9MbQ8vQLZxXoEwrGR+R2eOp2LQXOnrV3MJWueIzHw2s/6+0Yf9Xsf6/lvV/a4xolrb1qItFywUA+AfG3GAyV7vSH0k0JEs8SyIvMyoXAAAAbM2aswBHWXHbx1aXJBTb7PzTIuL31rbaMioseyq50CiqZsLIv9Z3hp99b0jQ+Xs2lsfNn3c+dc3xhlAVuofz8JfquHsiMxImxx57tr1X7Z1slZ8LH24a6/8VrtL/Wb1F/idzEBoxAMBfNa4aTppt813oiNIpdOEIkndqROUCAACArVkzAehPVnrW2Fl14FHexs/k+7a0Q+GshN+E2YZbuWhbEPlLdZ0faHVqwaiw7Ic2lsfNnHc+9afjDaF6dBPH1tu/JHpK3P6nbgnJu5e9jHD142X9f7+d+r8wOjbSCpsPQysGAPhHwmMSvF3oeDxRpQAAAGAv1hzNFmqtDa8vj8+08DZ/ZJ2WlQI3aBMSf6mu1wOtTq3Y0WvNxodbnRwo5SyYKMQB9fYvCVibuuHFrT2/23lLSN5L5AbJv+b+n2uH/q9jpchK2xajNQMAAAAAAIA1WXMEoMKK2y62Q6xMrLjTbbFKf6nupi+Sf+77RtyBDe/l9P5oaWHnUzxhrhB76+1fonixzZFxw4LzX/SWGBLI/RJI9kjEG1mps9K2Q9CqAQAAAAAAwJqcdWSXDlVnM16tPerv/SLp5z3nb1w096FWJyMREvuQi8zi51ofHb6t53c7x4Sf+9xbYuhM7jl6zORix6NA6wYAAAAAAABrctYEYJQd3lMY+ubOt+r5RSsbJ3+R/POxFV1/fD3ZpzIA3cc2xBxPz7U52q3wxgVrZyfuWOclMfSii89FcldBdur/UittuxqtHAAAAAAAAKzJmrcAV1lx2/Z4aL6c3OQZa5fBcUShEyLPTLsjLOuBH8rjPv4wp9eyU6pgA7qSdTzb+mjsW/H73gqQ6saxlx6IyAX2+AOAMErPWqNfm1ClAAAAAAAAYE3WHAFoteflvdTmcIqYs+0sAH38S4RZ6FqjyVxsNx5iY9yEyIzPjvT/+tDKrptvS/CuxkQGLai7X1nQxu7r3p+TuONEgFT3ICH55wj9v42VNt+AWgUAAAAAAABrsmYCsJQV3hoblonMN/QLKJLaMlA3BhX0Zl880WT+RCwXmbvcE5mxfkevNb8+Fp3eFyG5Pqm+5bJN3de9sL/vihMjQ3NeZat8EJW/9f/BRLadjYb1/350cRSwNVShVgEAAAAAAMCarJYAtBCXY8X9DmIX5ENsFSRPsVHSza98LJrLJUnC5JpBi5O2/lYy5LM1j0Wnt5dwFkwXfBVSfCuExN/4I/2/zrgtNOdjFj/hdnPE8BL9/+34fTbr/yHyJuljMeljrLR5flp2nzxUKQAAAAAAAFiT1RKAH+T0KuGJs9qzrd5od2CSVGSbJNPI0Jy2Kb7lw9Fc/pUsQqEetzhpa1re4EWzH49JjxLZ+FZNZ6MUmyQvtjl80/Zea/bcFpqzigWrLaJyJf1//9O26v83BhYIdWKt/m8g4gpRowAAAAAAAGBN1p4F+LTVdpzjR0yJ29fb2gHyl+okL7c79Dxb9EJzuWIerZSqZxd13np8ZdfNryd4VweJkQj8E2+JQfxim8NdC25cuHZWws7NrJ31JIz4c9T+/xJbVFpj+zxxer1FjBGAAAAAAAAAYN3raGtuXGOSHrTi5rnX2x2cd2NQgdWeyydkYz7osHtAF5+KB9FUrknQ+IjM6WcGfLlvRdfNjyR6V/uIOd6tAyIVWUQvtT0cnzXo809nJezcHyxrGiWsRlO5pv7/Cev/Hlbu/wNZ/7/PWu9RbVBWLCvqnI/qBAAAAAAAAGuyagLwk7zue625fTFnSXkrft90L4mhxRMowsX/Q9EnIx+PSV/AFmVoKtclfnxE5uenB3y5Y0XXzaNaezS43Yy2MpGZ6+lfGrk29YepMzvu3B8m10xiqxVoGtfV/3uw/v8u6/8SK/X/GNb/F1m5/x9BTQIAAAAAAIC1WTUBWGdUCAlAoxXfgrshoGjy5u7rnvaR6Fs0CfBw9ImQL5J+XsUW49FMWky38RGZ67f2/Hb9U7FpAwNlWpdPrEpFFurlXxq0NnXD5IN9l+8dGZrzJlsdiKbQYv3/Wdb/H7dS//+GrPtMRsvmina7UY0AAAAAAABgbVZNAH56PqWafdlv5WMQDwws/GBD9/Wv+Un1LTKy7JHoEzFLkn5ZyxZvQBNp+TYX51l306edft2yr8+Kr5+OTUsKljWJXe0gpdyFxJ//utQfJhzou/zX20Jz5rLVrVH9LU7C+v8s1v9fZv1f2UL9v50t+r+F57Q7a6KRAAQAAAAAAACrs2oC0Mxzlg3l8ZtscBzyQYGFb//aa83SeyPPxPlJ9dc0mUKQTCtd2XXzyM+Ttm5nL/ujeViVsr1X7fj5nX7du6fPqkVPxx5LCpE3Of2z8MSchXr7l/j/0H39vQf6Lv/lttAcYRRZF1S3VSlY/5/K+v8X19n/Zc39f6st+n+jSXZqRXHiOVQfAAAAAAAAWJtVE4A8cfRbTfS3bFFrg2MRd/MtH7e864+/rknZ+GKqb3krP6n+io4vWNakmBRzvOfO3quW3hOZ8R1HfDs0DZvx6eBV88j8Ttv37Oq9avnk2GODkn0qPZ2vI/Fcb/+SVpu6r3tif98Vv94akvs1W92DrD/TNlwkYf3/Htb/t7H+/xzr/1HX0P+/au7/bWywv/z3ZR3WotoAAAAAAADAJhfN1n6Dzwu6lL/a9uBPEQr1WBsdU8xNwfkfsfL0sYawnWkNoRuWFiVls/VVrOibf0YYIeST5F0ZMiosp1e0suG2Tt7Vfdg6bzQJu/Ht6FUzbl6n7XcYedHhDeXxKz/J6/5rnsbvfKXBw+yoO93Tr9RrYGBR0sCggrtuDs4XZvSNRVXaVSzr+x+zMpn1/62s///iiP3fwnNNO2uiN6C6AAAAAAAAwBasngDUW8TmGTm9Fs3rtH002W40lHCBH5PqW/4AK/c/Gn2ijr0uY0X3h+/7sxLKigeagUORSTlLvzvDz/ZlpSxDFbTvlCp4/YKCrofYclG1QWmy9w728i/1konM8S+3PXTTLcF5o0Qcn8RWK1F1DkPo361Z35/EyuOO2P91Fskvq0sSclFVAAAAAAAAYAsSW7zJN8Wdfp/XaftBttjHTsmAgOYCzkOot4gE7+o7WRkzLiKz+Iwq6FSNQbl9ZWnCoTyNX87RhvDqeqOct/aOhMo1ss7eVVHJPlXxI0Ozh/byL+0vE5k7sm95oZqcoh05Wv+3sM/EBagaAAAAAAAAsBWbJADVZqn+u9IOM++KOLuO8Ew0uHpCm4lO9K6OZl9vvSGwSMO+CgnB7EaT7MgXhcnHy/VepWxdWbHOu+pkY7DxWt+ou1+ZT7BMG8IWQx5sdbJjpEKVHCjTpcZ71rZi68Jt1WfAdZl40YHp2X0w+y8AAAAAAADYjE2SGWZeRG9l9d/a3a/s19YeDTch7HCdhElC2id6V7dnX0f09i+1sK+NrNTVGJQN57W+JWy5mJVquvjsN9307D7lfxwq6C02SJ5rczSquQ9EshLMSlScZ12oj0Tvy5Z9m98HoEUtKUyeVqLzMiMSAAAAAAAAYCs2G810Th2gnZ3X/f15nbYPYC8VCD20IGGEoJ9QAmVaYqXLX3/gh27rESVwBL9Mzeq7HWEAAAAAAAAAW7Lp7bjLSxIP5mr8kYkBAHdkfPLUsCkVek+M/gMAAAAAAACbsmkCsN6oMMzJT53BFlUIPQC4k1Oq4FVLCpPTEAkAAAAAAACwNZtPyLGqJCEjSxOwBKEHADeimZ7dZ7qJF1kQCgAAAAAAALA1mycAa41K8/z81AVssRThBwB3kN4Y8umG8rhcRAIAAAAAAADsQWSPN11Q0DVvXVn7BQg/ALiBkg9yes81WMQ8QgEAAAAAAAD2YJcEoIXn+GnZfb5gi2dRBQDgyo41hM3ZXNGuHJEAAAAAAAAAexHZ641PNoZUrC+Pn4UqAAAXljXi8NglWrMEo/8AAAAAAADAbuyWABSuhqdm9Vtn4bkDqAYAcEH8gvNd3y7XezYgFAAAAAAAAGBPInu++cnG4PrmUYAmVAUAuBIjL9r3Xk6fzYgEAAAAAMAV4HVi4rVy0p8IoPqFPVkZT7xBgsAAtAy7d6anTw/9OdG7eltHr5rhqA4AcBGGJQVd3i/VeWkQCgAAAACAPzJzZNFI2YKMTCU+pNnelS13Is0vXcnS2J4td2RFzkox+dy/iTgZBgwBtAC7JwAr9J7aRQVdP5qbuL0/e+mNKgEAZ6c1S7Z8mNtzJyIBAAAAAG7NouGI1yvYkpKadkWQqSCZzDVdqGl3Al1M9EWzIkagAKzPIYbTflva4cCkmOMbO3rV3IsqAQAnp37wxPAZhVofHUIBAAAAAG7DopEQr/Eg3uBNjataszXdSH8igYyFHdhyPCuhCBKA/ThEArBC72lYVND1k7mJ229mL4NQLQDgrA7Xh6/8ubJNGiIBAAAAAC7LVK4gMnuTPsOPdEcSSbiF15jdhQw5QuJPuI3XE0ECcCwO80DNNaUd05+IOb68g1fNc+wlh6oBACdU9Ule9/mNJrkRoQAAAAAAp8drOTJVCsk8PzKeDyHtrmS2nERNvycQrxOSfULBRB0ATsBhOmql3oP/KLfngk87/XqHh9gYi6oBAGc7PTpUH7Hk58o2mQgFAAAAADjf2axBRKZCf7bkT5rtrclU0onMdSmkP/HfRJ9wCy+e1wfgpBwqU7+sqHPOiNCcJaPDst7FBwsAOJnc2XndPm80yS0IBQAAAAA4NHOljMy1QWRpCibV98Lz+boQ35RAurQ2bDmKlQAECcC1ONxQ3Vm5PZYNC86/x0tsTET1AICTsKwra7/w58q2hQgFAAAAADgUQ4YX8ZZQ0p9g5XgntiaZjIUJZCoTEn0RrHggSACuz+ESgAfqIsu2VbaeNzo86zPCswQAwAnUGhUnppzrv6LRJOMRDQAAAACwC0s9R4Z8YeReBBlzWpF2n5DsSyFdehsicyRbDsE1NoD7csjOPyuvx5phwefv95IY+qCKAMDBmb4t7Tg7Ux1YiVAAAAAAgN3oTvhR9ZvfsqWuJDzHD5NrAsAfiBxxpw7URTZurWo9my1qUUUA4MhqDMq9n+anbEAkAAAAAMDOhAE+beni8/uQ/AOAPxE56o49cvLmTflNvrtRRQDgwDTflXX4OEMdpEIoAAAAAAAAwFE5bAKw3qgwzM3vNoMt4sIaABxStcFj22fnU3YgEgAAAAAAAODIRI68c0uLkn4v1Prg1joAcET1z5weMuuMKkiHUAAAAAAAAIAjc+gEoMokM3+S130mW6xBVQGAI0lvDPl2Q0XcIUQCAAAAAAAAHJ3I0XdwSWHy6RKd1wq2yKO6AMBBlH+U02u+1iwxIxQAAAAAAADg6Bw+AdhklvL3p4+Yyb6Wo7oAwAHwp1TBy9aVx2cgFAAAAAAAAOAMRM6wkzuqY0q2VrWeyxYtqDIAsLPz72f3XmCwiDEqGQAAAAAAAJyCyFl29KPcnl2u3jMAACAASURBVIu1Zkk+qgwA7MjyeWHyvO/LOhQjFAAAAAAAAOAsnCYBeLAuov6XqjYfsEU8cwsA7KLGoDw1L7/b12aeQzAAAAAAAADAaYicaWc/yOn1ld4iTke1gYszEW53d0TGtWXtPz6jCqpDKAAAAAAAAMCZOFUC8Eh9uPmH8vi36WKCBMBVCcPLTrNynBUDwuEYao2KQ/PyU9cgEgAAAAAAAOBsRM62w3enjfyJXYjvRNWBCxOzksSKkpXZTWbJj+yrFmGxq6bvSjtMz1AHGREKAAAAAAAAcDYiZ9zpqVn93iCMjALX14GVFzPVQeV7alrdXaH3/Iq9bkRYbK9I6719bn637YgEAAAAAAAAOCOnTADOy089UmtUfIfqAzcgSfUtf6R3QMmMTRXt1kw5139gic57AVtfyQqP8FifmecaXz078L2z6kBMQAQAAAAAAABOSeSsO/5OVr932BcVqhDcgZSzdHg0+sSGwYGFY286dNcbz54Z0j9b4z9LbZIVEhKB1sRnawK+XVWScBihAAAAAAAAAGfltAnAz86n5FYblEtQheBGFIOCCl473O+bH1jbV3b//f5Xbjp0V//15fFT1SZZNvs+Rqi1MDPP1U7L7jMDkQAAAAAAAABn5rQJQAvP0dCD44UL80pUI7gRzkNsHLiy6+Yf16RsuidDHVg25ugdUy8kAsviX1KbZCcIs2S3FD5LE7BoVUlCHkIBAAAAAAAAzkzkzDt/UhVcvb48/kNUI7ihqJuD8z5f3XXztETvap/9dZEVY47dMWfYobsGrStrP0ljlgq3rOoRpmtn4bmSadl95iISAAAAAAAA4OycOgHILtD5aVl9l7HFs6hKcEMeN4fkvbS/7/Kvx4SfayOsOFAXWTf22O1fDjk4fsi6svYTm8zSXWy1FqG6avwXRckfrS5JqEIoAAAAAAAAwNmJnP0ATqmC6taVtf+ALVpQneCGxD4Sw6ilyT+vfTj6ZC8/qY4TVh6si1CNPXb7d4MO3H3rs2eGjD6rDvyZrVYjXFfGyItOv5fdeykiAQAAAAAAAK7A6ROAZl5E07P7rGOLh1Cd4KY4H4m+6xdJP3+7vMtPd/hJdeL/fuNwfXjTvPzUXwYeuHvMs2eGDM9UB35LSAT+q2VFSdMLtT4aRAIAAAAAAABcgcgVDuK0Kkjzfk7vdwmTH4B7ix4RmvPF8i4/Puon1cn++I0Kvad2Xn7q3kEH7p74zJkhN2WqA79kq+sRsr/jifZNzeq7DpEAAAAAAAAAV+ESCUATL6KZuT125Tf5/oQqBTfnPyI0d/aKrj++4ifVK//6zQq9p2F+fur+gQfuefyZ00OGnVUHfsdWNyFs/8+ypKDL66U6LzNCAQAAAAAAAK5C4ioHUm9U6Obmd/twTuKOoeylB6oW3Jji1pDcN1d23Rx4T9ptrzWY5H+bBKRS72Gefz71yJrSjveNi8hMeSo27eUOXrUj2Lek7hy4DHXgxrey+u1DEwIAAACXYNGISHfAny15s+LFih8rwp0iyuZ1f2Y450Hag8FsSXiudHTzVwHPSgkrZhJ5NpD32Bq2XN1cKkjepZrEQfgDKgCAA5O40sEsL0k8Ojn22Jq2nvUPoWrBzcmGh+Q+dXLAUuXk00Ne3lQR1/BPP1Rl8DB8ej714JrShAkPRJ3qOzNh5xS2uh+5yOjgq6SZntV3aoXeEyevAAAA4ERnMFt9iXghWRdNusOtSJ8Zy5ajLhZjJJkq5HQx6Sdt/ipuvg689j/86s8ICUFdc2kicVADcYpMtnyKvG45ReKQTFL2zSaRNx7RBADgIFwqAVhrUBrnn0+dOSdxx0j2MgjVC+7ev6OVjY+sStnse3fayMc2V7RrvNQPVhuU2tn53bf/UtXm0Jtx+28fF5H5Blvd3p2CdUoVvGJdefwpNBsAAABwSKYiEelOxLClBFKt7ki8vhNb7kKmCmHEnkdzkdlob4SRgcrm4k/m6sgL+0U0huqXGEmYdE4cWEmcZB95jd5BIp/95DmkgDgFj4oEALBTgsDVDmhlSWL2U7FpX8Z51r2C6gUgkafYeOealI3cuLTbH/mxoq3qUj9o5jlhQh3VhOO3rZiW3Wfrhm7rn2nnWfc0+5avG8Sp7v3s3u8bLGILmgwAAAA4hKbd4WSp7UnqTd3IXNeFeH0iWdTCeZkn2S7Rdy2EkYX+ZK4Rbj1uT/ULJ7KvKmr4/ATJEteTssdP5DUyn0iMZCAAgA25XAKw2qA0j0sb9Vla/6/Gs5cxqGIAEnmITXd+n7pBNObo7Q9uqWyrvtwPm3mOP6MKqkzZ+8BbEyIzvnu57aFprT3qhecDuuxtwemNIXM2VsQVo6kAAACA3ZhrOWra0Z40W0eSqXwkWdSJbKWQ7HP2ZzQL15z+ZK4bSNrfb2DlPar/Yj/Jk1eQ733rSdbRvSakMxVLSXtAGL0pb/FtG3L9rLJd+5GR+ocexMl0rn215ldHnkPP4UMQbPFh7HJONIYUbyiPn3t7WNYnqGKACziFyDTm9XYHGnZUxz6ht4iN//YfVCaZZVFBl5Pbq2Pumhr/++h7IjNm0MWHQbuawg9zei3SmiUY/QcAAAC2p93nRbr00aTe8CDxup5sjYL+N/mGqxH+oOxNlsabSLt3COkOfkSKXstIkbKYvMcWukV9G3J8qW7et1Y6rxbajStN6hdM9Yu20sVJaFyXLG4meQ6dgg9DsMUHsMux8Bz/bnaf5WzxJKoY4H8nBH0DSh7a2vPb2VKRRXyl/ylH46+/L33E6g67Hu1WpPX5kq0yulJQlhQmf/RtacdKNA8AAACwKe1+fyp/bApVvX6WVGuWEa8bSBefqce5SQTExBvDSbv3daqbe5qKb11GqrXxbnDcQoJXeF6j3ApF5mLth2s+JrkLFxnJO2fgAxFsQeKqB3a8IbT6h/L4mXeEZX1FF2e6AgD2S3RAYNFTv/VaXT74wN3vG3nRFY16s/AcnVMHVMXsmPToBx13r3mpzeF5Yo7v6OzB4IlLeyer3zd4AA0AOMunFvtE5poviC6WxlUR7AJaSBhENv+Q8Mwtn7/8R+HRDzXNG6hgRf+Pm5e2bSCPfvV/eLO/fBXx7pOXALAi7QFPalg6iQznXmVdCxMXXiSMCnyA6ubeQw3LVpHvg++S95jz7DPHFU/ThM9oGaocmjWQPCULYQBbkLjywU3L7rNpZGj2fjHH90dVA/xPv4DiaTt7r64cdODuJUZedMUnVjw7CXs1c+D2pYVJfbf1+u6jaGXjfRzxzvqcEX5xQfL7pTovFVoEADgWC/uEMoovnKepf/Ilc1USCQ/SN56PI+3vsXTxGcdhrISS9TJy5awYWBFGSAvPXiokRUodyRKq2XJJcyknjxuKSNpGdXGnyUyc1OzCj4wFuM4zDxNH2r2pVP2WcEdFEgLyj2TNicAxpEubT74PfEKydjUu9rniTa71nD64LlwtcaI8xAFswaUTgMcbQhtfyhj8/uzEHRvwIQvwZ30Dij/b3ntN8YD992y52v+bpQmoi90x6dFPEn7b/Gzro3NFHB9DTjYsxGARb38/p/cvaAkAYH8WjixNMjLXepNmc3cyVfekpu1d2De6shJF9rnyDWv++r9nVOnSLpY/alwh/CuMLixipYA8BuaRJCybLZ8lSauz5DG4kYRHR3BSVuQYcA3ui9eJqeKZ8WTIXEgXE0Bwed4Xbg3W7r2bvEe/Rn6TfiBOaXCRY1O4+nU4XAVpTAEp+9chEGALLv/Bs6a0465JMcd/bO9VOwbVDfDn/t/Pv3jFqNDsIRsr4tKuZQMvZAzedKIx5Pj7HXbPjlCoRznRZ4p+aVHn94u0Pho0AwCwTzJAKyFznS+pvu9KFtUw0mztw9am0MXnfzmbwObShZp2/XG9hWpnCjOs57ALnHOk6C484+g0eY/LIJFCS8LIQpGfEY0BXL+/6yRU8cwrZMicSng00dVqTar1K6lpz0byGf8qeY3JIU7i7H9MEGbqVaBqodkJhABslgBw9QMs13vqFhV0nT07cceNzR+2ANBMxPH+a7ttWHnXsVFDfiiPL7mWbXxd3KnocH343S+2PfzUg1Gn3hK26ejHfbQ+7IdXMwceQAsAAJuyNElJuzeM9KeGsHIzGfMGsrUhrvxrhi6OIIwmY8FgVi6uVa0VRvEItzudI6+RZ4m4o6RIPUHyztVsuYnEgXo0FnAZPOv3lS+8SYbMtxCMayYmc/Voqvu0F5mqXibfid+TyMfgxG1CTnhWAjS3BlL2TkcYwFbcYujxmtKOByfFHF/X3qv2YVQ5wF8+BDhLhzUpm5YOP3znmB3VMepr2UamOtD4yIlb5jSZpQfvjTzzub9U19mBD7l2dn73WQ0mOS4wAcD6LBoRWRqDqHH5jWQ4O5YM2UPo75N0uBvh4fcdLhT1plEX1qg3CiN6comTZZPnUGE0xAHSnwlHAwIn7/9SqnppCmvLbyIYLSKCVN8uo6ad/Sjko3dI2rbCKY9C9X0EqhL+2xpI1h4zAIPNuMVfHsr1nuZFBV0/YYtlqHKAf7gSE5mHTInb/46fVH9dfxR45vSQg/33TxhWoff8nr00OeKxHqkPX/1TZVsMtQcA6zKVepBmW0+qfHYeld51lNSbV5EhezQh+XcpwnNk2xFvuIXUP73KykYylUxFWMBpWdQyqvrPW6Q//Tph+uyWJCVz5SSqfHkDNa7ocmFiFeeDZ9ND828+SQNxHvkIBNiK2ww9Xl3aMfP32qivSBhmCwB/+ywYEFg4+buUDfdc74bOqILKBx8YP/G0Kvht9lLtYMdZMie/29wGo9yEKgcAqzAVBVHtzPFUNnED1UzbQ4ZzT7G1rRAYADdiaZRT1StTSH/qVcIz/6zDXNmL6hdvooYl/ZwwCRiJCoQLxGEFpOxdjUCAzS763eVAK/Se/CuZAxc3maW5qHaAfyTrH1A8Y0Lkma7Xu6EMdZAuafeDH3x2PuVe9rLUQY6PP1Ifvuinirb4DACAFr7Y13BkyIqk2pmTqezhHaTetIJ4/VC6eKsrALjV50GDhKpef5H0J4XkH2Z6ta5W1LhqJTUsSSXeqf62i1mg4b9OIwRgS2718NH9dZEF26piF7FFM6oe4O8UYlP4kqRfPhsUWBBwvdviieOfPTNk05z8biPK9Z7H7H1s9Ub5uenZfb5qMMktqGkAaDHafZFU+dzrVP7wLlJvmkO8Nokw4gfAPV1I/r35JOlPvEFI/tmKkAT8ilTfxzvRPgeg2uDC5ZLnkKMIA9iS280+NCuv51casxSZdoBLUIpNPd+J3/d2sKzpuk9czTzHP3/mxuPDD985ukzvtYHsdwu+6buyjp9uqmhXjBoGgBZhzAuk2o8mU830bWQ4O42E59dhVkcA92WpF19M/qV/wF55ICA2lUiq75eQMTfUSfY3EFUGjIYkUWcRBrAltztR3VcbWfNrVezHbBEzgAJc4nPhhsCihx+OPjmipTZ4vCG0cMThsQ+W6rwWCJfNtj6gWqMibV5+6mpULQBcN2Oukmo/uosqnv6F1Jtnk0WdQHjAP4B7M9dzVDVlPOnThT8GIPlnlzqouoEqX/qYfUYrnGBvvVBhQJxMTeKAbAQCbHqh744HPSuvxw9qk+wQqh/gkjynxO2f8XCrk61baoNpDaH1tx0Z+9KemlbT2csmGx6Lfm1ph1lnVEG1qFYAuGa8TkSaX7pRxTNrSL35a7KouhFu9QUAQe2M0aRPn0uY5du+zNV3U8PSp9mC417j6k/6krFYicoCEgeUkKJ7JQIBtuSWCcB9tVHqt7P6fUi2TUIAOBUPsTH+jbgDU8LkmhZ7iH1aQ6hu2KFxH8w/n/oie1lvi+OoMSh/Y+/3M2oUAK6ZLi2Iyh9/m2re20KWxpFsjQJBAYAL1D/eRLpjcwi3dTrGtW3Tnneobt4N9nvqzL+wNMqI1+H5kCBIRwjA9h+SbmppUdKvhVqfrWgCAJfEtfaoH7ck6ZfRLblRvUVsfDlj4JL5+alPsJc11j4tX1vWfvZpVZAa1QkAV403iKjmg0FU/eZmMua9ydYEIygA8L+zjB/7UN3cz4nXRSEYDsOTVOsXkiE3xEH3z5cVjAAEnqSxmAAEbM5tE4D1RrlxTn43YRRgI5oBwCV53Bh0fkq/gOLIltyoziIx/ydz0Pfz8lPvYS9LrbXzJxpDfnoxY/AuVCMAXDX9KR8qu/9d0mz5gSyqXoQJPgDgj9Q/dqO6OV8Sr4tGMBxOB6p87gMHHQUojCCXoorcno6UAzEBCNicW5/MflGYfKRE5/0dOewYcQD7U4pNHT9O+O3VcLm6RZ91pbeIzS9nDvp1Xn7q/exlmRV2vXpmbo+ZGrPUiFoEgCtnYRf2mztT1cs/kqn4Vbo4WgMA4H/UP7WlujlfEK/vgGA46kd5w0Sq/ehWB9wz4TmReIwECHcnnUEYwNbcOgGoMsksH+d1n8kWMTkAwKVxPfzK7r0nMqNvS29YbxHzL2cO2jE/P/U+auEk4ClV8Jp15e2Po/oA4KpUT7uXXTT+RhZ1f8IkHwDwt8t2Ifn3yWri9ckIhkOTkHrLbDJkO9qMuxgBCMIEIFXkObgagQBbc/vbWRYVdM3+saLtYsIoQIDL8Xs8Jv2tcIXau6U3LCQBX8ocJEzU0ZK3Axd/mNNrns4ssaDqAOCKGM6JqeT2T6hp+5fsVRACAgB/o9kSQnUfLyHe0B3BcAaWdtT49SsOtlNCQlKOunF3osPEKZF/ANu3PHcPgNYs4T/I6T2XfS1CcwC4tDjPugGLOm+7yyrX3RYx/+KZwbs/PZ9yL3tZcZ2b4zNUQZ9/V9Y+B7UGAFf2IXTOgyqfXULmmmfZKxkCAgB/o/k5mGpnLifeOBDBcBocNe2ZTKr1sQ6zR42rA1Atbo8neQJmAAa7wBTkzP66yMpt1a3njArNnkVIiroKYUh1HiuFrH4r9tZG/WkWWC+xUfxUbJowY5swQ1gMK8IDnDEc/18+L24Nyf1Pd7+yn4/Uh7f4xB1GXsQ/d+bGXRzReFY33zbXzVWrMShzJqbfuthoEeOvagDw7y4m/1aQRXP7hYtFAIC/sjR6UuO3c4g3DcXnhLPhfalh2RTyHv2wY+yOwRt1gjMPUvQ4jTCAXS7oEYKLZuT0WnRzcN4TcpE5DtFwOsIkD8dPqYJ/3VgedzitIfTYT5VtK+nCk9yJN/MiVrg/JYOEM7cXMgaLmhe5ULlG8Vj0iaQoharHA61OCc+6G8RKIEL7Z2LO0v7NuP1PjDoyZoo1ti/U1TNnhuziOP6uJ2OOf89WBV/lJkzry+NnH2sIq0RtAcC/n4ILyb9nVpKlaRQu6gHgH1nUMqp8fjYZc+/G54Sz1mH9OFKtn0neox1h1tVQVIjb0xImAAE7QQKw2cG6CO0vVW3eGBWavZrw0G+HxxOnM1lEe5cWdV61ozpmy/dlHSqv7v9fuO30/58PV6T1UU85138/W9z/4Inhc9p41MsnRGb0fCT6xJ0RCvVYCWcRRqNhdCgzMjTn0efbHFk5O6+7VU6iLDxHT50atptV0pNPxB5fys60r/gvpbVGxel5+anfoJYA4F8ZMqVU+dxcJP8A4NInJSr2OfHMNDLkPIpgODVPalj6Mnnf/pADnM4rUR1uTuRXRV6jyhEIsEvzQwj+5/3s3us1ZulhRMJxT8MsPFd6Vh34wYS02xJlW14aNunUTV9dbfLvSuQ1+emnZffZE7Pjicmddz/UdkVJ4r16i3ifcMmIaqDQSTHpk8PkGqv+AeGp08PWLjzfdTJPnPYK/4t+XVn7aadVwRpUEQBcnllM1VM+JksTuxhE8g8A/umsUyWmymcnkyHnRQTDFeqz4U5SrU90gD2JQWW4vaMIAdgLEoB/cLg+3PzmuRveYIsmRMOxfmWbea7o88LkF+9NH9G5465HXl9d2jHPVm9+Vh3YdN/xEatT9z4w4IWMwUMqDR5byc0TgfGetffdE5mRbO33eer0sK+XFnZ++0riXW9U7J6b320zugsAXBZvElHNey+TqWISzoMA4C/EZFH5k7nGnyqfvZsM2dMJdwa5Ci9qXPm4A+wHnjnu7pTdMQEI2A1OfP9iTl63nQ1G+RZEwjGYea4uUx340X3pI7o9fvLmOatLEmrttS9nVEHm2Xnd9w45MP7W5cWJd6pNsuN08TmD7sj7iZjjr4XKNXJrv9En+d0/KdN7fSY0h0v9jIXnNN8UJ85gdWRErwGAS+INHNV+cCdpfn0TF2EA8PfPCGNbKh5eSyW315Iheznhdk3XYlGPIf3pcDvvRQQqwq0ZSJaQhjCAvSAB+A/eyer3Ol2cWALsx1So9dl6X/qIQQm7HnltdUmCw0zqcEoVbJ6YPmJTv/0TblhenPgWW9XgjhXUzrNu+ITIjAHWfp8MVZB5yMFxr5fpvH6gi49v/Nvpek6T/5ZnzwzZiW4DAJdV+3Ef0mybx5Y8EAwAADfD60JJtXqU3d7fmC8jUzmewe/WOAOJPDIQB7AXJAD/wdz8bmfqjIqliIR9WHiu7pQqeMqwQ+NGrS5JOOGo+3miMUQ9MX3Ee8uKOg+tNyqEZ0fyblZVyqdi016J96z1svYbZaiCdEMOjXu0TOd1+B/aS+O0rD5T0XMA4LJ0aTGk/X0+WwpBMAAA3JKY9Jn3EN9kn9u6TRVeZKnHqFJ3JvKsIs/hpQgE2K0JIgR/J2Rx3s3qO4PcdGSXPVl4LmN2fvcxSbsfmnFOHaB3hn1+6MTwI0MOjru51qj4itxs5Ggbj/qBMzruHi7hLFZ/iH6GKqj+zXP9J/DE/fH5j8Lov29WlCSeQe8BgEsy5nhS9ZRPyNLYFcEAAHBj5qpkatrTxU7vLow+l6MS3Bqe/wd2hQTgJcw7n1qwsTxuHiJhO6U6r11jj91+y0sZg5zuVs5jDWF1gw7cM2lZUed32Eu1O32G3BGW9VqyT6W/Ld5saVFS7py8bg/zRCrhtYXnyqdl9ZmF3gMAl8RrRdSw8hmyNI5EMAAA3J43Ne0ebqf3Fkb/IQHozjwGHkEQwK4X7wjBP7PwHP9udh9h4oECRMP6ynReGwcfuPv2H8rjC531GE42BhsmnbppxtKipKepOUHlJrq8EXdggtQGowAFL2QM3rWmJOFltmjIafL/bEVJYiF6EABcUt2nN1DT9pfYEp67BAAAHBmyRpCl0R63AXsTJpZxZyaSxpxAGMCekAC8jBONIZU/lMd/ikhYV4nO+4fBB8c/cE4T4PS3XBssYsuTp4at+LIwaTK5URLwjrCs55J8Km02q9o7WX2X7K2Neu+WQ3eifwLApekOhVDTrvfYUgCCAQAAF5gr25HuSIId3llG+GOUGxOZSBx0CnEAu7ZChOAyvxt4ET89u88KtliBaFhHsc57/dCD4x4+qw6sd5Vj0lvE5qdPD12xpDBZSAI2uklVtnkj7sATEs5ik8+ULE2A+Yb9E97Na/LDczoB4J9ZNGKq/+IFsjT2RjAAAOAP/EiztYcd3teHMAu9++Jk1eQxpAiBAHtCAvBfnGwMrlxfHv8lItHyirQ+v990cNzjmerAOlc7Np1FYn72zJAVnxcmC7PT6t2hPu8Iy3ry6di01mjZAOAQ6hf1I8PZx4RTbgQDAFyAhS5OUFj3l2JGaK7hGthUNsTm72ouU+L6263h9l+wOwxB/hcmXmTZU9Pq69FhWc+yl56ISIvJmZnX46EMdWC1qx6g1iwxT8/u+9ltoTnR4XLNM25wERrwcrtD//m8sMtTTezY0cQBwG6MhX7UtP1ttuSPYACAAxD+GCzcFSIk7GpJGqsmSbjwqJgyujh5XC0rBlZK/3eVFlFNHkM1f9gG3/yz/F+27UX6dB/Sn4hly+3IeD6BTGVt2HIsrl0ud5FXlkK64z6k6Gq7u3U020IReDcmiTqMIIDdmyFC8O++Ku6c/1zro5tjPRrGIxotovG97N5PLjzfNcfVD7RI660ffXT09PXdfkgIl6uHuvrxsmO8/7Ho9EVz8rthinsAsA+LhqP6RRPIou6PYACADQlJPuGxQWWk6FlEnCyfLeeycp587ysjEjWxZSGhpyJxqI7EfqYWe2d5IvtnwsVlc6WYzHUB7LMwjFRre5Dh7M1krurJvtMKVfQHvD6YLI3t2FKaDd9VGPjwu5XfQ8pKMisKF+pXx+jiCFinbnHkeePv6Hhgb0gAXoEGo9y4rar1V4/FpCMB2ALym3xnfpzX4zcTL+Ld4XgP1kVUf1XU6ZXX2h0UHjYc6eKHq3g97sA7Cwq6jjFYxBgFCAC2pzsYQ9q9z+McBwCsqIaE5J4iJZtEfmfY8mnyGpVH4gvPJm4kSbSKOIl9znPFIWZWqthSFdu/U2Su/JqMRRGk3tSX9CfGkblmMF2cjdbd+ZF6YzJ5DLBdAjBwyo/E67Za93fg0SCqm7+bLcW4SD1VU+ii20mkbHL6IxEH6NDtwN5wcnyFFhR0PfxYTHoGW0xANK5dfpPfzlsO3/lpnVHhVsmhd7P6pvtIDO89FZs2ly7+Zc5lBcuahrPjHDw7r/uvaPEAYFPCxB+N301iS20RDABoIcI5axaJvE6Tss9REgcdJs9b80h4Hp8kVEWc3LFHJolDTKwUkiK1kMxV60m9sSPpTz9EumPCkEF3niGdI0tdP/Z1me2uvCOE27wNVn0PY5EwyYgrDbLgSdpaQyKPJgKA6/8YQgiuzBlVUP3asvY/jw0/hwTgtVN9ej7lrXPqgHp3O3CdRcLPzuu+4o6wrFERCvVNLn640rfi9r29qyZ65/GGUBOaPQDY7sP2YAcyZDyCQADAdRCSJ4XEyY+Qx42/kUffvSSNKyVO0kjiYOc+rxEH68n3kXTi9c+T/uQCalz5NOmOTSR3HRFobkwlc4WcxKF6NHsAcAdIAF4h4XbV3TXRG8aGnxNuK8LsTdcgV+P/9YqSxINue/xNfqrlJYnTX2l7qBd76evKMgn9dAAAIABJREFUx+on1fd5J37fqFFHRq9DywcAm7BoJNT47ZNsKRDBuCbCLY365lJ7mZ8TzoFC//I6COeU4BpEJvK+YxD5TMhkyw0kDnTNP2RycjMpup8lefJz1Lh8GanWTSOLahj7jtitqttcGUaGnNakDD2Ltg8A7gAna1fhp8q2GfPpV+EXBEYBXr2SBQVd51fqPdx6RNgXhcmH7o3MWBupUD3s4ofKjQjJ+aCbb/nmow1hBjR/ALA63cF4MmTejUD882UuCSOaiLJJ2beAJGEFbFkoxSRpVUUeg4XnhQm/n4VbGfnm5cv546MsuObzSY7M1TLS/BTe/DqMLj6EXkgW+pCQJNT8HEyWJi+2HEwXE7W+zcsADnL2IraQ/3Pu86B+TmYi34ePkfedo6n244eo6bepdDGh7y4C2e+NNuxzEQlAAHALSABehQajrD5THbivo1cNEoBXaXNFu6/m5nfLdvc45Gj8jY+fvGn+jz3WjnL1EywRx7ebEr9v0qgjY+ahBwCAVVmaxNS45im25I9gXEjgnSdOeZi8Rh0hYYZLj/6ZJG2jYstGtp4VsXWeDyVm4Zc9V3zJ7/s+Kma7J4wYFDeXi8sNXwsTZAmJwLALhW+KIfUmIZEozGTZAVUKYO2TNh8dBb65kH1m/EZVr64gXpvqNtfC2kPJ5PvIFjQCAHCPDz24YrVGpeVYQ9i2jl41jyIaV6V6Wnafr80855QPpO3gVaO4PSxbuDARRjlo5+enVmvM0ms+ll+q2pw8VB+xradf6T0uXu/cLSF5L/fwK1t+uD68Dt0AAKxGdyCSDGfvcvMonCR5lzWk6LqJfO7JYR/Bpgu3+TlUksFT2B+hGP+03v+pvzwbmP2K9Z8sopoPH6Wm7YvQwAFscdbGzm0VKWcpZNZtVPnCFuL1XdzkyLuh8gHAXSABeJXez+599N7IM8KJqh+icWWyNAGbi7Q+uQ59zkM8Ny7ibGi8V21fVr8prT0aUtjqGFai2ffkYo7n/ntVMq39XuGr8Hyk86zkTs/uc5Rdqvy+vSr2+IG6CCNP3GXfS0iE7qqOXtLTr/R29tLDleteylki3ojb/8LtR8ZM4dEVAMAaeC1HjavvJ/e6be2/TOw32HryuW8u+T54iDiR2TUeU8x+j3IKCzseCxo4gI3Jk8ooZPZdVPns78QbQ1z+eA3n4kh32JMUPTSofABwdUgAXu2ZNi+qtfDcORHH90Q0ruzX6uKCLt+U6z0d6iReSNHJRGbRqLDsmMGBBXc+HpM+lq0S/tIp/ddOw104lJDm0uOd+N8vPHNqavzvDVqzZOMneT3W/ljZ9rcj9eFNlxr1uER4FmDUmVORCpWrtyNuZGjOM8+3ObL0k7zu+egOANDiLGo/dgH3gJsdtZk46Tryvnsq+T6QwZbRDgCg5cg7Z5Oyz6PUtHvtlZwbOzc+jJVYtnAGFQ8Arg6z2V6lbI1/49qy9scRiStj4kXpu2papTnK/giJv1C5Rv5pp23DdMNnrfs2ZeO5x2PSP2Sru7fACY6vUmya+Ebc/k0H+i4/u6n72qm9/UsjJZzlb/0st8lPW6D1WeUmzcDn9XYHXpeKLBx6BAC08IUbUcOywWyhjdscMCc5Tb4Tb6aoLePJ71Ek/wDAOoKmbyKR52o3OFI/4o1hqHAAcAdIAF6bYwjBldleHbMtrSGs0RH2xVeil37WedvA8qGfbn0y9vhWtkq4BddaV05Rw0Pypuzvu/zkhu7rp/f2Lwn/awLsw5xeO9mXandoB4Ey7d2TY4+loEcAQIuyqGSk3vyQmxytgeRJCyn4o37k++h24hR4sgIAWFfI7JeJOFd/jrOUGlcmobIBwB0gAXgNfq5qc5ouzrIH/3Kx8nNlm+2OsCPjIjJjfuu9+osnYo4L+zPAhm8dcGtI7mv7+67YPz/x1/sCpFr5f79xUhWcWaLzdpeZkT1fbntoilJsEqNbAECL0R5sxf4d7AZHWkfy5EcoeMYzpOjegIoHAJuQdawgZe8P3eBIO6KyAcAdIAF4DY7Wh1eQm4zcuk75x+rDz9lzB3wkBsnCzltHr0nZdCDFt2IiW2WvBFTs4zHpX54Z+OU3/QOKY+QiM51v8jVVG5Q73KUxhMo1Nz0Rc3wougUAtAyeSJ82mi0oXPxAa0neZRIFv7+CRN5m1DsA2JTvQwtd/rqHN7Yn3oDrYgBwefiguzbCX99LEIbLy1AHns3W+FfY6/39pHqPrT2/fW9STPoa9jLcAUIiCZNr7trTZ+WWmQk7B8lFZtGminYHSLityz0o3m2/942+AcVK9A4AuG4WrYzUP4108aOsJ0XXJyn4ve9J5IM7DwDA9mTxjaTsu9ilj9FwLoT0pwJR2QDg6pAAvAZ6i1ijMsmqEInLK9d5Hak0eNjlguWeyIzA33qt/rqXf+lL5HizlyVMjj323cyEnXedUweev3CB5yY8xcYeL7U5PBq9AwCum3aPcPuvK8+kbiBFytsUNA3JPwCwI47YZ9HnwiWQCx+kkPwLRl0DgKtDAvAaZGv89durY8sQicvi15a1t8vsv/dGnglamrzl666+FWMcuI0HTY49tnBM+Lke1QZlvRu1C9mQoPOv9Aso9kcXAYDr+BVDpLtw+6+rToFrIUXqUgp6dzGJfC2obwCwK687Skjsv9WFj9CPzLVIAAKAy0MC8NpVIASX1ZipDrR5knRI0PnAJUm/fCUXmYfThT9ZOvbJxh1hWbODZNoQtzqHlBgTXmpz+CF0EQC4ZrxRQpqf73DZ4+OU+8lv0hQS+epR2QBg/88kqZk8b1nhwkcoJfWmaFQ0ALg6JACvXTlCcFl1JDy43IaCZU2eb8Xvm60Qm5wh+fdffs3FnYhvDD4/qV9AMU60AODaNP0axv7t7qJHV0V+k14hWQdMNgYAjsNjyHZbn9vbWGtUMgC4OiQAr10jQnBZquZiEyGyJvG6bhte6R9QfDc5T/LPbXmJjW3fif/9sf9j7z7Ao6jWPoC/s32zu+m999Ckd6R36UhVFARERQUFVEAQe/2ueq/t2usVwYJiBUWQkoQSOgRSIIT0ZNN3s3X2O0PwqldBSnazO/v/Pc8ksxuY3fOeObMz7545J1jRhLoCgMtn2j+O/ZSJsGR2UvX8N2mGZaCSAcCtyGPrSRr6s4hLmIhKBgCxQwLwyukRggs7VB/aeKAuzGUJwHmxh0f1Dzy7SKQXhGLEDQ0+c8usqGPtEAoAuDw8R4bNo8V5VuZzhPzmvoRJPwDA/c7clHbyGSTecQD5hhi24ItpABA1JADBKeptCludTWlzxWsNCiqMWJ2y6xm26ofIe5SIhfH77xZ6byIUAHDJrEUq9nOgCEtmIlWvZ0jZvhKVDABuSR69lf20ibJs1nx/sp7SopIBQMyQAASPFq40SJ5ss/0+tdTWFtHwOFyKpmbqjdHHeiIUAHDJjFv6s5++4jsj89lLuukbUcEA4LZ8hgpjoJ8Qaen8CJ0JAEDkkAAEj3Zz9NFufQKKb8K+7LECb487uCRMaVAgFABwSRq/HCnCUplJ1etlUrY3ooIBwG1x8iaSRe8Tael0bEEPQAAQNSRNwGNFqhqlC+IOLmarwYiG50rVVF93Q9TxoYgEAFwSe634bv+V+Jwk3fTvUbkA4NY4NU/qnntEWjotIQEIACKHBCA4RbjSIItQNsqd+Ro3RR3rmuRTOwbR9ng+T7bZvqynf6kvQgEAF9XwRQQR31FkpeJJ1es/pGzfgAoGAA+wW6zno2TJRQIQAEQNCcAr548QXFiKpkaTpq3WOPM1xobl3YR6EAeVxNZ/eXImkrkAcHEOw7Ukvtnea0jd7ytULgB4BN3UwnPHLTFqSo9EBQOAmCEBeOUwSOzF+TozRtcGFkX0CigZiTCLhnxsaP6y7v5lQQgFAFxQ/Se92U9OVGWShmaRz+AcVC4AeATORxirVKwTgaBjAQCIGhKAVy4CIbiowPOLUwwIPNtTzvFJCLN4yCX2LiuTM25GJADgghwmsY3/x5Oy49fEKRyoXADwCJzKTPKk0yK+fgEAEC0kAK8cEoAX59svsCjGWRsfFlIwjv2SIsziOqWcEJZ7Zxe/8miEAgD+xHzMl8jeXmSlMpCqewYqFwA85+rRx07K9qdEWrpQVDAAiPoQjhBcwSeD0qhoq9XjA+JvDAkq7OyM7fYLLA4aFFTYExEW4QGJcyT9p8vXt4cpDTg2AcAfmQ/3IoddLqoySXyqSJFyBJULAB7mmEjLpUbVAoCor7cRgssXqjBq22j14YjExSVqanvGqetbfB+Tc/ZojigOERantlr9ghmR2amIBAD8gXl/VxJbz2/OJ4MUqRZULgB4FqlYbwHGGIAAIGpIAF4ZHVvCEIaLi1fXtYlWNbT4rdLLkzOFsf98EWHRClkYf2BJqNIoQygA4L/Mh7uJrEQ8qbpvR8UCgMfxm1XEftrEWDJULgCIGRKAV2BkyCmh9x96AP69uBGhp9s4YbsdEVpxS9VUT58ZebwHIgEA5zjMHDlIbEM/mEjZ4SAqFwA8kNBzuUJ8nzVW9lljR+0CgGghAXgFevqXXoMoXBLZgMCz4+QSO9fC241HaEXP9874/UtCFEYlQgEA1LgxnBzGYFGViVMbSNnxKCoXADyQmS3l4ivVQQ1ZTvigegFArJAAvExyjud8pFZMQHGJBgUVDunsWxHUwptF70svkKKpGXdj1PEBiAQAMMIXbwpRlYhTZpM8wYCqBQAPZGVLtQjLJXzOYAgaABAtJAAvU6JPrWZsWH47ROKStZsQltunBeOvvEZXiRm6vIPyroSslSmaGh1CAeDl+PpU0V2USX1x+y8AeOoBzEoSTQ3iAADgWZAAvEwhSmMo+9Uekbj0M4RbYo7cHKeua5GeG8GKJmWkqhEJQC+R5FM74Kk2v4yWcTyHaAB4sYYNndhPMR0HeNJO2oeKBQDPPLsPspF6QC0CAQDgWZAAvEy3xR0ULkIwRfxliFQ1Dm+rrUavSbiiY9T1ESdXdtBVBiAUAF6trcjKI9w+l4dqBQAPVooQAAB42MU1QnDplBI7F6xoGoZIXDa/+5Mz56ulNunVbshgl5vqrEojQupVOq1KybgRvQABvJS9RkZkSxRXoaQWkgbmonIBwIM1IAQAAJ4FCcDLEKlqDBgVcmogInH5BgcVzliVkt75ardzrCHYklkbiQSgl7k+4uSSa3SVYYgEgBdq2hZFvEErrrMvdSX5DKlC5QKAB8MxDADA005BEYJLd1P00WT2qw0icUWC5sccWhKtalC2wLZwy4H3iV+Vkn6njONxzALwwvbPFrnIypSDagUAD2dBCAAAPAsupi+RSmLj+gUUT2arUkTjyoQqjZPviD8wsgU2dQrR9D6TI3LuWhh/IA6RAPA6USS+BCA+xwDA05UhBAAAngUJwEsUrGjyGxFyejwicVVUt8UefHRg0NmIq9lIjiHwOELplfxXJGesVErsOG4BeJPGbxJIbF++acYiAQgAno5HCAAAPAsupC/RgrhDvdmvNETi6gQpmjo9lLLrAbXUdsW9OdaVtBEGTq9BNL1PuNIw67a4g50RCQAvYtdHi61EJAs6i4oFAA9nRggAADwLEoCXIEjRJL8rPutmxKtlDAk+c/s7nb6bIsyqfIWbKGLLGUTSK6lWp+xaI+EcmBEYwHvEi6w8Qq8ZjGULAJ5NN7EcQQAA8CxIaF2Crr7lMQFy01hEosUoZ0Rmv7AiOeOKenJl1YbXZdZEpiOM3ilY0TTmrvj9gxEJAK8RIbLyIAEIACK4ivR3iLBUKuE6BZULAKI9dCMEFyeMN7YiJWMeW9UhGi0qbEni3o8GBp2Nudz/aOJljvSaqG/Zqg1h9ErSR1J3PtPZtwIT8gCInbVQQg5TqMgOYTzJkypQuQAAbkdNSAACgIghAfg3BgSdDRgcVDgbkWh5Opml3bc9P/28f+DZoMv9v9+UJ+9jv/IRRe/kLzd1fSh111REAkDkzIdCiDcoRFUmTm4jVY96VC4AAAAAuBISgBchl/Dcg8kZc9lqFKLhHBqptcemXus/7hdY5H85/29ndXRlZk3kBkTQe49d48LyHunmV+aDUACImvAFkVxkZSpGtQIAuCUTWywIAwCI9iIaIbiwQUGFfgODCu9BJJxLLbWN2NL7k5/7BBRf8m1eVofE8URen0/Yqh4R9E4yjk9ZlZKxAJEAEDUNW8R2u38TqhUAwG2PzyaEAQDECgnAC5ByDm51SvrdbDUS0XA+pcTeZVuftb/cn7S7zaX+n+8qkg7vrY34EtHzWtzo0PwlPf1LgxEKANESvhgSWw9AzJwJAAAAAC6HBOAFDA0+E9o/8OxSRMJ1FBJ7m2fabkv/qscXkyWcg/u7f887OMcjOf2edxBhMHUvpZTYo1ckZ9zL9hcEA0CkzZwtHMIAAAAAAHB1kAD8CwqJnVuTuvNhtuqHaLhcwPiw3PU/9Fz//KWMC/htRdLxvbURb7BVZIC8EzcxPHfh3fFZiQgFgCgFkvh6ANagWgEA3BKuJwBA1JAA/AsPp+5q1zeg+BZEotVIh4cU3PNDz093rk5JH+wrs8gu9o9vPDDuhTKzJgth81p+K5MzVgqJe4QCQGyXYhYxnqfUoWIBANyQLMZAsnCM0woAooUE4P/wkVq5+5J2P0zNtx1BK9LKLO0fTdvxw5mhr70+KKgwRSmx/+VA8HmGgOq3Czveb3dI0KvCO3GhSuP0hXEHeiAUACJTvxbj8AIAgGvIwi0kDbIiEAAgVkgA/o9VKRl9ZBw/GZFwGwp/uWnu1j5rd2/s8flzg4MKU0IUxj/dDrbq5ICtB+pDn2SrFoTMK2nvS9q93EdqlSEUAOK6HEMIAADARcwIAQCIGRKAv+MnM8vuTdj7JOLilgJGhJy+9+c+a/ccGfjOmw+l7hqY4FPnp/zdbZ8zsia8lGsI+ICt8giX94lUNY5aEHtoBCIBAAAAAFegDCEAADFDout3HkjOHKeS2vohEm7NP0xpmP1I6s6fTg3595Yve3zxxKqU9F5p2upgo11mG7172pJcQ8B6QhLQG6kfS9uxom9AsQ9CASAaKoQAAABcpBEhAAAxw6015wUpmnzujt//EGLiUftut1Ehp4Rl2WNpO/LONPke3l0Tmb5NH7s+UtWYqJFaeyJM3kUrs/RYmrRnSvq+SR8gGgCiEIYQAAC4IeMvahGWqgoVCwBihmTXeV92/2K2Vma5BpHwSMKYgG3j1PXCMv38c5jByzsphwcXLO0bUPxNek1UNcIBAAAA4ATW06EiLFU5KhYAxAy3ADPXheaH9PQvXcpWpYiGaKgRAu+kk1naL03acwsiAQAAAOA0CtGVSBqCL48BQNSQAGRWJmfeqZDYExAJAHGcvo0ILri9b0BxHEIBAG4Id18AgBiEi6w8dtJehx6AACBqXp8AHBOan9DDv3QBYgEgHlqZJemRtJ13BCuaOEQDAHDRDADQ4gJEVp6G8wsAgGh5fdJrRXLmMoXE7mkn43a2VGD3BbggblhwwU03RB1vj1AAeDQxjueKHoAAIAbBIitP/fkFAEC0vDoBeG/i3h49/EtnsFVP6yUkjFVYTJiqHuBiIhbG7V8cojBibE8Az4XeGAAA7klsvZnrCAlAABA5r00AxqjrZfcn7V6qkNgDPbQIwpiFP7KFx24M8Je4NG319TOjsnshFAAeKxQhAABwM/ZqBTXtDBNVmRRtakmRVofKBQAx89oE4O1xBweEKw1jPLgI/tR8G/BR7MYAFxRwR9z+e8KUBiVCAQBuQo4QAIBnsymIbwgRVZE4VQFb7KhbABAzr0wAxqnrVHOij6xgq1oPL8rEHdXRL7DfBuzKAH+tjbZ67IzI7EGIBAC4iTCEAAA8nIotESIrUz6qFQDEzisTgAviDo2LVDX2E8NFhFpii9xVHfUa4VZggAtRP9N22/LufmU6hAIAcO4FAHDVhDsrxDYGYC6qFQBwEioyCT51vrOjj94nJAXEUJ7u/mV37KyOecnKS/Zjdwa4wFmqxN5veXLmOEQCANxAAEIAAB6tfl0i+6kQUYks5Du9EBULAGLndQnA9zt/c0OUqqGriIoU3SegePwz+b3nUfPsVQDwZ/Lx4bnLuviVByEUANDK/BACAPBoDlOyyEpUTZy6EhULAGLnVQnA4SEFEf0CihexVamYyjUg6Ozi3bURp7fqY5cKH8nYrQH+TM7xnR9MzpiFSABA67JxZMnGkAQA4MnSRFYePVuQAAQA0fOqBODqlF3zJZyjrQiLljwgsGjK8MwZ7/AO7kPs1gB/iZsUkbO4o29FNEIBAK3GYePIfMgfgQAAj2SvllHjN+LqAahsX0iqrtWoXAAQO69JAI4IOZ3UP7BogVjLd1/S7qVKiU0+NHPG3XYHdwS7NsBfHfAcCeu6blwYojBiEH4Az1AswjIJdyFEoGoBwEP5EPHtxFUkLpstqFkA8ILrYS8g5Rzc6pT0JWxVzD1/2j+cumvKNn1s/cjd06exx7XYvQH+rI1WP29GZHYyIgHgEWwiLJNwlYlxAAHAUw/LwkSK8eI6KsuzUK8A4A28IgH4cOrObtcGFs0QeznvS9p9t0Zqlf6ijznxfUXiLewpE3ZxgD8JvTN+//3BCqMMoQCAVjr3CkUYAMAj1f+nI/upFlGJGsj3xnxULAB4y0moqCX41ClnRx+5h60GekF99l6TumukzSGhifsmb/ymPOlxEmfvCYCrkqatnj4zMrs7IgHg5tS9xDgmk4R4UyQqFwA8j4PY8Uts508VbDmDugUAbyD6BODcmMP9YtQNk7ylQpck7lnsK7NILLyUv/ng2GcbbYp3CTMDA/wv7d0JWfcFKZpUCAWAG1O0qRdluRrWYTIiAPA8fIOMDN91EVWZZOFFJE+oQOUCgDcQdQIwXl2nmRNzZDmdG6zWO0g5x7BVKbv6Ces1VpV10r5Jy+ptik3Y1QH+KEVTM/72uIP9ZRyPYAC4rybhklOMpyioWgDwQMIXp+LqASjxzyJpKE4GAcAriDoBOD/28KhoVcMAb6vTRQlZSwPlTeemsvqpKr5+Stak+XU2ZSZ2d4A/kD2etn11O51ei1AAuC1hQisxDmURj6oFAI9j3B7LfiaIqEQ8+QzANRIAeA3RJgB7+JcG3BJzeClbVXpbpSol9pErkjO7/fr4x8r44mlZE2bXWlXZ2OUB/qDfqpT0CegFCOC2hFuA7eIrFh9DfJ0c1QsAHsV6uo/ISlRN8sQTqFgA8BaiTACqJDbuyTbbp0aqGnt5ab2qFsQduvf3T2yuTMiZsX/8jTVW1Uns9gC/HQOnRpy4r51OH4hQALilBhJjD0DeqCTDj0moXgDwGA6zlJp2DhVVmThlCUm0mAEYALzn4leMhbo2sCh8WHDBPeQFk5xciI/UOm5CeG673z+3qTLhwPtFHW5jq2ex6wP8V6dVKemzpBzPIRQAbkdP4rwFWOj9l4jqBQCPYSvzIVvJQHEdiWP2kLKTEZXr9p+XOEcHaCGiS5CppTbJA8m757LVtt5csTKO161KTr/3f59ffbL/9rXF7W5hq4XY/QGaCb0A2+uqQhEJADcjDdITJ7eK8WOabOVpqGAA8BiG73qzn5EiKhFP0vDtqFi3F0Je3KkHoKWJrjH1CyhKGBZccAeqlqiTX8WkieG5f+hh0GhTOBYcGfnz2uJ2QpIUSUCAZtHf9vxskVJixwkGgDtR9zWSxNcgwpJxZPihKyoYADyCwyYhw08zRFaqGtKMOoTKdXsSspVgzFyAFmtQYrpOkNqky5Mz72arUahaIjnHBz6YnL7wf5//NQn4MXoCAvxXtKph4fzYQ3GIBIDbEevnVGdULQB4BFthINkrrhdVmTh1EUkDc1C5HsC4ORxBAGgZokoArkjOuGZo8Jk5qNbfPto6+VXMnBie86fu+kIS8LYjI7f+83T3G6utquMIFQD5r05JXynDWIAA7qZYlKXiG2LIuA1fWAKA+6t790b2009UZZKF/ULKa0yoXI+ABCBACxFNAjBY0aS4K37/MtF9OF0lOceHP5iScetf/U1IAt5zbOjOmfvHC0nAg4gWeLswpWHW7XEHcVsegHspEmex7Gri67qgegHArVlPacm47V6RlcpC2glbULkeIxohAGgZokkALkrY1ytAbpqKKv1zHXfyrZg3MTzngr0MNlcmHJyxf8LUGqtqB3voQMjAi6nWpO58GGEAcCPaSWK9BVhBDV/0RQUDgFure1cYMkhsQ6RUkTRgHyrXYyQjBAAtQxQJQH+5SbU4Yd9D506m4U/kHB99oV6Av/qxMj5vWtaEabVW5ZfsoR1RA28VrGi67q2O3w9FJADchNRXSABaRVk2vn4QKhgA3JY1L5CM25eJrlyy8AOk7luKCvYQjRvbkMOCifoAWoAoGtKSxL3X+cosg1GdF8R1PtcLMDf2Yv/op6r4suuzJs3eqo99TbQXWwCXcFycHXP0SdZmpAgFgFs4Q8LtWmJkr04j45YkVDEAuKWKJauI+FiRlYonRfvviFPjriePqTFDCvuJ83KAlrjQ9fQCDAk+o1mWuGclDgoXJ+P4qFUp6ff83b/7uSqu4brdU5dsKEtdyh4aEDnw0vbSnbWXGYgEgBuQJxUSpxDpl1K8H5kO4DZgAHA/+if7k732dhGWrJbUvX9GBXuUdmTJ9kEYAK6eRycA2UU6rU5Jn6mW2jBo/9/juviW3zAhLLft3/1DEy+zztg//pUvy1Imk2gHXwe4+LFxXFjeqm5+ZTqEAqCVKTvWEqeuFGnppGTaPQGVDABuxZLjT8YtLxE51OI76obmkM+wk6hkj6Kgpt2YNAugJS5yPfnNDww6qxsUVLiarXKoykuobM4Rtjo1/b5L+tznpfzUrImbB2fMHGTmpemIHnjdmYbEnroiOXMuIgHgFvJEWzJb+bVk+BEzHAKAe7DkSKli0T/JYekowtI5SNVpA3HWTFyaAAAgAElEQVQy3P7rcfvl0YGYqxLg6nlsApBjB4CHUnctZquxqMZL19Wv7Prn2m299pKuSRwS2qaPzR+WOWPwlqq4l0gYMwPAi46P14Xmr+jpXxqCUAC0ukPiLZojhMz7x6CKAcANjkdE9R/fTbzhBhJnB4sGUnbbhHr2QKYDk9mlKCYCAbjaC1xPfeNDggtDBgSeXYYqvDzsk9z3xqjja1I11apL/T87q6MtwzJnLPqhMnGizSGpRBTBW6ilttCve352v5TDN44ArcpvtnC7lli/hJKQcftssuYrUdEA0Hp4jvSPziTjlqfZA5koiygNPkLaMYdQ1x6pI9W90xNhALjak04PpJDY6eHUnQ8LlwSowssXoWwcsDD+wGRhDMXLMXr31K+HZ07vZuGlwjdndkQSvAAXqjDOXRi3PwWhAGhVQgJQvLPT8/WdqOGzQahmAGgVDhtH+idGk+GnV9kjsX4ZwZOq28feUJsk1ntl6z5aRQ4rhv4CuAoemQBcnZLe7trAoltQfVdMsThh34rRoafCL/c/btPHnh2aOWPC9xWJwliC1QgleIHA5cmZy5USO044AFoLp8hmPywiLqEPmQ/fyi5scHsTALiWwyql6qenkGHzR+yRv4g/SOpI1fVr8V/lJVeTNLBJnIXjr6P69wai0QJcOY870dRIrdx9SbsfYqtqVN9Vab8yOeN2hcR+2fvAzupo86R9k1+4P3vQQKNdvoU9ZUM4QcwiVY1TF8Qd7IVIALQS7YRakqgLRF1Ga+FIqnl+KCobAFzGfFRHlcvXkGHTB+xRgKjLKgvfQprrzoq+TmVRPEn8xHqnFkd1H/2TTPv80XgBrozHJQBXJGf2VUrs16Pqrv4A2jugZOHjadu7XdH5Ai+l5/J7HR25e9q4jeXJ9xns8mLC1EwgXrr7Evc8oJFaZQgFQKs5KPLyacm4/T6y5GlQ1QDgVA6LlOre7UKVyzeQac8q9oxK5CW2km7a215UwyXiLRp/Ddt3/0W8UY6GDHD5PCoB6C83yxYn7n2CxDowreuFzIo+vjpZU6O90g3srI5umrD3+hdnHRg3tLDJdx17yoiwghjFqOtHzI09PAKRAGgl6v77SOxfNPH1A6lh7U3kMGHIAQBoeQ4LR6asGKpc/gjVvfMz8XVCr2PxH284ZS6pemzxopquE3NtkvnwDVR5/4PEN6rQqAEuj0clAJcl7pmglVr7odpaToSycfTSxL0z1VLbVX34f1mWcrLT9rk3byhLvbHRpthNuC0YxMfnibTtK3sHlPggFACtQJ50gMQ/AZWCDJsfJOMv16DCAaDFCD3+TFmJVPnAMqq4ZwuZ9j5Ioh7v7w948hn6OsnjrF5U42UiL5+UzIdWsX35dTL+HIEGDnDpPCYBGKxo8rkrPmslofdfS5PdHndg5ZCgM22udkO1VqV18r5JX47cPW30F2WpyxttilOE24JBRHQyS4+liXumIhIArXG6H3CQiDN5QUmjqeZfwhhH4ah0ALhiwsy+ltxQqnt7GFU+8ApV3LODHVeeZX9J8a5AcBWk6vqRl9X+GW84KyDLyZtJ/+SPVP3MDLKe8UOjB7iUhuMsqk5s6dZim/u+16fz0rTVc8lDZy52c/5Dgs+EfF6W9l2tVXXV346dNfma1pe0zfhFH7sx3qfOluhTl0jC2EYAIjhmxqgbErbp4z4rMulwuzuAKymSLVT/0QQie7T4L9zNcdSUGUmKlJ9IFmX22jpv2t6NrPnjRFSiUtKOfZ9koeKpU8vJbtSULqI6cnCsTGFk/CmaHA3CuauS7FVS4uutJA107x7I9kol2QrDyFacQjUvjibD9/dQ7WsPkvngYrKV9GD/QueFRxEHyaL/QUEP/OBVpebrY8i8fwp5w+3dZA8lS85Etr8PIssxDXtsJE5mIql/6x9n7dUyshVo2DEkiC3BbIlgbTGJtc/u7BgzjC3TWPvsSOq+GTjJgz8w72fLIads2iN6040KPRXSy79kCTkzYenlwpWGSauS039cdGz420a7rEV67aXXRBXM2D/h/pmRxz9aGH9gURutXpi8Bd/OgEfTySwdliTuuXlq1sTnEQ0AF5OG7SLbWW+YkZsjvm46VT1ioOA1y0nVoxqVD+AKDgk17Vp4brVpl3A+rGdLBXGqKlJ2FCZWKKDm2ytLSDOyjGQRBrZuYYvw23z+t40UbQzEOWGOAstJJTks2vPn035kPhpBpn1JbL0D2Yrakq1EuB1S+JIEY6M1H0oryW/Oq15XbHl0ubAHs8Vbhq2RkaOpL2uzwlJLEm0eKdoJd6IdZUsOaceeJWmwMC5i4/nFRtLARpJFXTipf64HbbbQ1n7tfCT8/jWJrhaifL6dKanx61Cy64V/K7Q/4db6IOHymuxlOrIW/tpehf8jrP9xtm1Z9Gtop+DaxuIBViRn3qGU2JNQXc79qJgXe3jV52Vpu76vSMxuqY1WWdSOlwq6HfqkpO3t0yOz310Yf+D+tlr9sPMHQQCPTEGMDDm9sHdAyeeZNZFnEA4AF9KOzqDaN4SLcm+YJENKfN1cqnokiILX3EOqHmexAwC4lHCcCT63OExEpj1//GvzYyHhJ9w90yA8c/6xhZTX/JoALCRhDLpmxfTncUyF//NX47WF/e5cWXgPQiIniszHdOQw684nGYREAmYNv+iVbtQrpBlZ6YUlLz+/L3rjuNX+xDd2Z+2zO1ufdr6tCmPT159vp8JvG0mDG0gee/EEoPmw0NYk//1M/i0BKMRVSc0JwKtNtpegoYJLD4vu/gZHh55K6OVfsoBw668rxL3f+dsnumyfc1OxSWdoyQ1XWnysLxd027m+pO2+lzr8OHJCeO69Son9WkKvTvBAOpkl8dG0HQtn7h+/XG9RY5xLAJedtUTuZNfk7ETeIfeSEgtJwElU9XAUBSy6h3wG7iZO5R3HHOvpYLLrk7HTg5vT/Dfp8HvmI4hM66skv1te8cqSS4OK2WeFgRymEOwGzWcPbAk8vzSzVzUvrU07uhTVA67k9km1FcmZS5QSeySqyjVCFMZxT7X5ZYFaanPKvlFh8TFN3z/hq947bxq/rqTNLVaHROiajQQKeBpueHDBrJmR2e0RCgAX8hlaxprfCW873hBf34v0j39J1c8uJUueeIfSsBYoybilL5UteIbKF/1Cpqx7sdMDwBXRjHmKNCP0Xll2ZecGkoag17j7s5A0rAxhAFdy6wTgvYl7u/f0L5lJ3nGrj7uQ3RR97KGVyRk9nfkiB+vD6mfsn/Bht+1zhq4rabuMJ64AoQcPE7kwfv/iEIURM5MDuJI87hcvLXkYGX58iioWf0/6p8eSJVchilJZz6jIuPVaKpu7giru3k5VD/9Aluz7ia9tR81jLAEAXK5j5HfLW14eg+PYDdyeMG5oJcIAruS2CcAYdb1saeIeofdfEKrJ5fzvjN//8qCgwlBnv9CRhpCKGfvHP7/wyIiBxxqCn2VPYaBz8Bhttfqp0yNP9EIkAFzIZ/AmLy69jPj6PmT4dh1V3LOZ9E/NJEtegMeVoml7LNX8axKV3vQyVdy1j6oe+p4suU+SvVb48lGHnRwArgJP2rErSRba4NVRkCcIU4jiLiv3hgQgtMKJpJu6NfbQwChV41hUUesIkJu6fdn9i6cSfr79jhqryuLs13v9TOfCz0rTVkyJOPnuooR9y9pp9ULPTx/UBLg5v4Xx+5euL22TVWH2MSEcAK64qEnaRc0D53vzLJc+xNcPJMN3falpRxFJ/H4iv9kbiaQHSTO8yK3eqa1cReYDyWQ9lUbGHd3YMwPJVpLIrtGDyUMmowMAT/qMiP+S/OZ/7/U3kPkMOE5N271pJmDPw6lNJItEAhBcyi1PvOLU9apbYo48QPgWuFX5yc03v9nxh303HBj3bwsvdfo3SHqLmn/9TOcT60va3DEt8sS/70nYt7qNVj+acAsQuLG2Wv2oaREnhr1c0PUbRAPAFRc119aynxlsGYxgsM9HviGBLbeS/onZ7GqilureyCdOmUm6GbvZ33NI1fkEyaKbXPJuTHuCyFYRy9ZSyPB9B7JXdCHe1J742l9nK8XnOQA4UyX5zlpB0iArQkEnqXnGWyQA3ZXUr5aU1zQiEOBKbpkAnBd7aFy0qqE/qqf194/rI04+u6Ih5NAjOf3SXfWiNVaV9fUznfd9W540/am2vwyeFXVsBXsa+wO4K/X/tft56a6aqF8O1IU1IBwAziZxkG7KRmr4DAnAP1IQOULJViYM39GHqp+xs99GkmgbiVOeYevZJA3OI+1YYWB4YdDxqvOLmXwGV5HEj7/glhu/CmbbFsYcFCYgEb6cFV4jiIw7Q8maF8/WhSWJ+IYgcliUwnGR0LsPAFxNnvg4+QzMRSAYn0HlVPtGAdkrwhEMt4WJWsDl3O7kLN6nzn9O9JFl5N239rgT7QNJme9v1ccO2q6PKXblCxeZdKbZB8d8/1hO3+2rU9PHz4o69hB7ug2qBNyNUmLvtzwpc8L0/RM+QjQAXEDV7Stq+Oz/2JoUwbggITY64ht1RI0RbL032fVE1SeFRJ/QO0ZIENpIGCOq9nXbRUPJ1wl/5M5vU3r+/FH4LUGYAcAtyBO/ptAX3yJOhXHvBJzSQZw049yxH9xVMUIAruZ2J27vdfpuWoy6oRuqxn2opbbkzb3WfXxtYJHLb93hHRzlGAINsw+O+SRt6619Pipuv5Saey4AuNVp5+SInKUdfSuCEQoAF1D1FL41z0QgrvjcT+ilJ9wW5ktCrz6+MYj4ugsvRP7U3PtPS829++SE5B8AuI9S8p2xjKQBRoTid3xv2EPNX/aAe8I1LbTKSaDbGBJ8JqJ/4NnFhG/03Y5SYh/wcOrOf7bW6/MOzpFjCKydfXDMC/MOje56psnvGfa0ATUD7kLG8Z1WpWTMRCQAXIBT2Eg3fR0CAQDg9eykGXUvW3IQiv8lF74oq0Mc3JTvTQUIAria2yQAhftK1qTsmivhHO1QLe5paPCZ2zf1Wn+vpBVnlBcSge+c7ViauOW25fMOjb6msMn3A0fzbJAArX4YmxJxYuk1uspohALABVRdPyV8EQQA4N0UKS9RwKLPvX7W37+iva6ApMEYE9E9WYikFQgDuJrbJACHBJ9JGhB0dgGqxK1xI0JOP/Vtr08nyji+Vd8Izz7k3znb8XTcljtmzz80un+RSfcdNY9pBNB6DYQobl23r+4MVjTh1jgAZ1N1rmQnz58jEAAAXnspu42CH32YJDobYnGBM1NO9gPi4JYsbEECEFx/1HSHNyHleG51Svo9bDUWVeL2lKNCTr+9NGlPL3d5Q++c7bhvWOaMce8XdRjXZJftpeZBzQFaRVutfu60yOw0RALA2dc1PnbynfEWCd8JAQCAl30GyPIp8P4FJIvGLa4X43fL1yxY6C3vfoSOK0gAgsu5RQLwoZT0rgODCm9AdXiMwIdTd30yMuS029yufbIxkJ9zcMym7jvm9Hu/qMP8RpsiGxeF0EpC747PujdI0SRDKACczPfGvcQp0xEIAACvUkEB98wj7Rjc3vp3NNdlkdTvCALhZiQaCynbIwEIrt/1WvsNxKnrlXNijggTfwSiOjyHSmKL/6L7F/8ZHXoq3p3e1/HGIOucg2Pe77Prpt7vnb3mPgdxwvTqDtQYuFIbbfWsGZHZXREJAGefxehMpJvybxznAQC8hoGUHe4jn0HbEYpLvXDr8yZhNmD3wqmrSR6Pnpng+lPn1n4Dc2MO94lV109GVXgeH6mt86fdvnxvTGh+mLu9t6MNwfW3HLru+TkHr+uZb/B/lj2lR42BC6kXJWQtD5CbVAgFgJP5zviKOJ8DCIRo2EniV0iyiAJ2gVSFcADA75hIec1DFPLUx+w4gS9+Lvlz8oYviFMVIxBupQghgNbQqgnAWHW9Zm7s4eVsVYOq8EwaqXXAJ103fjg2LC/UHd/fB0UdSpK33rZ89sEx/fIMAe+yp+pRa+AKqZrqcXfEHRgo5XAnOoBzz2T8G0k36XnCsA9i4CBZxMcU/loqRa5PIO3YaahXADjPQsqOz1PwEy+x4z7G+74c8vhakga9Tegt706QAITWOW1uzRefF3t4dLSqYRCqwaNxWpll2Mddvn5pfFiev7u+yQ+KOpxss23+vNkHx4zWW9TCjMFGVB04meyJNttXttFWaxEKACfTTf2aJLq9CISnHzUjdlDo84tIFmNurtdJJ3CRBADUnPx7gYIff4ykAVaE4wr4zXmdXbaVIxBuAz0yoVW0WgKwu39Z4PyYQ8vYqhLV4PE4ncwy5cMu37wyISw3wF3fpN0hcXxQ1CF9SOaMSW8Vdpqpt6h3UvMMTADOcu3qlPQJUg5fuAI4lTSonrQTnsQx3aNPSXPJb/4ckkXX/vacoookun2IDYBXs5Cyk5D8e5ikASaE4wppRpWz5TlCL0B34CCfwUgAQuucbbXGi6okNu6JtF+uj1Q19kAViGdf8pWZZ7zf5duXJ4a7bxJQcLg+1HLr4VEbh2TOHP1mYafb9Bb1QcItRuCkdjE9MvvBtlp9AEIB4GS6yT+SxO8rBMITcVXkd/Ms0ow4/YenZWFWUvXYjPgAeK3zyb/HkPxrCX6zXyeSHkMgWp2N5HFlCAO0ysVpa7xo38Di8BEhBUvIDSYhgZbdn/xk5unvdXL/JKDgcH1I44LDo94dnDlz1MfF7R5gT+UTvhWDltd2dcqum6Wcg0MoAJxIGtJEQQ8+ztYwcYRnMZDfnLnkN2/PX/5VMyKdMGwHgDcykrLTKiT/WpAsih1vbxKuwS0IRqsSxrDE7djQKlyegFNJbJIHkjLnsNU2CL84L8H85OeSgK9OCs8J94Q3fKQ+pPy2IyP/ccOBccOy6sKfwQEZWtq0yBMPtNXqQxEJAGefZHQ5Ssou/yJ8meMpLKQZtZT85n594QvWyEL28zhCBeBV9KTstJSCH3sByb8W5jfvR5JFvIVAtCphuBL0AIRW4fIEYN/A4rgRIQULEXpRO5cEfLfzd+9PCs+J9oQ33GhTONYWtysYnDHzwRsOjBu+tzbidcKMwdByIn7otX6JnOPRCxDAmTiVnfznvcIuGHciGG6PJ1nkGnYxevELUVlEPSk7ZyBcAN5yHFdkU+CSGRTy+OvsWI7Zfp0h9MUH2c8DCERr7eNyK0lDkQCEVuHSBKBKYpMuT8pczFajEXrxH9r8ZObhQhJwYnhOiqe86Qabgl9b3O7IsMzpd8/cP350rVW5gT3dhOqEqxWlalgwP/ZQPCIB4GTKTtWkGb2SrVUjGG5MFvUPdhH6IsnC7Rc/m1A5SNleGAcQvToBxM1O8sR1FLh0NGkn/UQSf7R5px1/I2rJf8F8wpAZrXSVrNGTug+uL6FVuDQB+EDy7vbDQwrmIuzec3jzk5mHvN/5u48nhud29qQ3Xm9TWj8paZvec+fsG18t6DKlwabYdu7EBODK+a9J3fUYwgDgAn5zM0jZ8SlqHmcH3O7iM+p9Cn3hYXYRemm39vkMPcJ+YsZEAPGqIEW7xRT2r7mkue4MwuH0SzQi31kHyP824a48JKJcrwghgNbisgRggNykWJywbzlb1SHs3sVXZu7+Qedv1i9KyBqsk1k86hbIXENA051HR3zXefst418t6Hqz0S4/TOiFAFcoTGmYdkfcgS6IBICzr22UdvJf+AZJAzcgGG5GFv0thT5/L8kiLn1iD4mulKTBhxA8AFFejv5AgQ8Mo9DnXiWJHyb8cd0HpYN0Uz4nWYwwEaIV8XApJACh9Y64rnqhxQn7OgTITVMQcu+kk1lS/tn+p7Vru26cppVZPG7251NG/4Y7jw7/uN22+UO2VMUtZU+dRq3CFZA/nLpzJcIA4ALK9vUU/ORykgYeRTDcxg4KeXIeySJrLut/ycItpEj9GeEDEJUi0oyaT5Frp5B27BGS+OILdlfjVDyFvvA6yWMfZY/MCIjLlCAE0FpckojRySzSJYl7hS7GcoTcq4WNCc1/a13Xr+73kVo9cl840+Srn7hv8otTsyZeu7s2Uri9rA7VCpcjRGkctzB+f1tEAsAFlO1Pkc+w2wmz7bmDA+R/+2ySx5Vf2cnk1F8It6oBiIGB5EkvU9DKPhT04NskizQgJK1IFmahkOefJnnsMhxjXUQ3FUNaQKtxSQKwp39ppE5mmd6K5eRJGFuCSLh9ZC9b8s99+EBr0F4XeurRgqH/fmVkyGmNJxZAmDH4s9K0kqEZM1ZNyZrYbW9txDvsaQuq1m25VfvniJRrUnfdjWoBcBH/29NJO1Houd2IYLSaPPK/Yzb5zjx9xaeeEo3Q8z4HoQTwWFaSJ3xGQSv7U9ir95BmNG6DdBeyMBuFvfHauS9pMDGIs9lI4oMvJaH1mrvTX4DjuQdT0mexVa2Ly1ZTYfb55j/F7X8oNPmmf3C2QzU1DwYudC+XCm/tzvj9Kf0Dzw4eHlIwkT3uRS6eFMWLyUMUxvlf9vgidcLe62/aXBl/1hMLYbDL+c9L0/K/q0haMD4s79VPun61mj09AdXrFty6/fvLzFO6+ZWtzKoLr0VVATgZJ3dQwOJP2FoYNX75JPutQlBcqpz875hDvjOOXNVhVpFaTaquu8m0vxNC6hWsJE/cQKruGazdDiKHZQhhHHFPJXwR+xNpxzxDfgt2kjQQX5q7I4nGTr4zP2Nrp6j232+w310RFKcQrkfQAxBa77TYaVv2u5ktt5JaalMYR/9jD3vGVSdsNd+UJ7/2WG7fV442BJcb7fKLztwq53hSsve4NHFvpxXJGauVEvtYp8YF/nh2x0sLH8ntO/OpvD7pvMOzwx6kaJKvSdk18O6ErCfYw56o3VYhtP8XWPt/+wra/8Os/Y92Ufu3Lzs+5IZ/nOqxHlUG4KoPnAI5VSx6guw195ILvgCFcxrI//Yp7KLyR3Z1efXje1UsnUamPes8OB77Key1waTsUC+aGm7cuICqn3u9JVsqyeM3kO/Nz5DPwEPEKezkaJKR+agvmfb1JfORUWwZyf5dMpqXByQ6ZDEbyaf/86SdvJdkoRZcYnkCntVcaRA73j5KtuL57AkFYtKiDBSwuAPpphQgFHBBdW+y5QOnbNrpCcDH0nZ0WJWSftgFF9WOepvyp0dy+t3x4unup3gHd9knmgqJXfJ1j8/HjAg5/TZ7GII9z2U2DM2cMePnqjhRfCMYKG9SrEndNXlRQtZjOEF1GaH9f8Pa/2LW/guusP1LWfufxNr/q65o/3qL+rPgzYumouoAXMiaL6O6d5aRcfsaQk9AZxOSf/PJ94ZPz8022RLMB5Op/G5hLMBID40JEoAXZiN5zJfke8uTpBlyiEjKXyA5wZHDIqP6j5LJYR5K9Z8MY08OJdffaQQXVk2yqA/J75bXyGdYLnEXqktw7zNru4TqPxxOdW+/wB5h7OqWwinqKPRfYaRsj0lX4MKcmAB06i1vEna+Nzio8HpyfvLPurE8+ZnBGTNHP3+qR/6VXPwLLLyUH7l72teDMm7oyrZxHHueU/FWh2Tvk3l9Riq/WzZFLMm/c2c9VrVl8bFhnwRtWtzxQF3YErYvlVLzrafgvPb/BGv/k1j7P30V7d/O2v9nrP33dEX718isQ3sHlPih+gBcSJ5ko+Annibt+CnsUSkC4jQmUve5h3xvXN9iyT+BLLKQZBE4PxPX1bCZ5DGfUdCaHhTx8VTSDD9w4eTfuasLB3EqK/nNzyb/O1+m2B0TKfqHAPKb14d0U5YTJ/uB/X9hgjY7zr1cxnGuHjnZNtKMvoUiP42jyE/uIc3Ik0j+eXLTZHXnN2cTRa7vyY69q9kTlQjK1bYTdlziVHlI/kGrNm2nbdnvZpL5z5NYxzy3gz3q68SWZFtb3O7hGw+Me6Iltzs4qNBvU691P8klfHfsJi2Ktzkkeek1UY+N3j31E6NdbhN7gSeG54Y8lLJraUffigVSzuFPuP/BE9p/JGv/m1j77+DEt29ddnzI9f841eNr1CRAK2j8Mplq33qH+Lp+hDGAW1ITyeMeoNAXXiFpSMtf/FcsXk2m/Y96aGzQA/C/JGw/if6GfOc8TZrh+1v0PdmrFWT4viPZyvuy333YqWcvclgi2F/k1DwOMLTA+Tw7nTURpzxAPoM+JVXXr0gzugBhETHDDzFU994SspXcyM7Ag3E9cymXKWQlTlZHJNtFqi7bSNlpB2srh0jR1o7wwEV56i3Ao1OG+n7X81Nh9k2lsxpWpcXn3dDNd89zxsaHBp+J/bbnpzuUEnss9sKrrysLLy3KrIl88Ym8Pq9vrkzwulmYJ4XnJK5KSX+wo2/lNBnH41aVlmn/r7H2f6ez2v9PvT/ZyVZjnFUA9v6fYe9/OaoSoJVY89RUcd8KsuuXsEOKBgG5akaSxy+n0H+8QtJQ5/T8qf/oWqp9/Scnnls6ExKAJDGQPPo78p3zDGmGZ7nkPdpKJdS0PY6tdaaGL7sTX9eNHNbO5DAJk4oI45thTNBLS2YICb9q4hTppO6zmZRdhYk9ChAaL2P4IYxMB2aT8ec5rA0lEcYI/LV9WNlibp6xXpJFuul7SKJKJ0XbbFJ2tCJEcFmcmAB06gdeb/+SLs48QbM5JEdH7Z622Fnb31IVV/hcfq8Fq1LShR46cuyJV3ZANPPS6syayDefyuvz8qbKBK+d9WhDWeoptsxbkrj3jdUpu5b7y82jCGNQXU37P8ja/zJnbX+7Pqbwm/Lk28eG5X3lxGNlb9QkQCuSJzdR1IaHSP/UJjJu/Sc5moTzFvQGvMLLQpInrKTQ/3Ne8k+g7HSCOFk+OWztEHJPImkkecx35Dv7/0gzfK9LX1oWwbOLcXZRTqfZ7w3nnhMmBTJlCcmLtmQ51oZM+zqz9Q5krwk/f26m8vJjgTA0TxNJ/SuIuF2k7LKblB33sfZ3mBTJmMXXm2lGlbPlWfK94QXWbgZRw/oJZK8dQw5jKPurjzdc29K5ZOuUh4cAABm5SURBVLjMRBJdGVs/SLLYfeQz+BhbP3QuPhINhh8At+XUHoDP90lacm/i3n846RXs7529ZvQth6770ZkB8pObZUVDX31LK7PMxu5y2eoqLD4blmcPevrds9ecRDh+E6Ouly1O2DdsTvTRB4MUTcKMwfj27PJYWfsfydr/Vhe0//dY+7/RGds32WX6kXumxW7XxxhRpQCtfbmbq6WGT5aQYfPd7FEwAnJZmpN/Ic+9TLIw54/5VX7ne2Q+7InnZeLrAWg905bMh/r/7QUzp2YXxsP3uH15GjcKbT+NHOZ4ql+bdG6dqB3xDeHkMAmdGoTEoPBbLMlB/lwyQ+i9Kw3UE0kPkaLNYVL3PsSeO07aMafZc0hmwN8cB/LVZD7WhR2X+5Fp/yByGLoSbxR62PqQ594qLOz3TecWiW8DccoT59qEZtgJkkVnkzQ4j9R9y1D54BSeegswf2PN2xw55jpj83qLemvw5kVDXBH/ESGnUzf1Wn+AvONbjZZgLDVrNr1xpvOzr57purvC7IMThwuIV9ep7krYP2VRwr775Rwv9GbA2DSX1v6/Ze1/rCte67G0HZ1XpaSns1W1My417jgyst+/z3Q+jFoFcJcEwDftqP6DR8hWeh0+9y9JA8kTV1HIs65J/gkql99MTbve88ALS/ElAL2F+ZCObMVC78BotoST4cdYspXEn38cTQ5TANmrhcSgsAhf6srJPb7cFc7BhR57wqQDJuIUJpIGl7P1XLbkkXZsLkmDCtl6PqkHlZLEB5N2wNWznPQla35HatpzDVmyO5PD3p3s5UL70Z0/n3aX2+7N/20bEl0TW8rPtQuiAlL1yiFlmzPn1pWdikgWZUPFgst46i3ATLKzNvxyQdcXXRX/rLrw07VW5SZ/uXkS9saLH0SLTbo9bxZ2evqNM51+KjVrcYvA3yho8jMtOz74o+36mB9WpqTf3M2v/G4Zx8cRBtb9u/b/mqte68XT3Y/fFZ+1mbX/CU7YvHBxIIwxiAQggLvQjj1O2tHTSf/McGraeR/xDcIkIRiu4a9wsgrSzbiPtBM/clnyT6CbvI+adgkzUoaiEsAllJ0azi3NiTMizXV//Lu9QkmmQ0LvwQC2BJ5PdPhRw8dB5LAI61HUnBQMEv43NfcgjKRfv/h1WDmylV5uz0IHyWJMxJ2baVtITgjD7AhjjZWwpZo4bQ3pppxl6zVs0bOliqR+ZaTq2YQKBadSpNWzZSdrJzub91QTR8Ydwr6fdG6/N25JINvZRLYee26xlevIYRbOiZXn8xO/H0JMev6xkKizX7Q9NPdmFX7/2rOVZ59NZuKUwp02FeeXKraUk25aCXE+wnrluecUieUkT0LbANFzdgIwwUnbrfm8NG2zq4Kkt6it60vablgQdxAJwL9mN/PSIzuro1+cfXDsp8UmLW5nvEwby5Or2PL8uLC8dQ+mZCzu7ld6k5RzhCMyf6mStf8tLmz/Ftb+P2ft3xkJQHmo0hCJKgVwN1KeglZuIkvOVmr4bBw17VxIfEMfck5PYE/USNKQDNJNfpx8Z213+avLk/NIFn2SbEVIAIKbHDJCzaQZLiTg/jjWtWb4pf1/3sCRaY8fXd6Y4zz5DKjGLbrg9jiVg7UFIdlW9ZftwpSlIb7el635U3OyT2gLv3aGEB4Lf6uj5t6sF7wepeZk968TcgjrNlJ1rSWJH9oIwHnOTgBGOGm72483BptdGaj1pW12Log7KHyTgF4AvxFm9j21vTrm5afzen+wpSquGiG5Ol+XJxez5f4xofnvvnLNj0vi1HVTz38Iwm9+EVH7526LPRj1aE4/1CqAO1KkWiho5edkyfmWGj4bSpbsW8laMPD8RYoXkpSQImUTqXu9R5px6SQLb51boqSBFpL4ConH/thJQRxNS+Mgn8G1CAR4JVU3AwljyRKVIhgAzuW0BOCMyGwNR2FOGc9sXUmbI7yDc2km/2RjoPAtQj5b2mO3OTcDa8k2fex7T+b2eWOrPvYMItKyvq1Iyj6REXTb/NhD79wUfeyBKFWD8FUZxqJqbv+HW6H9Cyflwn6e5oTNo0cRgLtTpJooaOW35DBuJuPWrlS/fiZZTwn3ACaQ+4xl5Cx1JA09SrLwteQ3ezOpeua6xbvSDNtGluNLCV/MAgAAAFwSp520JvnUBhOFOWXb+caA/Fboxyv0/hG+lfD2BGDdKaP/+tfPdH7x2fxex9GEnCff6M+vODEw463CTlPnxx4aOSv62JJoVcMA8vKJQlj7P9NK7V+4rccZCcAw7O0AHoLzsZJmzG5SD9pDluxnybCpH1lyp5M1vzc1j+clhvFb7efOd6Qh2SSL2kR+s7aSLOYYySLNbvUuNSMySJ4wktxjooVLVU/yeAyTAgAAAK3CU7+1Lm+F1/x1PAFvZTpl9P/27cKOz31Y3GHv2SYdZglzkXyjv3XFiYHfvFXYaesd8fsnLU3cu4Q93Ykub6BoMWmN9i/s7866+FViLwfwMMLteqruJWz5lPiGL8ian0CNX/ckS94Ysp7qSs09Az2lbVefO64qO5wmTnWAFKk7Sd0nh6QhhW4966HEz8Divx07IwAAAMCl8dQEIC6YXcd2yui/8+3Cjk9+UNRhe5FJZ0ZIWke+0d+w4sSgjzZXJmxekZw5Y1BQ4V3s6RQctwAAWpFEZydl57xzC1+3lqxFYWTNjaem9N5kK+tP1tPCcTqemmcFbU3CDKYV7P1WkLJDAVs/SrKoo+QzLI+EGUIVyZXEKfHlHgAAAAAupC9PjiHQmbc4RLVCrITbLjVetn9kfVeR+MKio8O/yjf6N6K5tD4rL6HNlQkVv+hjXxoYVPjlA0m7FwwJPjOP/cmbZgxujVlzhWOlr5O2jclzAMRCmGlQ6VdGyvZlpJ2YSfbal8heHsD+Ekr1H8aTgxd6byeT9VQM2YpD2HogW7TUPKnI5fbqFoYm+PWzuYmaB1BvIE5qIlVfPVuvZMtZthSR1K+AvR+h93Qdceo6ksfiMx0AAADAyzgtAfhpaVqlg2qIo5YfrautVp8oDLLj4nHAhEGmY71kvzj1bUXSP57I7bNuT22E3u6QoKW4GTMvdWyuTCjcro95qH9Q0X/e7/ztoghl4w3kvCSV22DtP7UV2r8wUUe8k7Zdjz0aQKSk/na2VLG1Kgp+XBg397tzz9v1CuLrhMSfMLmT8twxxl4rp8YvI+jPiUCetOPKSBr0v8OQCI8t59ct5x+b2H+3kTzegOADAAAAwO85+1Y64Rvo4Jbe6KTwnH4SziGxOziX3apyR/wBoddhjMj3h7Kvy5PfeCqvz5v7asOLrQ6JA03EvZl4Gf9jZXx2zx03L1oQd/CdBbGHHghTGsaSiG+TZ+2/F2v/nN2FMwGz9h/PfkU4Y9tHGkLKsScDeBlpkIUtQu/f33oAy9mi6noAwQEAAAAAZ3B2165SJ223213xWS6dOTNY3jSCxDv7amNhk++r92cPGnx91sRHMmoii5D88yxFJp31oZP993bZPmfWo7n9JlZZfH6h5okrxKi3K9u/Wmrj+gUUX+ek46X9y7LUSuzBAAAAAAAA4EzOTgDmO2m7sqHBZ6a6KkjBiibNjdHHpomw/i3FJt1n92cPHtB1x5zFz+X3OmHlpRgA3IOVmrWmNSev/aH9L/PGfljU4Sb21BFy+d2yTidn7d9l7VEns2gGBhVOdNLmhVv2irHnAgAAAAAAgDM5NQG4pzb8pLO2PTYsf1F3/zKX3Oa4LGn3EI3U2l1E9W4vM2u23pc9eFSHX+bOei6/5wG9RW1DcxCPCrNP462HR308JGNm/x8r4++l5oHgRcOV7X9J4p7B7FcnJ21emFU7H3ssAAAAAAAAOJPzbmlVdaIY/9SAgUFnndJTjyMKjFAaGtaWtNvlzACNCjmle7H9lndlnCNKJHV+5KuylMW3Hh615ouytFwTL7OjGYiTMHlLQZOfeV1p2z0/V8WtjVY3NiX61HYhEYwPyNp/AGv/etb+d7ug/X/A2r9Txv+rsqiLbz449glMtAMAAAAAAABk3s+WQ07ZtLOvOvc5c+PjwvJW35Owr62zti+X2CUPpmQsUUrsXUWwGxVvLE9e2GPH7L7XZ01cf7A+rAktyztYeKljmz62bPTuqWsGZ8zsYOJl79BvM0d6Ko61/zUuav/O6v1HDuKyhBmdsZcCAAAAAACAMzk1AfhEXp9C9qvQiS+hfbLNL+t7BZSEtPSGZRxPP/VaN+bawKIH6VyHI49V+3V58qPdd8xuP2nv5Nf21YU3oreRd7I5JEIi8Kzu+3vnrz7Zvzt7/LWHFymAtf+Pndj+xzu5/Tt26KPTsWcCAAAAAACAszk1E8Q7ON7u4DY78zXUUluHrb3Xftc3oDi8BS/+ua191g4fEHR2LXso99C6NddaVa/ee2xox/F7r1+TVRdex3t0HhNaipAIfDy37xH5t/eNX5Nz7WALL91DHjpjMGv/nVn7/5i1/2AntP+PnNz+zduqY3dgjwQAAAAAAABnc2oCUEg0PJvf61sXJAG6b+697psHUzKukbOL96vZllZmkW3p88m8awOLNrCHGg+sU0uNVfXVPceGdgnYtPjOF093P4vdHC7k0Zx+27TfL+nzU1X8LCsvOU4emAhk7X8Ya/8/DAg827YF2//Xzm7/Jl5WmF4ddQh7IQAAAAAAADibUycBIVU3YSKC0jkxR+8QnnFmQRQSPnJI8JkpvQJKmwpNvtmlZq3lcm51VUlskhEhp+MPDnjvpQSfupXCJj2sLq1Ndtmu+7MHz520b/Izu2sjq7B7w6XgiXN8WNTh6I7qmHej1I36aFVDexnn0JEH3foutP9bYo5MY+2/gbX/ky3Q/mXOfs9VFvXbS48P2Yw9EAAAAAAAAM5x4iQgzrvA97uZLbeSSmqTVI3417saqfVmF4VLGFD/6KbKhJefyuuz8WhDsF5vUVv/6h+qpTbOT2ZW35O4L6lvQNEt/QOLZrOnAz1s97AZ7PLszZUJjz+T12vD7tpIK1oMXI0hwWfClidl3t0/qOg2lcQW7GFvX2j/h1j7f4m1/+/ctf2zN2lZeGRk/3+f6bwHexwAAAAAAACcU/cmWz5wyqadngAUrE5JH/po2g6hp4urZ5+orDD77PqqPGUvWxdub9Sff14Y1ys+RVNzzaCgwl5sXZjlV+lhu4Wj0abI31wV/6/n8nu9k1kTaUBLgZY0PTI77cX2W5aFKw1T2EN/DyyC27Z/o12+V/P9kp7YywAAAAAAAOC/PD0B6Cczq2pHvbiTrXZDbV41oYdT6cby5Defzuv9SkZNVCVCAs4SKDdJbos70PPO+APLo1QNw8gzx8V0uza8tqTtrTfsH/82QgEAAAAAAAD/5cQEoNPHABTwJLH18C81J2tqJxBhKtqroD9l9H9nzclrF67O6f/FKWMAev2BUzXxMsfO6piiD4vaf15jVWelaGpi/OTmCKceO0TO7uDKZh4Yf1ulxQe36wMAAAAAAMBvnDgGoEtuybXyEnoyt68wq+5h1OYVacw1BKy7++jwkV23z1n8UkG3nEabwoGwgKsIyaqn8np/33PnzaO/q0ic32SXZbGn7YjM5Vtf2uafxxuCkbwHAAAAAAAAl3FJD0BBmVlj7u5X1pSiqUEvwEtnarAptiw7PmTxomPDnt9eHVNs5mVI/EGrMdgV1o+L2x/eWRPzRajSWBajbkiScXwA2vQlOzN136T5eqvajFAAAAAAAADAHzixB6DLEoB2h4TyDAGnx4Xl99PKrHGo1YuyNdoUezeUpd5/x5GRT7LfJ0y8jEdYwF2cafIzflzcLnO7PnZDqNJoiVfXJ0k5hw6Rubi1xe2WvVHYOQORAAAAAAAAgD8RQwJQUGzSmVVS2+khwYXTqHkmTvgjh8Euz95QlvbYbUdGLf/X6W5ZLGYWhAXcVWGTb/3Hxe221FmVPyRraiRBClOK0PoRmb+0Y0rWxPv0VjVunQYAAAAAAIA/E0sCUHDCEFRyY9Rxf53M0gc1+wdnt+tj/m/G/vFLXiro9nOJSWtCSMBT7KmNrPysLO2HMpP2p3if+qAgRZPQyxdJ/t/UP5bbd9bnpWmFuFsaAAAAAAAA/pKYEoAGu5zfXh17YGxofi+dzIJbgYn0RxpC3lyT0/+uh3Ou/SrfGNCAkIAnEiamSa+JKvm8LO3LUpN2d4JPXVSQwiS0cW/PePFri9stX3Rs2AYHkn8AAAAAAABwIWJKAApKTFqjVmY9MDiocBR76O+t1XqkIWTtQzn971yePeiDHdUxVUY7OkyB52u0KewZNVH5X5SlfZ6sqT2Spq1OYE9Hems88o3+7849fN2j1Ra1DXsHAAAAAAAAXJDYEoCCzJqoCq3Mkts7oGQ0e6j2ouq088Rtvv3wyAUPnBj06s7qmGKjXY6ZfUF0GmwK6/qSNsc2lid/EaY0lrTRVgvjAwZ6Uwzyjf5bR+2edlu+IaAeewQAAAAAAABclBgTgMKswNv0cae0MktF74CS4eQd44Xt/k9xu7umZk16+seqhPwmuxwz+4KoCbe8lpq1xs9K2+z5qjzl8xCl0dBWq2/P/uTjBcXPeuhk/1mbKhNLsCcAAAAAAADA3xJjAlBgd0gc2/RxR7QyS23vgJJBJN4kYO5Hxe1XTMmatPztwk6H9Va1FXs1eJPzicCGL0rTfqm2qr9M1dbIA+SmNuxPCpEWOWvliQHT/3m6+ymM+wcAAAAAAACXRKwJQIHdIeG36uP2+8osVb0DSgawp5Qiqrry4w3BT/ZLn3XnO2c77tRb1GbszeDNeOIcu2sj9R8WddhUYtZtaqvVB/rLzclOPRa53rnk37P5vfKFns4AAAAAAAAAl0TMCUCBkATcUhW/31duOd47oGQwe0rr4VVWf6Ix6NX7swfPvff4kO/LzFoDegEB/MbEy/jdtZEl75695ivWPnZ20FXF+8nNMeThMwbnG/2/7r9r1g0by1MKkfwDAAAAAACAyyL2BKBA6Bn0U1V8jr/cvLVXQGlP9lS4B1aVLdcQ8PF92UPm3n1s+H/21kbUWXgpJvgAuNCxjZfZd9dGnt5UmbguVGk81F5X1Y49HeqBRbHkG/1fGpE5fXGOIbAKCX8AAAAAAAC4/ItkL0gACnh20fxjVULphrLUzyeH5wRpZNaO7GlP6EYjTObx84MnBtw06+C4V7PqwsttDgkSfwCXqNLiY/u8LO3456VpH4YojSXtdHqh7ft6yNsv/bCo/e1zD43552mjfxNqEwAAAOD/27u70CrLAA7gZ266tTPnNpebpI50zSWJFDI/0giCICJIC6qLhIoKLy0QMilv1kUUQUQ3FaVelDW0zK5lsYHix1DzO1k63RdubnMf7ZztrOewQVIgZDvuePz94IH3PRcv5zzv+7/5c97nAeCW3C0FYFLynzPtw9HBT5prfi7LHTjzSFFHTVYkUpSmt2YsMZZ1dMeVpW+uO7x+276OypZRxR/cWphC9jtj0VhdW/WhurbF28tyB2NLZnY9HEnfdUFHLw7N2rPp1BMvbTu3tuFaPM+u3gAAANy6u6kAvLEM2NdZefLH9qrt68vPTYvmxJdlpc+OoWOxRPYfOy8/9PbzR5596+uWpad74nmKP5gknbHo0Pdt1fs7h6M7lxe1F4T8L8lKn13CEyH/p0P+33jt2FO1+7squt0xAAAA/rcUFoCpW6hq1oYwXp+0y22saHrg/arGzXNyB14MXzoamZrNAhJDozmXdrU++OkHv6/66vxAcZ+nE1Iv5H9ZyP+7If9Ph+DnT9HXGA35Pxvy/3HI/7ch/173BQAAYPL0fhHGjpRc+o4pAG8oAqreq2p8tTAn9nJ+djy5WUDObbgFQ/0jM07+0Lb4yw8vrPjuTP/sXk8l3H4h/0tC/jeG/L8Q8l8SSeW/mP82GPJ/LOT/85D/3SH/g+4EAAAAk04B+G/Li9oLVxVdefKdygPPFU4ffjyaHS+OTO5aYQN9IzM6rsbyf/noQs2u+u75B05dLx31NMLUC/kv3rzo4DNrS1rWlecOrImMbxgyWUsEJF/n7w/5bw353xPyvzvk/6j8AwAAkFIKwJtbWdw6e0VRa82mhYdXhtNHS2cMVkez48nXBO+JjJeCN/udyYX7/wxjqG8kt/taPO/kr13zGuq7FzQc6pnbdLzv3pgnENLT9GmJyIZ5v80pyI6tCvlfHT5aHfK/8B/5v5nRifwPtgwVXk1Eso6E/B+cyP+JkH+lHwAAALeHAvC/WVNyeeb9+T0LwuF98/L6y16Zf3zuRBFQEMbsMFrDiB/vm9PzU0dlZzhuT3526npp85He8hFPHNy5Qv6LQ/7nT+S/POS/LDK+gUjBxOgIYyzkv2si/8nz5Nqel2KJbJv5AAAAGac6erV0y6KGLeGw1Gykr7qzDXV7zx/cm4prZ2QBCAAAAMC4x0ouVtTXfFMfDivMRvraeujC1tqm5tpUXHua6QUAAACAzKUABAAAAIAMpgAEAAAAgAymAAQAAACADKYABAAAAIAMpgAEAAAAgAymAAQAAACADKYABAAAAIAMpgAEAAAAgAymAAQAAACADKYABAAAAIAMpgAEAAAAgAymAAQAAACADJaTsisPn4hE+naYYQAAAIApdCne01vb1PxZOCwyG+mrsaOn0SwAAAAAAAAAAAAAAAAAAAAAAAAAAAAAAAAAAAAAAAAAAAAAAAAAAAAAAAAAAAAAAAAAAAAAAAAAAAAAAAAAAAAAAAAAAAAAAAAAAAAAAAAAAAAAAAAAAAAAAAAAAAAAAAAAAAAAAAAAAAAAAAAAJP0FTxn4vQgRgHsAAAAASUVORK5CYII=;" vertex="1" parent="H5XLg-262uGlo7exfHj2-715">
          <mxGeometry x="499" y="205.88" width="65.47" height="20" as="geometry" />
        </mxCell>
        <mxCell id="tUD9NKAxfMahRDJT9SFy-34" value="" style="shape=image;verticalLabelPosition=bottom;labelBackgroundColor=default;verticalAlign=top;aspect=fixed;imageAspect=0;image=data:image/png,iVBORw0KGgoAAAANSUhEUgAABQAAAAGHCAYAAADvHv+EAAAgAElEQVR42uzdB3gUVdcH8DPbN713klASIIEEEnqRIqAiggIKimJXLNhfOyqCioLSlCIKKlUFpCgKgjTpEEJLIJX0Xnc323e+O5D3e20gJdv/v+e5ZHYSZmfOvXczc3JnLhEAAAAAAAAAAAAAAAAAAAAAAAAAAAAAAAAAAAAAAAAAAAAAAAAAAAAAAAAAAAAAAAAAAAAAAAAAAAAAAAAAAAAAAAAAAAAAAAAAAAAAAAAAAAAAAAAAAAAAAAAAAAAAAAAAAAAAAAAAAAAAAAAAAAAAAAAAAAAAAAAAAAAAAAAAAAAAAAAAAAAAAAAAAAAAAAAAAAAAAAAAAAAAAAAAAAAAAAAAAAAAAAAAAAAAAAAAAAAAAAAAAAAAAAAAAAAAAAAAAAAAAAAAAAAAAAAAAAAAAAAAAAAAAAAAgDPhrLZlRVdWutnloKSchRNxFhFbvFCilY2S+6NOh7FlyR9+TPvZ+ZTKWqPCwpYvFL1FYkGTAHDeDzOZyCQW+vyYsCy/BO/qtmw5ihV/VkKFT6U//HglKw2slLJS8HFej6Ims8Ro5kVmEy/iEU0AAAAAAACwOd1RVo5b7ZrZOnwnsvKoTeIjF5nFAVKt/Pk2R1uxl31HhOZ07uhV04Ett2ElghWvy/z3GlYKWSmal596Sm+RnNhTG3Vwd010ld4i1hssYiQDABwU6/siX6ne46U2h5O8JfrBk2LSe7PVnViJvspNaVk5faguIn1Pbat9u2qid+ytjfrvZwACDQAAAAAAANbXsISVb6yyaadNACrFJsmtIbn+fQOKhwwIKBrR1beiL1sd04JvcfL32qjfWNk6K6/HPo1JqtZZJEgGAtgZ6/ucp9jo9Ubc/hv6BxTflepbPpStDm/htxH6+uE9Na027a2N+uHjvB65dUaFAdEHAAAAAAAAq0EC8H9C5Rqv19sd6N3bv/SB7n5lw9kqPxtUQeHumuh1++oiv5mT1y2zyuChR6sEsC1PsVE8LDg/9pV2h+7v6Vd6L1vV2kZvrVebpTvn5Xdb9ml+6pY6o1yDPwYAAAAAAABAi0MCkChSofJ/pe2hMZNi0idJReYUq+77pRkbjPKtnxWkLJ6fn7qzXO+pQesEsC4viUE8LOh8m/+0PfRUL//S+8k2Sf9/IjwjNH1NacfFz5+5cQ3r/42oHQAAAAAAAGgx7pwAjFE2+rzY9vC4R1qdeEYpNiWSfRJ/f2WqNSr3LC5InrngfMquYp23Dq0UoGV5Swzc0ODzUS+1OfxEb/+Sx9mqAAfZNQvr/0dY/3+f9f+trP9jRDAAAAAAAABcP3dMAPpIDJL3OuwZ8EDUqaleEkMvtsoRn8SvrzJ4bPyiMOnj6dl90prMUhNaK8D1a+NRHzQnccf9t4XmPM1exjrobgr9f8396bdO213TKo/1f9wWDAAAAAAAANfOiglA6yXVFMmspF7Tf2UX/UFLkn55Z3R41iyZyNyOrRI5aNVIPMXGxP4BxeP6BpS0qjJ45BXrfGpNvAiJAIBrEOdZ5zu1/e93Luj868IknyrhOX/+Dry7Qv/vMiEy49ZwhaZqe3VslpEXm1GLAAAAAAAAcE30aaycsMqmHS4BeFtoTuflXX5c2tazfjx7KXeSKpLHejR0mxCZcXv/gGK/SoNHbpHWp9HEi9B4Aa5Ae69axdT432+a12n7vAGBRc8oROYIcozb/a9EQFffiuE3BBb5ZGsCDhdqffBIAAAAAAAAALh67pAA9JXoxezi/+Y34/Z/4yfV22uSj+vlE+PReMOEyIwRAwKLuFOqkLxSnVcTWjDAP/OSGKR3hGX1Xpe64WPWZ15Xik1x5Lgjfi9HGqNs7H1rSF77g/UR+wu1PpggBAAAAAAAAK6OqycAheTf0uQtd98blbFIITZHuUCVBcYoG2++LTR3SJhcoz2v9curNSoNaMkAF3mKjaIx4VmdFnfeOvWZ1sfe8xCburLVUic/LM5LYuw4IiS358H6yAOFWp9q1DQAAAAAAABcMVdOAPpI9OJlXbbcPTo8ax57GehC1cZ5SwzhfQJKbh0bfm5AuEJTfr7Jt7DGqMQzwsBtKcQmjvWHmC+Sf351cuu0TyIU6huE1a50jJ4SY6sRobm9D9RF7ilCEhAAAAAAAACulKsmAIXk31dC8i8saz459sP+ryvG3hJDTB//kjFjw7OSwxWa4m1VrYvQqsHddPauCn6v/d6npnfYO4/1g9vYKi9XPVZPsTH8ttDcvvvrorYVaX3qUfsAAAAAAADwr1wxAegtMXDfdPnpljvCsj8n103+/ZGUHXPHPv4lY28LzY2v0HuePacJrEHrBlfX2btKOa3D7/fO6Ljrsz4BJRPItUb6XpKQBBwZmp28rzbqxyKdjxYtAQAAAAAAAC7LiglA60204TuRlUcv+e2x4eeSvk/dsJEtxrpjnVp4rjy9MeSradl9Fmwoj8eIQHA5nbyrxJNbp908Juzcq4EybU9y/mf8XZNao+Kr1jueeKzRJDOiVQAAAAAAAMAlNSxh5RurbNouIwBvC80J+qbLTyvkInNnd61TjiOvcIWm753h524fFZYt+a0mJrPWqNShtYMrmBCZ0fvblE0L+wcU/8dDbGpr1c8aB6cUmzrHKBtrNlXEHbE45eTmAAAAAAAAYBOudAuwl8QgXZy09YN2nvWjidz+apgTceQfrtAMmRCZMTJSoVJlaQKy64wKE1o9OKN7o860X5u64cNHok/M8BCbOpGbjvr7C1Fnn6p+Oot0x++1USUIBwAAAAAAAPwjV0oAfthx1813hp/7EImBPycIPMSmkJ7+ZbdOjDozNEKhLj2rDjxfb1JYEBpwBvdFnQ5bm7phykOtTn0aJNP25YjkiMqfyHv6laXsqon5uljnjZnAAQAAAAAA4O9cJQE4MjQn4MOOu1dJOEsEavWf60MpNrXq6V825qHok92IuHyMGAJH1sGr1vejjjuffid+37IgmfZmjiMPROWfyUTm8FZKVdWKksTDiAYAAAAAAAD8jRUTgCJbHYNSbOJebXfwCYXIlIga/VcKH4lh5PT2e3ecHLD0qzvDz7ZFSMCRxHnWSZcmb5mQ1n/Z/gdbnfpIxPGRhFv6/w03LDh/Sm//El+EAgAAAAAAAGzJZiMAR4Tmxr7U9rAwlYkCYb8yIo6XhcqbkseEZz04NuKcf5XB42SGOkiDyIC9tPaoF81O+O3GhZ23rejmV/6UVGQJJST+roZnK6VKtaIkcS9CAQAAAAAAAH/i7CMA5SKz6NV2B59li36ozavGiTjep7N31cvfpW5IPzVg6Ysh8iZPhAVsibVB7oFWp1J29l6zkX39RSYy9yQ3ntn3egwJOv98v4BifBYCAAAAAACA7a7rbfEmt4TkBff0K33YzscqTKghPHzf1PyVd7bK4ojCO3lXzaoYOv/kgs7b7g6VaxQYegXWJBOZhcRfm+xBny9dlrxlX4yyYQQ5Z+LPYfq/iOMDp8TtfwStCwAAAAAAAGxFYu03kIos3Bvt9j/GFr1tfcFv5jm12iw7Vqj1OfhNUaezbF0FKypWhNsWQ5+MTUsJk2sGKsWmaHKuWUvbPBFzfBUrhxcWdH17albf3yr1ngYe7RlaiDDi7/6o02GvtTvwdJxn3WQ79F9r9X/hFvrQRO/qyDvCszrLOPMAO/R/blBQwaMDAovm7a5pZUBrAwAAAAAAAKtfiFpty74TWXmUAmVaRfWweafZGltNZGFRmWQ5K0sSFu+uif5+TWnHosv9cKJ3tfjGoIJuL7Y5/FArpWocR7yzPaBfGM3088T0EVPXl8Wna8xSE5o1XCsh8dfGo95vStz++ydGnX6JrYp0tv7A+n8u6/+fsf6/lvX/0ivo/z1Y/3+A9f/xrP/72Gg/TW+d6z9iWnafrWh1AAAAAAAAcEHDEla+scqmrZ4AfL/D7kGvtTv4m02u/Hmu+qw6cPYdR0d/mq3xb7za//9Qq5MJH3XcNSNQpr2ZvZQ6WTMxpDWErpyZ2/PDHyvbZqtNMgt6DlwpEfHU1rPec0rc/lH3RZ1+na1yutm6m/v/LNb/F15j/+/M+v97rP/fQjYYHV1vlC/z3/rcQ2h9AAAAAAAAcIEVE4BWnQVYpEzhZiXsfC1Mrkm1coh4dvF/6uO8HneNPjr621qjUn8tGzneGFq1tar1d0qxSdXFp7I/OVcSUByu0HQdG37u/mHB533UJvm5Qq2vSm/BPA1weSHyJvnCztuGLkn+ZUGyT+WLwionOwS+xqA8+VlByjjW/7+/jv5f2dz/Naz/97N2/xdxFHGgLnJRfpMfbgMGAAAAAAAAq84CbNURgCEhE6QVQ+fnk3VvI+QLtT57X8wYfM/asvYlLbXRpclbJjzY6tRituisM+4W7Klt9dmD6cO/ymvyq0Ivgr8KkGqlY8Kzkp5tffTNRO/qW8n5Rr3+f/8fdmjcuHPqgHIn6/+GZ84MGT4/P3UHWiMAADglXVoH0mzp5zoHJG6gwNe+R8UCAIDdWHEEoFVvc3sqJi2JrPwMMQvPZbx57oYWTf4JHjl5yyq2be7h6JNfkHNNEPJfMTcEFH14ZsCX939T0umjWbk9NmZr/BvQmyBQpuXGhGW1n9z62POdvKsmkPMmuUlrlpwZenDcuCxNyyX//tD/paz/L7Ji/5eNDsvqjwQgAAA4LVPxDaTZuthljoeTZiEBCAAArkpkzY2HKTSDrbl9C3ENH+b2fGB5cWJJi2+b5/jJZ4aurjR4zHXm0xiF2JT4WHT6suM3LPvx86RfRnXwqvFAs3dfD7U6GbOz9+r3Fif9sqeTd5UwO7fTJv9Y/6+bk99tYksn//7Q/5dbu/8nelcPQKsEAAAAAAAAa7NqAvDR6BO9rbn9/Cbfma+fHXDUWtvXmiXm2w6P/YAtpjl7PXuKjf1Yfaw51O+bNfdFnenvJ9XL0PzdRxefytBVKZueX9h5247O3lWvslXBzn5Mzf3/uJX7/wy2eMJa7+Er0SfeEpLnhRYKAAAAAAAA1iSy8vaTrbVhC88VDzs4bp61A3S8IbR+U0XcTOEtXaC+FT4Sw23fdPnxpx29Vi+cGHW6i69EL0I3cF0pvuXeq1M23be/7/Ktd0dkzpKJzG3Jms/+tBHW/3NY///UBv2/jvX/Gdbq/6w+PGKUje3QUgEAAAAAAMCarJb8uTfyjBdHfIy1tv9Ncaf5eU1+KmsHyMiL6L3s3j+xxXQXqnfvFN+Kh77u8tPWXX1WfzQx6nRbb4mBQ3dwHUEyrfzJ2LThe/qs2jQ+InOpUmxKJusn/G2G9f/FNuz/W9jiKSu9hTAStzVaLAAAAAAAAFiT1SYBiVE2tiUKt1bCwbSjJmaNrYJ0vDFUvbE87odRYdkpLlb/IV18Kl74ustPo0eU5X7+fnavr9MbQ8vQLZxXoEwrGR+R2eOp2LQXOnrV3MJWueIzHw2s/6+0Yf9Xsf6/lvV/a4xolrb1qItFywUA+AfG3GAyV7vSH0k0JEs8SyIvMyoXAAAAbM2aswBHWXHbx1aXJBTb7PzTIuL31rbaMioseyq50CiqZsLIv9Z3hp99b0jQ+Xs2lsfNn3c+dc3xhlAVuofz8JfquHsiMxImxx57tr1X7Z1slZ8LH24a6/8VrtL/Wb1F/idzEBoxAMBfNa4aTppt813oiNIpdOEIkndqROUCAACArVkzAehPVnrW2Fl14FHexs/k+7a0Q+GshN+E2YZbuWhbEPlLdZ0faHVqwaiw7Ic2lsfNnHc+9afjDaF6dBPH1tu/JHpK3P6nbgnJu5e9jHD142X9f7+d+r8wOjbSCpsPQysGAPhHwmMSvF3oeDxRpQAAAGAv1hzNFmqtDa8vj8+08DZ/ZJ2WlQI3aBMSf6mu1wOtTq3Y0WvNxodbnRwo5SyYKMQB9fYvCVibuuHFrT2/23lLSN5L5AbJv+b+n2uH/q9jpchK2xajNQMAAAAAAIA1WXMEoMKK2y62Q6xMrLjTbbFKf6nupi+Sf+77RtyBDe/l9P5oaWHnUzxhrhB76+1fonixzZFxw4LzX/SWGBLI/RJI9kjEG1mps9K2Q9CqAQAAAAAAwJqcdWSXDlVnM16tPerv/SLp5z3nb1w096FWJyMREvuQi8zi51ofHb6t53c7x4Sf+9xbYuhM7jl6zORix6NA6wYAAAAAAABrctYEYJQd3lMY+ubOt+r5RSsbJ3+R/POxFV1/fD3ZpzIA3cc2xBxPz7U52q3wxgVrZyfuWOclMfSii89FcldBdur/UittuxqtHAAAAAAAAKzJmrcAV1lx2/Z4aL6c3OQZa5fBcUShEyLPTLsjLOuBH8rjPv4wp9eyU6pgA7qSdTzb+mjsW/H73gqQ6saxlx6IyAX2+AOAMErPWqNfm1ClAAAAAAAAYE3WHAFoteflvdTmcIqYs+0sAH38S4RZ6FqjyVxsNx5iY9yEyIzPjvT/+tDKrptvS/CuxkQGLai7X1nQxu7r3p+TuONEgFT3ICH55wj9v42VNt+AWgUAAAAAAABrsmYCsJQV3hoblonMN/QLKJLaMlA3BhX0Zl880WT+RCwXmbvcE5mxfkevNb8+Fp3eFyG5Pqm+5bJN3de9sL/vihMjQ3NeZat8EJW/9f/BRLadjYb1/350cRSwNVShVgEAAAAAAMCarJYAtBCXY8X9DmIX5ENsFSRPsVHSza98LJrLJUnC5JpBi5O2/lYy5LM1j0Wnt5dwFkwXfBVSfCuExN/4I/2/zrgtNOdjFj/hdnPE8BL9/+34fTbr/yHyJuljMeljrLR5flp2nzxUKQAAAAAAAFiT1RKAH+T0KuGJs9qzrd5od2CSVGSbJNPI0Jy2Kb7lw9Fc/pUsQqEetzhpa1re4EWzH49JjxLZ+FZNZ6MUmyQvtjl80/Zea/bcFpqzigWrLaJyJf1//9O26v83BhYIdWKt/m8g4gpRowAAAAAAAGBN1p4F+LTVdpzjR0yJ29fb2gHyl+okL7c79Dxb9EJzuWIerZSqZxd13np8ZdfNryd4VweJkQj8E2+JQfxim8NdC25cuHZWws7NrJ31JIz4c9T+/xJbVFpj+zxxer1FjBGAAAAAAAAAYN3raGtuXGOSHrTi5rnX2x2cd2NQgdWeyydkYz7osHtAF5+KB9FUrknQ+IjM6WcGfLlvRdfNjyR6V/uIOd6tAyIVWUQvtT0cnzXo809nJezcHyxrGiWsRlO5pv7/Cev/Hlbu/wNZ/7/PWu9RbVBWLCvqnI/qBAAAAAAAAGuyagLwk7zue625fTFnSXkrft90L4mhxRMowsX/Q9EnIx+PSV/AFmVoKtclfnxE5uenB3y5Y0XXzaNaezS43Yy2MpGZ6+lfGrk29YepMzvu3B8m10xiqxVoGtfV/3uw/v8u6/8SK/X/GNb/F1m5/x9BTQIAAAAAAIC1WTUBWGdUCAlAoxXfgrshoGjy5u7rnvaR6Fs0CfBw9ImQL5J+XsUW49FMWky38RGZ67f2/Hb9U7FpAwNlWpdPrEpFFurlXxq0NnXD5IN9l+8dGZrzJlsdiKbQYv3/Wdb/H7dS//+GrPtMRsvmina7UY0AAAAAAABgbVZNAH56PqWafdlv5WMQDwws/GBD9/Wv+Un1LTKy7JHoEzFLkn5ZyxZvQBNp+TYX51l306edft2yr8+Kr5+OTUsKljWJXe0gpdyFxJ//utQfJhzou/zX20Jz5rLVrVH9LU7C+v8s1v9fZv1f2UL9v50t+r+F57Q7a6KRAAQAAAAAAACrs2oC0Mxzlg3l8ZtscBzyQYGFb//aa83SeyPPxPlJ9dc0mUKQTCtd2XXzyM+Ttm5nL/ujeViVsr1X7fj5nX7du6fPqkVPxx5LCpE3Of2z8MSchXr7l/j/0H39vQf6Lv/lttAcYRRZF1S3VSlY/5/K+v8X19n/Zc39f6st+n+jSXZqRXHiOVQfAAAAAAAAWJtVE4A8cfRbTfS3bFFrg2MRd/MtH7e864+/rknZ+GKqb3krP6n+io4vWNakmBRzvOfO3quW3hOZ8R1HfDs0DZvx6eBV88j8Ttv37Oq9avnk2GODkn0qPZ2vI/Fcb/+SVpu6r3tif98Vv94akvs1W92DrD/TNlwkYf3/Htb/t7H+/xzr/1HX0P+/au7/bWywv/z3ZR3WotoAAAAAAADAJhfN1n6Dzwu6lL/a9uBPEQr1WBsdU8xNwfkfsfL0sYawnWkNoRuWFiVls/VVrOibf0YYIeST5F0ZMiosp1e0suG2Tt7Vfdg6bzQJu/Ht6FUzbl6n7XcYedHhDeXxKz/J6/5rnsbvfKXBw+yoO93Tr9RrYGBR0sCggrtuDs4XZvSNRVXaVSzr+x+zMpn1/62s///iiP3fwnNNO2uiN6C6AAAAAAAAwBasngDUW8TmGTm9Fs3rtH002W40lHCBH5PqW/4AK/c/Gn2ijr0uY0X3h+/7sxLKigeagUORSTlLvzvDz/ZlpSxDFbTvlCp4/YKCrofYclG1QWmy9w728i/1konM8S+3PXTTLcF5o0Qcn8RWK1F1DkPo361Z35/EyuOO2P91Fskvq0sSclFVAAAAAAAAYAsSW7zJN8Wdfp/XaftBttjHTsmAgOYCzkOot4gE7+o7WRkzLiKz+Iwq6FSNQbl9ZWnCoTyNX87RhvDqeqOct/aOhMo1ss7eVVHJPlXxI0Ozh/byL+0vE5k7sm95oZqcoh05Wv+3sM/EBagaAAAAAAAAsBWbJADVZqn+u9IOM++KOLuO8Ew0uHpCm4lO9K6OZl9vvSGwSMO+CgnB7EaT7MgXhcnHy/VepWxdWbHOu+pkY7DxWt+ou1+ZT7BMG8IWQx5sdbJjpEKVHCjTpcZ71rZi68Jt1WfAdZl40YHp2X0w+y8AAAAAAADYjE2SGWZeRG9l9d/a3a/s19YeDTch7HCdhElC2id6V7dnX0f09i+1sK+NrNTVGJQN57W+JWy5mJVquvjsN9307D7lfxwq6C02SJ5rczSquQ9EshLMSlScZ12oj0Tvy5Z9m98HoEUtKUyeVqLzMiMSAAAAAAAAYCs2G810Th2gnZ3X/f15nbYPYC8VCD20IGGEoJ9QAmVaYqXLX3/gh27rESVwBL9Mzeq7HWEAAAAAAAAAW7Lp7bjLSxIP5mr8kYkBAHdkfPLUsCkVek+M/gMAAAAAAACbsmkCsN6oMMzJT53BFlUIPQC4k1Oq4FVLCpPTEAkAAAAAAACwNZtPyLGqJCEjSxOwBKEHADeimZ7dZ7qJF1kQCgAAAAAAALA1mycAa41K8/z81AVssRThBwB3kN4Y8umG8rhcRAIAAAAAAADsQWSPN11Q0DVvXVn7BQg/ALiBkg9yes81WMQ8QgEAAAAAAAD2YJcEoIXn+GnZfb5gi2dRBQDgyo41hM3ZXNGuHJEAAAAAAAAAexHZ641PNoZUrC+Pn4UqAAAXljXi8NglWrMEo/8AAAAAAADAbuyWABSuhqdm9Vtn4bkDqAYAcEH8gvNd3y7XezYgFAAAAAAAAGBPInu++cnG4PrmUYAmVAUAuBIjL9r3Xk6fzYgEAAAAAMAV4HVi4rVy0p8IoPqFPVkZT7xBgsAAtAy7d6anTw/9OdG7eltHr5rhqA4AcBGGJQVd3i/VeWkQCgAAAACAPzJzZNFI2YKMTCU+pNnelS13Is0vXcnS2J4td2RFzkox+dy/iTgZBgwBtAC7JwAr9J7aRQVdP5qbuL0/e+mNKgEAZ6c1S7Z8mNtzJyIBAAAAAG7NouGI1yvYkpKadkWQqSCZzDVdqGl3Al1M9EWzIkagAKzPIYbTflva4cCkmOMbO3rV3IsqAQAnp37wxPAZhVofHUIBAAAAAG7DopEQr/Eg3uBNjataszXdSH8igYyFHdhyPCuhCBKA/ThEArBC72lYVND1k7mJ229mL4NQLQDgrA7Xh6/8ubJNGiIBAAAAAC7LVK4gMnuTPsOPdEcSSbiF15jdhQw5QuJPuI3XE0ECcCwO80DNNaUd05+IOb68g1fNc+wlh6oBACdU9Ule9/mNJrkRoQAAAAAAp8drOTJVCsk8PzKeDyHtrmS2nERNvycQrxOSfULBRB0ATsBhOmql3oP/KLfngk87/XqHh9gYi6oBAGc7PTpUH7Hk58o2mQgFAAAAADjf2axBRKZCf7bkT5rtrclU0onMdSmkP/HfRJ9wCy+e1wfgpBwqU7+sqHPOiNCcJaPDst7FBwsAOJnc2XndPm80yS0IBQAAAAA4NHOljMy1QWRpCibV98Lz+boQ35RAurQ2bDmKlQAECcC1ONxQ3Vm5PZYNC86/x0tsTET1AICTsKwra7/w58q2hQgFAAAAADgUQ4YX8ZZQ0p9g5XgntiaZjIUJZCoTEn0RrHggSACuz+ESgAfqIsu2VbaeNzo86zPCswQAwAnUGhUnppzrv6LRJOMRDQAAAACwC0s9R4Z8YeReBBlzWpF2n5DsSyFdehsicyRbDsE1NoD7csjOPyuvx5phwefv95IY+qCKAMDBmb4t7Tg7Ux1YiVAAAAAAgN3oTvhR9ZvfsqWuJDzHD5NrAsAfiBxxpw7URTZurWo9my1qUUUA4MhqDMq9n+anbEAkAAAAAMDOhAE+beni8/uQ/AOAPxE56o49cvLmTflNvrtRRQDgwDTflXX4OEMdpEIoAAAAAAAAwFE5bAKw3qgwzM3vNoMt4sIaABxStcFj22fnU3YgEgAAAAAAAODIRI68c0uLkn4v1Prg1joAcET1z5weMuuMKkiHUAAAAAAAAIAjc+gEoMokM3+S130mW6xBVQGAI0lvDPl2Q0XcIUQCAAAAAAAAHJ3I0XdwSWHy6RKd1wq2yKO6AMBBlH+U02u+1iwxIxQAAAAAAADg6Bw+AdhklvL3p4+Yyb6Wo7oAwAHwp1TBy9aVx2cgFAAAAAAAAOAMRM6wkzuqY0q2VrWeyxYtqDIAsLPz72f3XmCwiDEqGQAAAAAAAJyCyFl29KPcnl2u3jMAACAASURBVIu1Zkk+qgwA7MjyeWHyvO/LOhQjFAAAAAAAAOAsnCYBeLAuov6XqjYfsEU8cwsA7KLGoDw1L7/b12aeQzAAAAAAAADAaYicaWc/yOn1ld4iTke1gYszEW53d0TGtWXtPz6jCqpDKAAAAAAAAMCZOFUC8Eh9uPmH8vi36WKCBMBVCcPLTrNynBUDwuEYao2KQ/PyU9cgEgAAAAAAAOBsRM62w3enjfyJXYjvRNWBCxOzksSKkpXZTWbJj+yrFmGxq6bvSjtMz1AHGREKAAAAAAAAcDYiZ9zpqVn93iCMjALX14GVFzPVQeV7alrdXaH3/Iq9bkRYbK9I6719bn637YgEAAAAAAAAOCOnTADOy089UmtUfIfqAzcgSfUtf6R3QMmMTRXt1kw5139gic57AVtfyQqP8FifmecaXz078L2z6kBMQAQAAAAAAABOSeSsO/5OVr932BcVqhDcgZSzdHg0+sSGwYGFY286dNcbz54Z0j9b4z9LbZIVEhKB1sRnawK+XVWScBihAAAAAAAAAGfltAnAz86n5FYblEtQheBGFIOCCl473O+bH1jbV3b//f5Xbjp0V//15fFT1SZZNvs+Rqi1MDPP1U7L7jMDkQAAAAAAAABn5rQJQAvP0dCD44UL80pUI7gRzkNsHLiy6+Yf16RsuidDHVg25ugdUy8kAsviX1KbZCcIs2S3FD5LE7BoVUlCHkIBAAAAAAAAzkzkzDt/UhVcvb48/kNUI7ihqJuD8z5f3XXztETvap/9dZEVY47dMWfYobsGrStrP0ljlgq3rOoRpmtn4bmSadl95iISAAAAAAAA4OycOgHILtD5aVl9l7HFs6hKcEMeN4fkvbS/7/Kvx4SfayOsOFAXWTf22O1fDjk4fsi6svYTm8zSXWy1FqG6avwXRckfrS5JqEIoAAAAAAAAwNmJnP0ATqmC6taVtf+ALVpQneCGxD4Sw6ilyT+vfTj6ZC8/qY4TVh6si1CNPXb7d4MO3H3rs2eGjD6rDvyZrVYjXFfGyItOv5fdeykiAQAAAAAAAK7A6ROAZl5E07P7rGOLh1Cd4KY4H4m+6xdJP3+7vMtPd/hJdeL/fuNwfXjTvPzUXwYeuHvMs2eGDM9UB35LSAT+q2VFSdMLtT4aRAIAAAAAAABcgcgVDuK0Kkjzfk7vdwmTH4B7ix4RmvPF8i4/Puon1cn++I0Kvad2Xn7q3kEH7p74zJkhN2WqA79kq+sRsr/jifZNzeq7DpEAAAAAAAAAV+ESCUATL6KZuT125Tf5/oQqBTfnPyI0d/aKrj++4ifVK//6zQq9p2F+fur+gQfuefyZ00OGnVUHfsdWNyFs/8+ypKDL66U6LzNCAQAAAAAAAK5C4ioHUm9U6Obmd/twTuKOoeylB6oW3Jji1pDcN1d23Rx4T9ptrzWY5H+bBKRS72Gefz71yJrSjveNi8hMeSo27eUOXrUj2Lek7hy4DHXgxrey+u1DEwIAAACXYNGISHfAny15s+LFih8rwp0iyuZ1f2Y450Hag8FsSXiudHTzVwHPSgkrZhJ5NpD32Bq2XN1cKkjepZrEQfgDKgCAA5O40sEsL0k8Ojn22Jq2nvUPoWrBzcmGh+Q+dXLAUuXk00Ne3lQR1/BPP1Rl8DB8ej714JrShAkPRJ3qOzNh5xS2uh+5yOjgq6SZntV3aoXeEyevAAAA4ERnMFt9iXghWRdNusOtSJ8Zy5ajLhZjJJkq5HQx6Sdt/ipuvg689j/86s8ICUFdc2kicVADcYpMtnyKvG45ReKQTFL2zSaRNx7RBADgIFwqAVhrUBrnn0+dOSdxx0j2MgjVC+7ev6OVjY+sStnse3fayMc2V7RrvNQPVhuU2tn53bf/UtXm0Jtx+28fF5H5Blvd3p2CdUoVvGJdefwpNBsAAABwSKYiEelOxLClBFKt7ki8vhNb7kKmCmHEnkdzkdlob4SRgcrm4k/m6sgL+0U0huqXGEmYdE4cWEmcZB95jd5BIp/95DmkgDgFj4oEALBTgsDVDmhlSWL2U7FpX8Z51r2C6gUgkafYeOealI3cuLTbH/mxoq3qUj9o5jlhQh3VhOO3rZiW3Wfrhm7rn2nnWfc0+5avG8Sp7v3s3u8bLGILmgwAAAA4hKbd4WSp7UnqTd3IXNeFeH0iWdTCeZkn2S7Rdy2EkYX+ZK4Rbj1uT/ULJ7KvKmr4/ATJEteTssdP5DUyn0iMZCAAgA25XAKw2qA0j0sb9Vla/6/Gs5cxqGIAEnmITXd+n7pBNObo7Q9uqWyrvtwPm3mOP6MKqkzZ+8BbEyIzvnu57aFprT3qhecDuuxtwemNIXM2VsQVo6kAAACA3ZhrOWra0Z40W0eSqXwkWdSJbKWQ7HP2ZzQL15z+ZK4bSNrfb2DlPar/Yj/Jk1eQ733rSdbRvSakMxVLSXtAGL0pb/FtG3L9rLJd+5GR+ocexMl0rn215ldHnkPP4UMQbPFh7HJONIYUbyiPn3t7WNYnqGKACziFyDTm9XYHGnZUxz6ht4iN//YfVCaZZVFBl5Pbq2Pumhr/++h7IjNm0MWHQbuawg9zei3SmiUY/QcAAAC2p93nRbr00aTe8CDxup5sjYL+N/mGqxH+oOxNlsabSLt3COkOfkSKXstIkbKYvMcWukV9G3J8qW7et1Y6rxbajStN6hdM9Yu20sVJaFyXLG4meQ6dgg9DsMUHsMux8Bz/bnaf5WzxJKoY4H8nBH0DSh7a2vPb2VKRRXyl/ylH46+/L33E6g67Hu1WpPX5kq0yulJQlhQmf/RtacdKNA8AAACwKe1+fyp/bApVvX6WVGuWEa8bSBefqce5SQTExBvDSbv3daqbe5qKb11GqrXxbnDcQoJXeF6j3ApF5mLth2s+JrkLFxnJO2fgAxFsQeKqB3a8IbT6h/L4mXeEZX1FF2e6AgD2S3RAYNFTv/VaXT74wN3vG3nRFY16s/AcnVMHVMXsmPToBx13r3mpzeF5Yo7v6OzB4IlLeyer3zd4AA0AOMunFvtE5poviC6WxlUR7AJaSBhENv+Q8Mwtn7/8R+HRDzXNG6hgRf+Pm5e2bSCPfvV/eLO/fBXx7pOXALAi7QFPalg6iQznXmVdCxMXXiSMCnyA6ubeQw3LVpHvg++S95jz7DPHFU/ThM9oGaocmjWQPCULYQBbkLjywU3L7rNpZGj2fjHH90dVA/xPv4DiaTt7r64cdODuJUZedMUnVjw7CXs1c+D2pYVJfbf1+u6jaGXjfRzxzvqcEX5xQfL7pTovFVoEADgWC/uEMoovnKepf/Ilc1USCQ/SN56PI+3vsXTxGcdhrISS9TJy5awYWBFGSAvPXiokRUodyRKq2XJJcyknjxuKSNpGdXGnyUyc1OzCj4wFuM4zDxNH2r2pVP2WcEdFEgLyj2TNicAxpEubT74PfEKydjUu9rniTa71nD64LlwtcaI8xAFswaUTgMcbQhtfyhj8/uzEHRvwIQvwZ30Dij/b3ntN8YD992y52v+bpQmoi90x6dFPEn7b/Gzro3NFHB9DTjYsxGARb38/p/cvaAkAYH8WjixNMjLXepNmc3cyVfekpu1d2De6shJF9rnyDWv++r9nVOnSLpY/alwh/CuMLixipYA8BuaRJCybLZ8lSauz5DG4kYRHR3BSVuQYcA3ui9eJqeKZ8WTIXEgXE0Bwed4Xbg3W7r2bvEe/Rn6TfiBOaXCRY1O4+nU4XAVpTAEp+9chEGALLv/Bs6a0465JMcd/bO9VOwbVDfDn/t/Pv3jFqNDsIRsr4tKuZQMvZAzedKIx5Pj7HXbPjlCoRznRZ4p+aVHn94u0Pho0AwCwTzJAKyFznS+pvu9KFtUw0mztw9am0MXnfzmbwObShZp2/XG9hWpnCjOs57ALnHOk6C484+g0eY/LIJFCS8LIQpGfEY0BXL+/6yRU8cwrZMicSng00dVqTar1K6lpz0byGf8qeY3JIU7i7H9MEGbqVaBqodkJhABslgBw9QMs13vqFhV0nT07cceNzR+2ANBMxPH+a7ttWHnXsVFDfiiPL7mWbXxd3KnocH343S+2PfzUg1Gn3hK26ejHfbQ+7IdXMwceQAsAAJuyNElJuzeM9KeGsHIzGfMGsrUhrvxrhi6OIIwmY8FgVi6uVa0VRvEItzudI6+RZ4m4o6RIPUHyztVsuYnEgXo0FnAZPOv3lS+8SYbMtxCMayYmc/Voqvu0F5mqXibfid+TyMfgxG1CTnhWAjS3BlL2TkcYwFbcYujxmtKOByfFHF/X3qv2YVQ5wF8+BDhLhzUpm5YOP3znmB3VMepr2UamOtD4yIlb5jSZpQfvjTzzub9U19mBD7l2dn73WQ0mOS4wAcD6LBoRWRqDqHH5jWQ4O5YM2UPo75N0uBvh4fcdLhT1plEX1qg3CiN6comTZZPnUGE0xAHSnwlHAwIn7/9SqnppCmvLbyIYLSKCVN8uo6ad/Sjko3dI2rbCKY9C9X0EqhL+2xpI1h4zAIPNuMVfHsr1nuZFBV0/YYtlqHKAf7gSE5mHTInb/46fVH9dfxR45vSQg/33TxhWoff8nr00OeKxHqkPX/1TZVsMtQcA6zKVepBmW0+qfHYeld51lNSbV5EhezQh+XcpwnNk2xFvuIXUP73KykYylUxFWMBpWdQyqvrPW6Q//Tph+uyWJCVz5SSqfHkDNa7ocmFiFeeDZ9ND828+SQNxHvkIBNiK2ww9Xl3aMfP32qivSBhmCwB/+ywYEFg4+buUDfdc74bOqILKBx8YP/G0Kvht9lLtYMdZMie/29wGo9yEKgcAqzAVBVHtzPFUNnED1UzbQ4ZzT7G1rRAYADdiaZRT1StTSH/qVcIz/6zDXNmL6hdvooYl/ZwwCRiJCoQLxGEFpOxdjUCAzS763eVAK/Se/CuZAxc3maW5qHaAfyTrH1A8Y0Lkma7Xu6EMdZAuafeDH3x2PuVe9rLUQY6PP1Ifvuinirb4DACAFr7Y13BkyIqk2pmTqezhHaTetIJ4/VC6eKsrALjV50GDhKpef5H0J4XkH2Z6ta5W1LhqJTUsSSXeqf62i1mg4b9OIwRgS2718NH9dZEF26piF7FFM6oe4O8UYlP4kqRfPhsUWBBwvdviieOfPTNk05z8biPK9Z7H7H1s9Ub5uenZfb5qMMktqGkAaDHafZFU+dzrVP7wLlJvmkO8Nokw4gfAPV1I/r35JOlPvEFI/tmKkAT8ilTfxzvRPgeg2uDC5ZLnkKMIA9iS280+NCuv51casxSZdoBLUIpNPd+J3/d2sKzpuk9czTzHP3/mxuPDD985ukzvtYHsdwu+6buyjp9uqmhXjBoGgBZhzAuk2o8mU830bWQ4O42E59dhVkcA92WpF19M/qV/wF55ICA2lUiq75eQMTfUSfY3EFUGjIYkUWcRBrAltztR3VcbWfNrVezHbBEzgAJc4nPhhsCihx+OPjmipTZ4vCG0cMThsQ+W6rwWCJfNtj6gWqMibV5+6mpULQBcN2Oukmo/uosqnv6F1Jtnk0WdQHjAP4B7M9dzVDVlPOnThT8GIPlnlzqouoEqX/qYfUYrnGBvvVBhQJxMTeKAbAQCbHqh744HPSuvxw9qk+wQqh/gkjynxO2f8XCrk61baoNpDaH1tx0Z+9KemlbT2csmGx6Lfm1ph1lnVEG1qFYAuGa8TkSaX7pRxTNrSL35a7KouhFu9QUAQe2M0aRPn0uY5du+zNV3U8PSp9mC417j6k/6krFYicoCEgeUkKJ7JQIBtuSWCcB9tVHqt7P6fUi2TUIAOBUPsTH+jbgDU8LkmhZ7iH1aQ6hu2KFxH8w/n/oie1lvi+OoMSh/Y+/3M2oUAK6ZLi2Iyh9/m2re20KWxpFsjQJBAYAL1D/eRLpjcwi3dTrGtW3Tnneobt4N9nvqzL+wNMqI1+H5kCBIRwjA9h+SbmppUdKvhVqfrWgCAJfEtfaoH7ck6ZfRLblRvUVsfDlj4JL5+alPsJc11j4tX1vWfvZpVZAa1QkAV403iKjmg0FU/eZmMua9ydYEIygA8L+zjB/7UN3cz4nXRSEYDsOTVOsXkiE3xEH3z5cVjAAEnqSxmAAEbM5tE4D1RrlxTn43YRRgI5oBwCV53Bh0fkq/gOLIltyoziIx/ydz0Pfz8lPvYS9LrbXzJxpDfnoxY/AuVCMAXDX9KR8qu/9d0mz5gSyqXoQJPgDgj9Q/dqO6OV8Sr4tGMBxOB6p87gMHHQUojCCXoorcno6UAzEBCNicW5/MflGYfKRE5/0dOewYcQD7U4pNHT9O+O3VcLm6RZ91pbeIzS9nDvp1Xn7q/exlmRV2vXpmbo+ZGrPUiFoEgCtnYRf2mztT1cs/kqn4Vbo4WgMA4H/UP7WlujlfEK/vgGA46kd5w0Sq/ehWB9wz4TmReIwECHcnnUEYwNbcOgGoMsksH+d1n8kWMTkAwKVxPfzK7r0nMqNvS29YbxHzL2cO2jE/P/U+auEk4ClV8Jp15e2Po/oA4KpUT7uXXTT+RhZ1f8IkHwDwt8t2Ifn3yWri9ckIhkOTkHrLbDJkO9qMuxgBCMIEIFXkObgagQBbc/vbWRYVdM3+saLtYsIoQIDL8Xs8Jv2tcIXau6U3LCQBX8ocJEzU0ZK3Axd/mNNrns4ssaDqAOCKGM6JqeT2T6hp+5fsVRACAgB/o9kSQnUfLyHe0B3BcAaWdtT49SsOtlNCQlKOunF3osPEKZF/ANu3PHcPgNYs4T/I6T2XfS1CcwC4tDjPugGLOm+7yyrX3RYx/+KZwbs/PZ9yL3tZcZ2b4zNUQZ9/V9Y+B7UGAFf2IXTOgyqfXULmmmfZKxkCAgB/o/k5mGpnLifeOBDBcBocNe2ZTKr1sQ6zR42rA1Atbo8neQJmAAa7wBTkzP66yMpt1a3njArNnkVIiroKYUh1HiuFrH4r9tZG/WkWWC+xUfxUbJowY5swQ1gMK8IDnDEc/18+L24Nyf1Pd7+yn4/Uh7f4xB1GXsQ/d+bGXRzReFY33zbXzVWrMShzJqbfuthoEeOvagDw7y4m/1aQRXP7hYtFAIC/sjR6UuO3c4g3DcXnhLPhfalh2RTyHv2wY+yOwRt1gjMPUvQ4jTCAXS7oEYKLZuT0WnRzcN4TcpE5DtFwOsIkD8dPqYJ/3VgedzitIfTYT5VtK+nCk9yJN/MiVrg/JYOEM7cXMgaLmhe5ULlG8Vj0iaQoharHA61OCc+6G8RKIEL7Z2LO0v7NuP1PjDoyZoo1ti/U1TNnhuziOP6uJ2OOf89WBV/lJkzry+NnH2sIq0RtAcC/n4ILyb9nVpKlaRQu6gHgH1nUMqp8fjYZc+/G54Sz1mH9OFKtn0neox1h1tVQVIjb0xImAAE7QQKw2cG6CO0vVW3eGBWavZrw0G+HxxOnM1lEe5cWdV61ozpmy/dlHSqv7v9fuO30/58PV6T1UU85138/W9z/4Inhc9p41MsnRGb0fCT6xJ0RCvVYCWcRRqNhdCgzMjTn0efbHFk5O6+7VU6iLDxHT50atptV0pNPxB5fys60r/gvpbVGxel5+anfoJYA4F8ZMqVU+dxcJP8A4NInJSr2OfHMNDLkPIpgODVPalj6Mnnf/pADnM4rUR1uTuRXRV6jyhEIsEvzQwj+5/3s3us1ZulhRMJxT8MsPFd6Vh34wYS02xJlW14aNunUTV9dbfLvSuQ1+emnZffZE7Pjicmddz/UdkVJ4r16i3ifcMmIaqDQSTHpk8PkGqv+AeGp08PWLjzfdTJPnPYK/4t+XVn7aadVwRpUEQBcnllM1VM+JksTuxhE8g8A/umsUyWmymcnkyHnRQTDFeqz4U5SrU90gD2JQWW4vaMIAdgLEoB/cLg+3PzmuRveYIsmRMOxfmWbea7o88LkF+9NH9G5465HXl9d2jHPVm9+Vh3YdN/xEatT9z4w4IWMwUMqDR5byc0TgfGetffdE5mRbO33eer0sK+XFnZ++0riXW9U7J6b320zugsAXBZvElHNey+TqWISzoMA4C/EZFH5k7nGnyqfvZsM2dMJdwa5Ci9qXPm4A+wHnjnu7pTdMQEI2A1OfP9iTl63nQ1G+RZEwjGYea4uUx340X3pI7o9fvLmOatLEmrttS9nVEHm2Xnd9w45MP7W5cWJd6pNsuN08TmD7sj7iZjjr4XKNXJrv9En+d0/KdN7fSY0h0v9jIXnNN8UJ85gdWRErwGAS+INHNV+cCdpfn0TF2EA8PfPCGNbKh5eSyW315Iheznhdk3XYlGPIf3pcDvvRQQqwq0ZSJaQhjCAvSAB+A/eyer3Ol2cWALsx1So9dl6X/qIQQm7HnltdUmCw0zqcEoVbJ6YPmJTv/0TblhenPgWW9XgjhXUzrNu+ITIjAHWfp8MVZB5yMFxr5fpvH6gi49v/Nvpek6T/5ZnzwzZiW4DAJdV+3Ef0mybx5Y8EAwAADfD60JJtXqU3d7fmC8jUzmewe/WOAOJPDIQB7AXJAD/wdz8bmfqjIqliIR9WHiu7pQqeMqwQ+NGrS5JOOGo+3miMUQ9MX3Ee8uKOg+tNyqEZ0fyblZVyqdi016J96z1svYbZaiCdEMOjXu0TOd1+B/aS+O0rD5T0XMA4LJ0aTGk/X0+WwpBMAAA3JKY9Jn3EN9kn9u6TRVeZKnHqFJ3JvKsIs/hpQgE2K0JIgR/J2Rx3s3qO4PcdGSXPVl4LmN2fvcxSbsfmnFOHaB3hn1+6MTwI0MOjru51qj4itxs5Ggbj/qBMzruHi7hLFZ/iH6GKqj+zXP9J/DE/fH5j8Lov29WlCSeQe8BgEsy5nhS9ZRPyNLYFcEAAHBj5qpkatrTxU7vLow+l6MS3Bqe/wd2hQTgJcw7n1qwsTxuHiJhO6U6r11jj91+y0sZg5zuVs5jDWF1gw7cM2lZUed32Eu1O32G3BGW9VqyT6W/Ld5saVFS7py8bg/zRCrhtYXnyqdl9ZmF3gMAl8RrRdSw8hmyNI5EMAAA3J43Ne0ebqf3Fkb/IQHozjwGHkEQwK4X7wjBP7PwHP9udh9h4oECRMP6ynReGwcfuPv2H8rjC531GE42BhsmnbppxtKipKepOUHlJrq8EXdggtQGowAFL2QM3rWmJOFltmjIafL/bEVJYiF6EABcUt2nN1DT9pfYEp67BAAAHBmyRpCl0R63AXsTJpZxZyaSxpxAGMCekAC8jBONIZU/lMd/ikhYV4nO+4fBB8c/cE4T4PS3XBssYsuTp4at+LIwaTK5URLwjrCs55J8Km02q9o7WX2X7K2Neu+WQ3eifwLApekOhVDTrvfYUgCCAQAAF5gr25HuSIId3llG+GOUGxOZSBx0CnEAu7ZChOAyvxt4ET89u88KtliBaFhHsc57/dCD4x4+qw6sd5Vj0lvE5qdPD12xpDBZSAI2uklVtnkj7sATEs5ik8+ULE2A+Yb9E97Na/LDczoB4J9ZNGKq/+IFsjT2RjAAAOAP/EiztYcd3teHMAu9++Jk1eQxpAiBAHtCAvBfnGwMrlxfHv8lItHyirQ+v990cNzjmerAOlc7Np1FYn72zJAVnxcmC7PT6t2hPu8Iy3ry6di01mjZAOAQ6hf1I8PZx4RTbgQDAFyAhS5OUFj3l2JGaK7hGthUNsTm72ouU+L6263h9l+wOwxB/hcmXmTZU9Pq69FhWc+yl56ISIvJmZnX46EMdWC1qx6g1iwxT8/u+9ltoTnR4XLNM25wERrwcrtD//m8sMtTTezY0cQBwG6MhX7UtP1ttuSPYACAAxD+GCzcFSIk7GpJGqsmSbjwqJgyujh5XC0rBlZK/3eVFlFNHkM1f9gG3/yz/F+27UX6dB/Sn4hly+3IeD6BTGVt2HIsrl0ud5FXlkK64z6k6Gq7u3U020IReDcmiTqMIIDdmyFC8O++Ku6c/1zro5tjPRrGIxotovG97N5PLjzfNcfVD7RI660ffXT09PXdfkgIl6uHuvrxsmO8/7Ho9EVz8rthinsAsA+LhqP6RRPIou6PYACADQlJPuGxQWWk6FlEnCyfLeeycp587ysjEjWxZSGhpyJxqI7EfqYWe2d5IvtnwsVlc6WYzHUB7LMwjFRre5Dh7M1krurJvtMKVfQHvD6YLI3t2FKaDd9VGPjwu5XfQ8pKMisKF+pXx+jiCFinbnHkeePv6Hhgb0gAXoEGo9y4rar1V4/FpCMB2ALym3xnfpzX4zcTL+Ld4XgP1kVUf1XU6ZXX2h0UHjYc6eKHq3g97sA7Cwq6jjFYxBgFCAC2pzsYQ9q9z+McBwCsqIaE5J4iJZtEfmfY8mnyGpVH4gvPJm4kSbSKOIl9znPFIWZWqthSFdu/U2Su/JqMRRGk3tSX9CfGkblmMF2cjdbd+ZF6YzJ5DLBdAjBwyo/E67Za93fg0SCqm7+bLcW4SD1VU+ii20mkbHL6IxEH6NDtwN5wcnyFFhR0PfxYTHoGW0xANK5dfpPfzlsO3/lpnVHhVsmhd7P6pvtIDO89FZs2ly7+Zc5lBcuahrPjHDw7r/uvaPEAYFPCxB+N301iS20RDABoIcI5axaJvE6Tss9REgcdJs9b80h4Hp8kVEWc3LFHJolDTKwUkiK1kMxV60m9sSPpTz9EumPCkEF3niGdI0tdP/Z1me2uvCOE27wNVn0PY5EwyYgrDbLgSdpaQyKPJgKA6/8YQgiuzBlVUP3asvY/jw0/hwTgtVN9ej7lrXPqgHp3O3CdRcLPzuu+4o6wrFERCvVNLn640rfi9r29qyZ65/GGUBOaPQDY7sP2YAcyZDyCQADAdRCSJ4XEyY+Qx42/kUffvSSNKyVO0kjiYOc+rxEH68n3kXTi9c+T/uQCalz5NOmOTSR3HRFobkwlc4WcxKF6NHsAcAdIAF4h4XbV3TXRG8aGnxNuK8LsTdcgV+P/9YqSxINue/xNfqrlJYnTX2l7qBd76evKMgn9dAAAIABJREFUx+on1fd5J37fqFFHRq9DywcAm7BoJNT47ZNsKRDBuCbCLY365lJ7mZ8TzoFC//I6COeU4BpEJvK+YxD5TMhkyw0kDnTNP2RycjMpup8lefJz1Lh8GanWTSOLahj7jtitqttcGUaGnNakDD2Ltg8A7gAna1fhp8q2GfPpV+EXBEYBXr2SBQVd51fqPdx6RNgXhcmH7o3MWBupUD3s4ofKjQjJ+aCbb/nmow1hBjR/ALA63cF4MmTejUD882UuCSOaiLJJ2beAJGEFbFkoxSRpVUUeg4XnhQm/n4VbGfnm5cv546MsuObzSY7M1TLS/BTe/DqMLj6EXkgW+pCQJNT8HEyWJi+2HEwXE7W+zcsADnL2IraQ/3Pu86B+TmYi34ePkfedo6n244eo6bepdDGh7y4C2e+NNuxzEQlAAHALSABehQajrD5THbivo1cNEoBXaXNFu6/m5nfLdvc45Gj8jY+fvGn+jz3WjnL1EywRx7ebEr9v0qgjY+ahBwCAVVmaxNS45im25I9gXEjgnSdOeZi8Rh0hYYZLj/6ZJG2jYstGtp4VsXWeDyVm4Zc9V3zJ7/s+Kma7J4wYFDeXi8sNXwsTZAmJwLALhW+KIfUmIZEozGTZAVUKYO2TNh8dBb65kH1m/EZVr64gXpvqNtfC2kPJ5PvIFjQCAHCPDz24YrVGpeVYQ9i2jl41jyIaV6V6Wnafr80855QPpO3gVaO4PSxbuDARRjlo5+enVmvM0ms+ll+q2pw8VB+xradf6T0uXu/cLSF5L/fwK1t+uD68Dt0AAKxGdyCSDGfvcvMonCR5lzWk6LqJfO7JYR/Bpgu3+TlUksFT2B+hGP+03v+pvzwbmP2K9Z8sopoPH6Wm7YvQwAFscdbGzm0VKWcpZNZtVPnCFuL1XdzkyLuh8gHAXSABeJXez+599N7IM8KJqh+icWWyNAGbi7Q+uQ59zkM8Ny7ibGi8V21fVr8prT0aUtjqGFai2ffkYo7n/ntVMq39XuGr8Hyk86zkTs/uc5Rdqvy+vSr2+IG6CCNP3GXfS0iE7qqOXtLTr/R29tLDleteylki3ojb/8LtR8ZM4dEVAMAaeC1HjavvJ/e6be2/TOw32HryuW8u+T54iDiR2TUeU8x+j3IKCzseCxo4gI3Jk8ooZPZdVPns78QbQ1z+eA3n4kh32JMUPTSofABwdUgAXu2ZNi+qtfDcORHH90Q0ruzX6uKCLt+U6z0d6iReSNHJRGbRqLDsmMGBBXc+HpM+lq0S/tIp/ddOw104lJDm0uOd+N8vPHNqavzvDVqzZOMneT3W/ljZ9rcj9eFNlxr1uER4FmDUmVORCpWrtyNuZGjOM8+3ObL0k7zu+egOANDiLGo/dgH3gJsdtZk46Tryvnsq+T6QwZbRDgCg5cg7Z5Oyz6PUtHvtlZwbOzc+jJVYtnAGFQ8Arg6z2V6lbI1/49qy9scRiStj4kXpu2papTnK/giJv1C5Rv5pp23DdMNnrfs2ZeO5x2PSP2Sru7fACY6vUmya+Ebc/k0H+i4/u6n72qm9/UsjJZzlb/0st8lPW6D1WeUmzcDn9XYHXpeKLBx6BAC08IUbUcOywWyhjdscMCc5Tb4Tb6aoLePJ71Ek/wDAOoKmbyKR52o3OFI/4o1hqHAAcAdIAF6bYwjBldleHbMtrSGs0RH2xVeil37WedvA8qGfbn0y9vhWtkq4BddaV05Rw0Pypuzvu/zkhu7rp/f2Lwn/awLsw5xeO9mXandoB4Ey7d2TY4+loEcAQIuyqGSk3vyQmxytgeRJCyn4o37k++h24hR4sgIAWFfI7JeJOFd/jrOUGlcmobIBwB0gAXgNfq5qc5ouzrIH/3Kx8nNlm+2OsCPjIjJjfuu9+osnYo4L+zPAhm8dcGtI7mv7+67YPz/x1/sCpFr5f79xUhWcWaLzdpeZkT1fbntoilJsEqNbAECL0R5sxf4d7AZHWkfy5EcoeMYzpOjegIoHAJuQdawgZe8P3eBIO6KyAcAdIAF4DY7Wh1eQm4zcuk75x+rDz9lzB3wkBsnCzltHr0nZdCDFt2IiW2WvBFTs4zHpX54Z+OU3/QOKY+QiM51v8jVVG5Q73KUxhMo1Nz0Rc3wougUAtAyeSJ82mi0oXPxAa0neZRIFv7+CRN5m1DsA2JTvQwtd/rqHN7Yn3oDrYgBwefiguzbCX99LEIbLy1AHns3W+FfY6/39pHqPrT2/fW9STPoa9jLcAUIiCZNr7trTZ+WWmQk7B8lFZtGminYHSLityz0o3m2/942+AcVK9A4AuG4WrYzUP4108aOsJ0XXJyn4ve9J5IM7DwDA9mTxjaTsu9ilj9FwLoT0pwJR2QDg6pAAvAZ6i1ijMsmqEInLK9d5Hak0eNjlguWeyIzA33qt/rqXf+lL5HizlyVMjj323cyEnXedUweev3CB5yY8xcYeL7U5PBq9AwCum3aPcPuvK8+kbiBFytsUNA3JPwCwI47YZ9HnwiWQCx+kkPwLRl0DgKtDAvAaZGv89durY8sQicvi15a1t8vsv/dGnglamrzl666+FWMcuI0HTY49tnBM+Lke1QZlvRu1C9mQoPOv9Aso9kcXAYDr+BVDpLtw+6+rToFrIUXqUgp6dzGJfC2obwCwK687Skjsv9WFj9CPzLVIAAKAy0MC8NpVIASX1ZipDrR5knRI0PnAJUm/fCUXmYfThT9ZOvbJxh1hWbODZNoQtzqHlBgTXmpz+CF0EQC4ZrxRQpqf73DZ4+OU+8lv0hQS+epR2QBg/88kqZk8b1nhwkcoJfWmaFQ0ALg6JACvXTlCcFl1JDy43IaCZU2eb8Xvm60Qm5wh+fdffs3FnYhvDD4/qV9AMU60AODaNP0axv7t7qJHV0V+k14hWQdMNgYAjsNjyHZbn9vbWGtUMgC4OiQAr10jQnBZquZiEyGyJvG6bhte6R9QfDc5T/LPbXmJjW3fif/9sf9j7z7Ao6jWPoC/s32zu+m999Ckd6R36UhVFARERQUFVEAQe/2ueq/t2usVwYJiBUWQkoQSOgRSIIT0ZNN3s3X2O0PwqldBSnazO/v/Pc8ksxuY3fOeObMz7545J1jRhLoCgMtn2j+O/ZSJsGR2UvX8N2mGZaCSAcCtyGPrSRr6s4hLmIhKBgCxQwLwyukRggs7VB/aeKAuzGUJwHmxh0f1Dzy7SKQXhGLEDQ0+c8usqGPtEAoAuDw8R4bNo8V5VuZzhPzmvoRJPwDA/c7clHbyGSTecQD5hhi24ItpABA1JADBKeptCludTWlzxWsNCiqMWJ2y6xm26ofIe5SIhfH77xZ6byIUAHDJrEUq9nOgCEtmIlWvZ0jZvhKVDABuSR69lf20ibJs1nx/sp7SopIBQMyQAASPFq40SJ5ss/0+tdTWFtHwOFyKpmbqjdHHeiIUAHDJjFv6s5++4jsj89lLuukbUcEA4LZ8hgpjoJ8Qaen8CJ0JAEDkkAAEj3Zz9NFufQKKb8K+7LECb487uCRMaVAgFABwSRq/HCnCUplJ1etlUrY3ooIBwG1x8iaSRe8Tael0bEEPQAAQNSRNwGNFqhqlC+IOLmarwYiG50rVVF93Q9TxoYgEAFwSe634bv+V+Jwk3fTvUbkA4NY4NU/qnntEWjotIQEIACKHBCA4RbjSIItQNsqd+Ro3RR3rmuRTOwbR9ng+T7bZvqynf6kvQgEAF9XwRQQR31FkpeJJ1es/pGzfgAoGAA+wW6zno2TJRQIQAEQNCcAr548QXFiKpkaTpq3WOPM1xobl3YR6EAeVxNZ/eXImkrkAcHEOw7Ukvtnea0jd7ytULgB4BN3UwnPHLTFqSo9EBQOAmCEBeOUwSOzF+TozRtcGFkX0CigZiTCLhnxsaP6y7v5lQQgFAFxQ/Se92U9OVGWShmaRz+AcVC4AeATORxirVKwTgaBjAQCIGhKAVy4CIbiowPOLUwwIPNtTzvFJCLN4yCX2LiuTM25GJADgghwmsY3/x5Oy49fEKRyoXADwCJzKTPKk0yK+fgEAEC0kAK8cEoAX59svsCjGWRsfFlIwjv2SIsziOqWcEJZ7Zxe/8miEAgD+xHzMl8jeXmSlMpCqewYqFwA85+rRx07K9qdEWrpQVDAAiPoQjhBcwSeD0qhoq9XjA+JvDAkq7OyM7fYLLA4aFFTYExEW4QGJcyT9p8vXt4cpDTg2AcAfmQ/3IoddLqoySXyqSJFyBJULAB7mmEjLpUbVAoCor7cRgssXqjBq22j14YjExSVqanvGqetbfB+Tc/ZojigOERantlr9ghmR2amIBAD8gXl/VxJbz2/OJ4MUqRZULgB4FqlYbwHGGIAAIGpIAF4ZHVvCEIaLi1fXtYlWNbT4rdLLkzOFsf98EWHRClkYf2BJqNIoQygA4L/Mh7uJrEQ8qbpvR8UCgMfxm1XEftrEWDJULgCIGRKAV2BkyCmh9x96AP69uBGhp9s4YbsdEVpxS9VUT58ZebwHIgEA5zjMHDlIbEM/mEjZ4SAqFwA8kNBzuUJ8nzVW9lljR+0CgGghAXgFevqXXoMoXBLZgMCz4+QSO9fC241HaEXP9874/UtCFEYlQgEA1LgxnBzGYFGViVMbSNnxKCoXADyQmS3l4ivVQQ1ZTvigegFArJAAvExyjud8pFZMQHGJBgUVDunsWxHUwptF70svkKKpGXdj1PEBiAQAMMIXbwpRlYhTZpM8wYCqBQAPZGVLtQjLJXzOYAgaABAtJAAvU6JPrWZsWH47ROKStZsQltunBeOvvEZXiRm6vIPyroSslSmaGh1CAeDl+PpU0V2USX1x+y8AeOoBzEoSTQ3iAADgWZAAvEwhSmMo+9Uekbj0M4RbYo7cHKeua5GeG8GKJmWkqhEJQC+R5FM74Kk2v4yWcTyHaAB4sYYNndhPMR0HeNJO2oeKBQDPPLsPspF6QC0CAQDgWZAAvEy3xR0ULkIwRfxliFQ1Dm+rrUavSbiiY9T1ESdXdtBVBiAUAF6trcjKI9w+l4dqBQAPVooQAAB42MU1QnDplBI7F6xoGoZIXDa/+5Mz56ulNunVbshgl5vqrEojQupVOq1KybgRvQABvJS9RkZkSxRXoaQWkgbmonIBwIM1IAQAAJ4FCcDLEKlqDBgVcmogInH5BgcVzliVkt75ardzrCHYklkbiQSgl7k+4uSSa3SVYYgEgBdq2hZFvEErrrMvdSX5DKlC5QKAB8MxDADA005BEYJLd1P00WT2qw0icUWC5sccWhKtalC2wLZwy4H3iV+Vkn6njONxzALwwvbPFrnIypSDagUAD2dBCAAAPAsupi+RSmLj+gUUT2arUkTjyoQqjZPviD8wsgU2dQrR9D6TI3LuWhh/IA6RAPA6USS+BCA+xwDA05UhBAAAngUJwEsUrGjyGxFyejwicVVUt8UefHRg0NmIq9lIjiHwOELplfxXJGesVErsOG4BeJPGbxJIbF++acYiAQgAno5HCAAAPAsupC/RgrhDvdmvNETi6gQpmjo9lLLrAbXUdsW9OdaVtBEGTq9BNL1PuNIw67a4g50RCQAvYtdHi61EJAs6i4oFAA9nRggAADwLEoCXIEjRJL8rPutmxKtlDAk+c/s7nb6bIsyqfIWbKGLLGUTSK6lWp+xaI+EcmBEYwHvEi6w8Qq8ZjGULAJ5NN7EcQQAA8CxIaF2Crr7lMQFy01hEosUoZ0Rmv7AiOeOKenJl1YbXZdZEpiOM3ilY0TTmrvj9gxEJAK8RIbLyIAEIACK4ivR3iLBUKuE6BZULAKI9dCMEFyeMN7YiJWMeW9UhGi0qbEni3o8GBp2Nudz/aOJljvSaqG/Zqg1h9ErSR1J3PtPZtwIT8gCInbVQQg5TqMgOYTzJkypQuQAAbkdNSAACgIghAfg3BgSdDRgcVDgbkWh5Opml3bc9P/28f+DZoMv9v9+UJ+9jv/IRRe/kLzd1fSh111REAkDkzIdCiDcoRFUmTm4jVY96VC4AAAAAuBISgBchl/Dcg8kZc9lqFKLhHBqptcemXus/7hdY5H85/29ndXRlZk3kBkTQe49d48LyHunmV+aDUACImvAFkVxkZSpGtQIAuCUTWywIAwCI9iIaIbiwQUGFfgODCu9BJJxLLbWN2NL7k5/7BBRf8m1eVofE8URen0/Yqh4R9E4yjk9ZlZKxAJEAEDUNW8R2u38TqhUAwG2PzyaEAQDECgnAC5ByDm51SvrdbDUS0XA+pcTeZVuftb/cn7S7zaX+n+8qkg7vrY34EtHzWtzo0PwlPf1LgxEKANESvhgSWw9AzJwJAAAAAC6HBOAFDA0+E9o/8OxSRMJ1FBJ7m2fabkv/qscXkyWcg/u7f887OMcjOf2edxBhMHUvpZTYo1ckZ9zL9hcEA0CkzZwtHMIAAAAAAHB1kAD8CwqJnVuTuvNhtuqHaLhcwPiw3PU/9Fz//KWMC/htRdLxvbURb7BVZIC8EzcxPHfh3fFZiQgFgCgFkvh6ANagWgEA3BKuJwBA1JAA/AsPp+5q1zeg+BZEotVIh4cU3PNDz093rk5JH+wrs8gu9o9vPDDuhTKzJgth81p+K5MzVgqJe4QCQGyXYhYxnqfUoWIBANyQLMZAsnCM0woAooUE4P/wkVq5+5J2P0zNtx1BK9LKLO0fTdvxw5mhr70+KKgwRSmx/+VA8HmGgOq3Czveb3dI0KvCO3GhSuP0hXEHeiAUACJTvxbj8AIAgGvIwi0kDbIiEAAgVkgA/o9VKRl9ZBw/GZFwGwp/uWnu1j5rd2/s8flzg4MKU0IUxj/dDrbq5ICtB+pDn2SrFoTMK2nvS9q93EdqlSEUAOK6HEMIAADARcwIAQCIGRKAv+MnM8vuTdj7JOLilgJGhJy+9+c+a/ccGfjOmw+l7hqY4FPnp/zdbZ8zsia8lGsI+ICt8giX94lUNY5aEHtoBCIBAAAAAFegDCEAADFDout3HkjOHKeS2vohEm7NP0xpmP1I6s6fTg3595Yve3zxxKqU9F5p2upgo11mG7172pJcQ8B6QhLQG6kfS9uxom9AsQ9CASAaKoQAAABcpBEhAAAxw6015wUpmnzujt//EGLiUftut1Ehp4Rl2WNpO/LONPke3l0Tmb5NH7s+UtWYqJFaeyJM3kUrs/RYmrRnSvq+SR8gGgCiEIYQAAC4IeMvahGWqgoVCwBihmTXeV92/2K2Vma5BpHwSMKYgG3j1PXCMv38c5jByzsphwcXLO0bUPxNek1UNcIBAAAA4ATW06EiLFU5KhYAxAy3ADPXheaH9PQvXcpWpYiGaKgRAu+kk1naL03acwsiAQAAAOA0CtGVSBqCL48BQNSQAGRWJmfeqZDYExAJAHGcvo0ILri9b0BxHEIBAG4Id18AgBiEi6w8dtJehx6AACBqXp8AHBOan9DDv3QBYgEgHlqZJemRtJ13BCuaOEQDAHDRDADQ4gJEVp6G8wsAgGh5fdJrRXLmMoXE7mkn43a2VGD3BbggblhwwU03RB1vj1AAeDQxjueKHoAAIAbBIitP/fkFAEC0vDoBeG/i3h49/EtnsFVP6yUkjFVYTJiqHuBiIhbG7V8cojBibE8Az4XeGAAA7klsvZnrCAlAABA5r00AxqjrZfcn7V6qkNgDPbQIwpiFP7KFx24M8Je4NG319TOjsnshFAAeKxQhAABwM/ZqBTXtDBNVmRRtakmRVofKBQAx89oE4O1xBweEKw1jPLgI/tR8G/BR7MYAFxRwR9z+e8KUBiVCAQBuQo4QAIBnsymIbwgRVZE4VQFb7KhbABAzr0wAxqnrVHOij6xgq1oPL8rEHdXRL7DfBuzKAH+tjbZ67IzI7EGIBAC4iTCEAAA8nIotESIrUz6qFQDEzisTgAviDo2LVDX2E8NFhFpii9xVHfUa4VZggAtRP9N22/LufmU6hAIAcO4FAHDVhDsrxDYGYC6qFQBwEioyCT51vrOjj94nJAXEUJ7u/mV37KyOecnKS/Zjdwa4wFmqxN5veXLmOEQCANxAAEIAAB6tfl0i+6kQUYks5Du9EBULAGLndQnA9zt/c0OUqqGriIoU3SegePwz+b3nUfPsVQDwZ/Lx4bnLuviVByEUANDK/BACAPBoDlOyyEpUTZy6EhULAGLnVQnA4SEFEf0CihexVamYyjUg6Ozi3bURp7fqY5cKH8nYrQH+TM7xnR9MzpiFSABA67JxZMnGkAQA4MnSRFYePVuQAAQA0fOqBODqlF3zJZyjrQiLljwgsGjK8MwZ7/AO7kPs1gB/iZsUkbO4o29FNEIBAK3GYePIfMgfgQAAj2SvllHjN+LqAahsX0iqrtWoXAAQO69JAI4IOZ3UP7BogVjLd1/S7qVKiU0+NHPG3XYHdwS7NsBfHfAcCeu6blwYojBiEH4Az1AswjIJdyFEoGoBwEP5EPHtxFUkLpstqFkA8ILrYS8g5Rzc6pT0JWxVzD1/2j+cumvKNn1s/cjd06exx7XYvQH+rI1WP29GZHYyIgHgEWwiLJNwlYlxAAHAUw/LwkSK8eI6KsuzUK8A4A28IgH4cOrObtcGFs0QeznvS9p9t0Zqlf6ijznxfUXiLewpE3ZxgD8JvTN+//3BCqMMoQCAVjr3CkUYAMAj1f+nI/upFlGJGsj3xnxULAB4y0moqCX41ClnRx+5h60GekF99l6TumukzSGhifsmb/ymPOlxEmfvCYCrkqatnj4zMrs7IgHg5tS9xDgmk4R4UyQqFwA8j4PY8Uts508VbDmDugUAbyD6BODcmMP9YtQNk7ylQpck7lnsK7NILLyUv/ng2GcbbYp3CTMDA/wv7d0JWfcFKZpUCAWAG1O0qRdluRrWYTIiAPA8fIOMDN91EVWZZOFFJE+oQOUCgDcQdQIwXl2nmRNzZDmdG6zWO0g5x7BVKbv6Ces1VpV10r5Jy+ptik3Y1QH+KEVTM/72uIP9ZRyPYAC4rybhklOMpyioWgDwQMIXp+LqASjxzyJpKE4GAcAriDoBOD/28KhoVcMAb6vTRQlZSwPlTeemsvqpKr5+Stak+XU2ZSZ2d4A/kD2etn11O51ei1AAuC1hQisxDmURj6oFAI9j3B7LfiaIqEQ8+QzANRIAeA3RJgB7+JcG3BJzeClbVXpbpSol9pErkjO7/fr4x8r44mlZE2bXWlXZ2OUB/qDfqpT0CegFCOC2hFuA7eIrFh9DfJ0c1QsAHsV6uo/ISlRN8sQTqFgA8BaiTACqJDbuyTbbp0aqGnt5ab2qFsQduvf3T2yuTMiZsX/8jTVW1Uns9gC/HQOnRpy4r51OH4hQALilBhJjD0DeqCTDj0moXgDwGA6zlJp2DhVVmThlCUm0mAEYALzn4leMhbo2sCh8WHDBPeQFk5xciI/UOm5CeG673z+3qTLhwPtFHW5jq2ex6wP8V6dVKemzpBzPIRQAbkdP4rwFWOj9l4jqBQCPYSvzIVvJQHEdiWP2kLKTEZXr9p+XOEcHaCGiS5CppTbJA8m757LVtt5csTKO161KTr/3f59ffbL/9rXF7W5hq4XY/QGaCb0A2+uqQhEJADcjDdITJ7eK8WOabOVpqGAA8BiG73qzn5EiKhFP0vDtqFi3F0Je3KkHoKWJrjH1CyhKGBZccAeqlqiTX8WkieG5f+hh0GhTOBYcGfnz2uJ2QpIUSUCAZtHf9vxskVJixwkGgDtR9zWSxNcgwpJxZPihKyoYADyCwyYhw08zRFaqGtKMOoTKdXsSspVgzFyAFmtQYrpOkNqky5Mz72arUahaIjnHBz6YnL7wf5//NQn4MXoCAvxXtKph4fzYQ3GIBIDbEevnVGdULQB4BFthINkrrhdVmTh1EUkDc1C5HsC4ORxBAGgZokoArkjOuGZo8Jk5qNbfPto6+VXMnBie86fu+kIS8LYjI7f+83T3G6utquMIFQD5r05JXynDWIAA7qZYlKXiG2LIuA1fWAKA+6t790b2009UZZKF/ULKa0yoXI+ABCBACxFNAjBY0aS4K37/MtF9OF0lOceHP5iScetf/U1IAt5zbOjOmfvHC0nAg4gWeLswpWHW7XEHcVsegHspEmex7Gri67qgegHArVlPacm47V6RlcpC2glbULkeIxohAGgZokkALkrY1ytAbpqKKv1zHXfyrZg3MTzngr0MNlcmHJyxf8LUGqtqB3voQMjAi6nWpO58GGEAcCPaSWK9BVhBDV/0RQUDgFure1cYMkhsQ6RUkTRgHyrXYyQjBAAtQxQJQH+5SbU4Yd9D506m4U/kHB99oV6Av/qxMj5vWtaEabVW5ZfsoR1RA28VrGi67q2O3w9FJADchNRXSABaRVk2vn4QKhgA3JY1L5CM25eJrlyy8AOk7luKCvYQjRvbkMOCifoAWoAoGtKSxL3X+cosg1GdF8R1PtcLMDf2Yv/op6r4suuzJs3eqo99TbQXWwCXcFycHXP0SdZmpAgFgFs4Q8LtWmJkr04j45YkVDEAuKWKJauI+FiRlYonRfvviFPjriePqTFDCvuJ83KAlrjQ9fQCDAk+o1mWuGclDgoXJ+P4qFUp6ff83b/7uSqu4brdU5dsKEtdyh4aEDnw0vbSnbWXGYgEgBuQJxUSpxDpl1K8H5kO4DZgAHA/+if7k732dhGWrJbUvX9GBXuUdmTJ9kEYAK6eRycA2UU6rU5Jn6mW2jBo/9/juviW3zAhLLft3/1DEy+zztg//pUvy1Imk2gHXwe4+LFxXFjeqm5+ZTqEAqCVKTvWEqeuFGnppGTaPQGVDABuxZLjT8YtLxE51OI76obmkM+wk6hkj6Kgpt2YNAugJS5yPfnNDww6qxsUVLiarXKoykuobM4Rtjo1/b5L+tznpfzUrImbB2fMHGTmpemIHnjdmYbEnroiOXMuIgHgFvJEWzJb+bVk+BEzHAKAe7DkSKli0T/JYekowtI5SNVpA3HWTFyaAAAgAElEQVQy3P7rcfvl0YGYqxLg6nlsApBjB4CHUnctZquxqMZL19Wv7Prn2m299pKuSRwS2qaPzR+WOWPwlqq4l0gYMwPAi46P14Xmr+jpXxqCUAC0ukPiLZojhMz7x6CKAcANjkdE9R/fTbzhBhJnB4sGUnbbhHr2QKYDk9mlKCYCAbjaC1xPfeNDggtDBgSeXYYqvDzsk9z3xqjja1I11apL/T87q6MtwzJnLPqhMnGizSGpRBTBW6ilttCve352v5TDN44ArcpvtnC7lli/hJKQcftssuYrUdEA0Hp4jvSPziTjlqfZA5koiygNPkLaMYdQ1x6pI9W90xNhALjak04PpJDY6eHUnQ8LlwSowssXoWwcsDD+wGRhDMXLMXr31K+HZ07vZuGlwjdndkQSvAAXqjDOXRi3PwWhAGhVQgJQvLPT8/WdqOGzQahmAGgVDhtH+idGk+GnV9kjsX4ZwZOq28feUJsk1ntl6z5aRQ4rhv4CuAoemQBcnZLe7trAoltQfVdMsThh34rRoafCL/c/btPHnh2aOWPC9xWJwliC1QgleIHA5cmZy5USO044AFoLp8hmPywiLqEPmQ/fyi5scHsTALiWwyql6qenkGHzR+yRv4g/SOpI1fVr8V/lJVeTNLBJnIXjr6P69wai0QJcOY870dRIrdx9SbsfYqtqVN9Vab8yOeN2hcR+2fvAzupo86R9k1+4P3vQQKNdvoU9ZUM4QcwiVY1TF8Qd7IVIALQS7YRakqgLRF1Ga+FIqnl+KCobAFzGfFRHlcvXkGHTB+xRgKjLKgvfQprrzoq+TmVRPEn8xHqnFkd1H/2TTPv80XgBrozHJQBXJGf2VUrs16Pqrv4A2jugZOHjadu7XdH5Ai+l5/J7HR25e9q4jeXJ9xns8mLC1EwgXrr7Evc8oJFaZQgFQKs5KPLyacm4/T6y5GlQ1QDgVA6LlOre7UKVyzeQac8q9oxK5CW2km7a215UwyXiLRp/Ddt3/0W8UY6GDHD5PCoB6C83yxYn7n2CxDowreuFzIo+vjpZU6O90g3srI5umrD3+hdnHRg3tLDJdx17yoiwghjFqOtHzI09PAKRAGgl6v77SOxfNPH1A6lh7U3kMGHIAQBoeQ4LR6asGKpc/gjVvfMz8XVCr2PxH284ZS6pemzxopquE3NtkvnwDVR5/4PEN6rQqAEuj0clAJcl7pmglVr7odpaToSycfTSxL0z1VLbVX34f1mWcrLT9rk3byhLvbHRpthNuC0YxMfnibTtK3sHlPggFACtQJ50gMQ/AZWCDJsfJOMv16DCAaDFCD3+TFmJVPnAMqq4ZwuZ9j5Ioh7v7w948hn6OsnjrF5U42UiL5+UzIdWsX35dTL+HIEGDnDpPCYBGKxo8rkrPmslofdfS5PdHndg5ZCgM22udkO1VqV18r5JX47cPW30F2WpyxttilOE24JBRHQyS4+liXumIhIArXG6H3CQiDN5QUmjqeZfwhhH4ah0ALhiwsy+ltxQqnt7GFU+8ApV3LODHVeeZX9J8a5AcBWk6vqRl9X+GW84KyDLyZtJ/+SPVP3MDLKe8UOjB7iUhuMsqk5s6dZim/u+16fz0rTVc8lDZy52c/5Dgs+EfF6W9l2tVXXV346dNfma1pe0zfhFH7sx3qfOluhTl0jC2EYAIjhmxqgbErbp4z4rMulwuzuAKymSLVT/0QQie7T4L9zNcdSUGUmKlJ9IFmX22jpv2t6NrPnjRFSiUtKOfZ9koeKpU8vJbtSULqI6cnCsTGFk/CmaHA3CuauS7FVS4uutJA107x7I9kol2QrDyFacQjUvjibD9/dQ7WsPkvngYrKV9GD/QueFRxEHyaL/QUEP/OBVpebrY8i8fwp5w+3dZA8lS85Etr8PIssxDXtsJE5mIql/6x9n7dUyshVo2DEkiC3BbIlgbTGJtc/u7BgzjC3TWPvsSOq+GTjJgz8w72fLIads2iN6040KPRXSy79kCTkzYenlwpWGSauS039cdGz420a7rEV67aXXRBXM2D/h/pmRxz9aGH9gURutXpi8Bd/OgEfTySwdliTuuXlq1sTnEQ0AF5OG7SLbWW+YkZsjvm46VT1ioOA1y0nVoxqVD+AKDgk17Vp4brVpl3A+rGdLBXGqKlJ2FCZWKKDm2ytLSDOyjGQRBrZuYYvw23z+t40UbQzEOWGOAstJJTks2vPn035kPhpBpn1JbL0D2Yrakq1EuB1S+JIEY6M1H0oryW/Oq15XbHl0ubAHs8Vbhq2RkaOpL2uzwlJLEm0eKdoJd6IdZUsOaceeJWmwMC5i4/nFRtLARpJFXTipf64HbbbQ1n7tfCT8/jWJrhaifL6dKanx61Cy64V/K7Q/4db6IOHymuxlOrIW/tpehf8jrP9xtm1Z9Gtop+DaxuIBViRn3qGU2JNQXc79qJgXe3jV52Vpu76vSMxuqY1WWdSOlwq6HfqkpO3t0yOz310Yf+D+tlr9sPMHQQCPTEGMDDm9sHdAyeeZNZFnEA4AF9KOzqDaN4SLcm+YJENKfN1cqnokiILX3EOqHmexAwC4lHCcCT63OExEpj1//GvzYyHhJ9w90yA8c/6xhZTX/JoALCRhDLpmxfTncUyF//NX47WF/e5cWXgPQiIniszHdOQw684nGYREAmYNv+iVbtQrpBlZ6YUlLz+/L3rjuNX+xDd2Z+2zO1ufdr6tCmPT159vp8JvG0mDG0gee/EEoPmw0NYk//1M/i0BKMRVSc0JwKtNtpegoYJLD4vu/gZHh55K6OVfsoBw668rxL3f+dsnumyfc1OxSWdoyQ1XWnysLxd027m+pO2+lzr8OHJCeO69Son9WkKvTvBAOpkl8dG0HQtn7h+/XG9RY5xLAJedtUTuZNfk7ETeIfeSEgtJwElU9XAUBSy6h3wG7iZO5R3HHOvpYLLrk7HTg5vT/Dfp8HvmI4hM66skv1te8cqSS4OK2WeFgRymEOwGzWcPbAk8vzSzVzUvrU07uhTVA67k9km1FcmZS5QSeySqyjVCFMZxT7X5ZYFaanPKvlFh8TFN3z/hq947bxq/rqTNLVaHROiajQQKeBpueHDBrJmR2e0RCgAX8hlaxprfCW873hBf34v0j39J1c8uJUueeIfSsBYoybilL5UteIbKF/1Cpqx7sdMDwBXRjHmKNCP0Xll2ZecGkoag17j7s5A0rAxhAFdy6wTgvYl7u/f0L5lJ3nGrj7uQ3RR97KGVyRk9nfkiB+vD6mfsn/Bht+1zhq4rabuMJ64AoQcPE7kwfv/iEIURM5MDuJI87hcvLXkYGX58iioWf0/6p8eSJVchilJZz6jIuPVaKpu7giru3k5VD/9Aluz7ia9tR81jLAEAXK5j5HfLW14eg+PYDdyeMG5oJcIAruS2CcAYdb1saeIeofdfEKrJ5fzvjN//8qCgwlBnv9CRhpCKGfvHP7/wyIiBxxqCn2VPYaBz8Bhttfqp0yNP9EIkAFzIZ/AmLy69jPj6PmT4dh1V3LOZ9E/NJEtegMeVoml7LNX8axKV3vQyVdy1j6oe+p4suU+SvVb48lGHnRwArgJP2rErSRba4NVRkCcIU4jiLiv3hgQgtMKJpJu6NfbQwChV41hUUesIkJu6fdn9i6cSfr79jhqryuLs13v9TOfCz0rTVkyJOPnuooR9y9pp9ULPTx/UBLg5v4Xx+5euL22TVWH2MSEcAK64qEnaRc0D53vzLJc+xNcPJMN3falpRxFJ/H4iv9kbiaQHSTO8yK3eqa1cReYDyWQ9lUbGHd3YMwPJVpLIrtGDyUMmowMAT/qMiP+S/OZ/7/U3kPkMOE5N271pJmDPw6lNJItEAhBcyi1PvOLU9apbYo48QPgWuFX5yc03v9nxh303HBj3bwsvdfo3SHqLmn/9TOcT60va3DEt8sS/70nYt7qNVj+acAsQuLG2Wv2oaREnhr1c0PUbRAPAFRc119aynxlsGYxgsM9HviGBLbeS/onZ7GqilureyCdOmUm6GbvZ33NI1fkEyaKbXPJuTHuCyFYRy9ZSyPB9B7JXdCHe1J742l9nK8XnOQA4UyX5zlpB0iArQkEnqXnGWyQA3ZXUr5aU1zQiEOBKbpkAnBd7aFy0qqE/qqf194/rI04+u6Ih5NAjOf3SXfWiNVaV9fUznfd9W540/am2vwyeFXVsBXsa+wO4K/X/tft56a6aqF8O1IU1IBwAziZxkG7KRmr4DAnAP1IQOULJViYM39GHqp+xs99GkmgbiVOeYevZJA3OI+1YYWB4YdDxqvOLmXwGV5HEj7/glhu/CmbbFsYcFCYgEb6cFV4jiIw7Q8maF8/WhSWJ+IYgcliUwnGR0LsPAFxNnvg4+QzMRSAYn0HlVPtGAdkrwhEMt4WJWsDl3O7kLN6nzn9O9JFl5N239rgT7QNJme9v1ccO2q6PKXblCxeZdKbZB8d8/1hO3+2rU9PHz4o69hB7ug2qBNyNUmLvtzwpc8L0/RM+QjQAXEDV7Stq+Oz/2JoUwbggITY64ht1RI0RbL032fVE1SeFRJ/QO0ZIENpIGCOq9nXbRUPJ1wl/5M5vU3r+/FH4LUGYAcAtyBO/ptAX3yJOhXHvBJzSQZw049yxH9xVMUIAruZ2J27vdfpuWoy6oRuqxn2opbbkzb3WfXxtYJHLb93hHRzlGAINsw+O+SRt6619Pipuv5Saey4AuNVp5+SInKUdfSuCEQoAF1D1FL41z0QgrvjcT+ilJ9wW5ktCrz6+MYj4ugsvRP7U3PtPS829++SE5B8AuI9S8p2xjKQBRoTid3xv2EPNX/aAe8I1LbTKSaDbGBJ8JqJ/4NnFhG/03Y5SYh/wcOrOf7bW6/MOzpFjCKydfXDMC/MOje56psnvGfa0ATUD7kLG8Z1WpWTMRCQAXIBT2Eg3fR0CAQDg9eykGXUvW3IQiv8lF74oq0Mc3JTvTQUIAria2yQAhftK1qTsmivhHO1QLe5paPCZ2zf1Wn+vpBVnlBcSge+c7ViauOW25fMOjb6msMn3A0fzbJAArX4YmxJxYuk1uspohALABVRdPyV8EQQA4N0UKS9RwKLPvX7W37+iva6ApMEYE9E9WYikFQgDuJrbJACHBJ9JGhB0dgGqxK1xI0JOP/Vtr08nyji+Vd8Izz7k3znb8XTcljtmzz80un+RSfcdNY9pBNB6DYQobl23r+4MVjTh1jgAZ1N1rmQnz58jEAAAXnspu42CH32YJDobYnGBM1NO9gPi4JYsbEECEFx/1HSHNyHleG51Svo9bDUWVeL2lKNCTr+9NGlPL3d5Q++c7bhvWOaMce8XdRjXZJftpeZBzQFaRVutfu60yOw0RALA2dc1PnbynfEWCd8JAQCAl30GyPIp8P4FJIvGLa4X43fL1yxY6C3vfoSOK0gAgsu5RQLwoZT0rgODCm9AdXiMwIdTd30yMuS029yufbIxkJ9zcMym7jvm9Hu/qMP8RpsiGxeF0EpC747PujdI0SRDKACczPfGvcQp0xEIAACvUkEB98wj7Rjc3vp3NNdlkdTvCALhZiQaCynbIwEIrt/1WvsNxKnrlXNijggTfwSiOjyHSmKL/6L7F/8ZHXoq3p3e1/HGIOucg2Pe77Prpt7vnb3mPgdxwvTqDtQYuFIbbfWsGZHZXREJAGefxehMpJvybxznAQC8hoGUHe4jn0HbEYpLvXDr8yZhNmD3wqmrSR6Pnpng+lPn1n4Dc2MO94lV109GVXgeH6mt86fdvnxvTGh+mLu9t6MNwfW3HLru+TkHr+uZb/B/lj2lR42BC6kXJWQtD5CbVAgFgJP5zviKOJ8DCIRo2EniV0iyiAJ2gVSFcADA75hIec1DFPLUx+w4gS9+Lvlz8oYviFMVIxBupQghgNbQqgnAWHW9Zm7s4eVsVYOq8EwaqXXAJ103fjg2LC/UHd/fB0UdSpK33rZ89sEx/fIMAe+yp+pRa+AKqZrqcXfEHRgo5XAnOoBzz2T8G0k36XnCsA9i4CBZxMcU/loqRa5PIO3YaahXADjPQsqOz1PwEy+x4z7G+74c8vhakga9Tegt706QAITWOW1uzRefF3t4dLSqYRCqwaNxWpll2Mddvn5pfFiev7u+yQ+KOpxss23+vNkHx4zWW9TCjMFGVB04meyJNttXttFWaxEKACfTTf2aJLq9CISnHzUjdlDo84tIFmNurtdJJ3CRBADUnPx7gYIff4ykAVaE4wr4zXmdXbaVIxBuAz0yoVW0WgKwu39Z4PyYQ8vYqhLV4PE4ncwy5cMu37wyISw3wF3fpN0hcXxQ1CF9SOaMSW8Vdpqpt6h3UvMMTADOcu3qlPQJUg5fuAI4lTSonrQTnsQx3aNPSXPJb/4ckkXX/vacoookun2IDYBXs5Cyk5D8e5ikASaE4wppRpWz5TlCL0B34CCfwUgAQuucbbXGi6okNu6JtF+uj1Q19kAViGdf8pWZZ7zf5duXJ4a7bxJQcLg+1HLr4VEbh2TOHP1mYafb9Bb1QcItRuCkdjE9MvvBtlp9AEIB4GS6yT+SxO8rBMITcVXkd/Ms0ow4/YenZWFWUvXYjPgAeK3zyb/HkPxrCX6zXyeSHkMgWp2N5HFlCAO0ysVpa7xo38Di8BEhBUvIDSYhgZbdn/xk5unvdXL/JKDgcH1I44LDo94dnDlz1MfF7R5gT+UTvhWDltd2dcqum6Wcg0MoAJxIGtJEQQ8+ztYwcYRnMZDfnLnkN2/PX/5VMyKdMGwHgDcykrLTKiT/WpAsih1vbxKuwS0IRqsSxrDE7djQKlyegFNJbJIHkjLnsNU2CL84L8H85OeSgK9OCs8J94Q3fKQ+pPy2IyP/ccOBccOy6sKfwQEZWtq0yBMPtNXqQxEJAGefZHQ5Ssou/yJ8meMpLKQZtZT85n594QvWyEL28zhCBeBV9KTstJSCH3sByb8W5jfvR5JFvIVAtCphuBL0AIRW4fIEYN/A4rgRIQULEXpRO5cEfLfzd+9PCs+J9oQ33GhTONYWtysYnDHzwRsOjBu+tzbidcKMwdByIn7otX6JnOPRCxDAmTiVnfznvcIuGHciGG6PJ1nkGnYxevELUVlEPSk7ZyBcAN5yHFdkU+CSGRTy+OvsWI7Zfp0h9MUH2c8DCERr7eNyK0lDkQCEVuHSBKBKYpMuT8pczFajEXrxH9r8ZObhQhJwYnhOiqe86Qabgl9b3O7IsMzpd8/cP350rVW5gT3dhOqEqxWlalgwP/ZQPCIB4GTKTtWkGb2SrVUjGG5MFvUPdhH6IsnC7Rc/m1A5SNleGAcQvToBxM1O8sR1FLh0NGkn/UQSf7R5px1/I2rJf8F8wpAZrXSVrNGTug+uL6FVuDQB+EDy7vbDQwrmIuzec3jzk5mHvN/5u48nhud29qQ3Xm9TWj8paZvec+fsG18t6DKlwabYdu7EBODK+a9J3fUYwgDgAn5zM0jZ8SlqHmcH3O7iM+p9Cn3hYXYRemm39vkMPcJ+YsZEAPGqIEW7xRT2r7mkue4MwuH0SzQi31kHyP824a48JKJcrwghgNbisgRggNykWJywbzlb1SHs3sVXZu7+Qedv1i9KyBqsk1k86hbIXENA051HR3zXefst418t6Hqz0S4/TOiFAFcoTGmYdkfcgS6IBICzr22UdvJf+AZJAzcgGG5GFv0thT5/L8kiLn1iD4mulKTBhxA8AFFejv5AgQ8Mo9DnXiWJHyb8cd0HpYN0Uz4nWYwwEaIV8XApJACh9Y64rnqhxQn7OgTITVMQcu+kk1lS/tn+p7Vru26cppVZPG7251NG/4Y7jw7/uN22+UO2VMUtZU+dRq3CFZA/nLpzJcIA4ALK9vUU/ORykgYeRTDcxg4KeXIeySJrLut/ycItpEj9GeEDEJUi0oyaT5Frp5B27BGS+OILdlfjVDyFvvA6yWMfZY/MCIjLlCAE0FpckojRySzSJYl7hS7GcoTcq4WNCc1/a13Xr+73kVo9cl840+Srn7hv8otTsyZeu7s2Uri9rA7VCpcjRGkctzB+f1tEAsAFlO1Pkc+w2wmz7bmDA+R/+2ySx5Vf2cnk1F8It6oBiIGB5EkvU9DKPhT04NskizQgJK1IFmahkOefJnnsMhxjXUQ3FUNaQKtxSQKwp39ppE5mmd6K5eRJGFuCSLh9ZC9b8s99+EBr0F4XeurRgqH/fmVkyGmNJxZAmDH4s9K0kqEZM1ZNyZrYbW9txDvsaQuq1m25VfvniJRrUnfdjWoBcBH/29NJO1Houd2IYLSaPPK/Yzb5zjx9xaeeEo3Q8z4HoQTwWFaSJ3xGQSv7U9ir95BmNG6DdBeyMBuFvfHauS9pMDGIs9lI4oMvJaH1mrvTX4DjuQdT0mexVa2Ly1ZTYfb55j/F7X8oNPmmf3C2QzU1DwYudC+XCm/tzvj9Kf0Dzw4eHlIwkT3uRS6eFMWLyUMUxvlf9vgidcLe62/aXBl/1hMLYbDL+c9L0/K/q0haMD4s79VPun61mj09AdXrFty6/fvLzFO6+ZWtzKoLr0VVATgZJ3dQwOJP2FoYNX75JPutQlBcqpz875hDvjOOXNVhVpFaTaquu8m0vxNC6hWsJE/cQKruGazdDiKHZQhhHHFPJXwR+xNpxzxDfgt2kjQQX5q7I4nGTr4zP2Nrp6j232+w310RFKcQrkfQAxBa77TYaVv2u5ktt5JaalMYR/9jD3vGVSdsNd+UJ7/2WG7fV442BJcb7fKLztwq53hSsve4NHFvpxXJGauVEvtYp8YF/nh2x0sLH8ntO/OpvD7pvMOzwx6kaJKvSdk18O6ErCfYw56o3VYhtP8XWPt/+wra/8Os/Y92Ufu3Lzs+5IZ/nOqxHlUG4KoPnAI5VSx6guw195ILvgCFcxrI//Yp7KLyR3Z1efXje1UsnUamPes8OB77Key1waTsUC+aGm7cuICqn3u9JVsqyeM3kO/Nz5DPwEPEKezkaJKR+agvmfb1JfORUWwZyf5dMpqXByQ6ZDEbyaf/86SdvJdkoRZcYnkCntVcaRA73j5KtuL57AkFYtKiDBSwuAPpphQgFHBBdW+y5QOnbNrpCcDH0nZ0WJWSftgFF9WOepvyp0dy+t3x4unup3gHd9knmgqJXfJ1j8/HjAg5/TZ7GII9z2U2DM2cMePnqjhRfCMYKG9SrEndNXlRQtZjOEF1GaH9f8Pa/2LW/guusP1LWfufxNr/q65o/3qL+rPgzYumouoAXMiaL6O6d5aRcfsaQk9AZxOSf/PJ94ZPz8022RLMB5Op/G5hLMBID40JEoAXZiN5zJfke8uTpBlyiEjKXyA5wZHDIqP6j5LJYR5K9Z8MY08OJdffaQQXVk2yqA/J75bXyGdYLnEXqktw7zNru4TqPxxOdW+/wB5h7OqWwinqKPRfYaRsj0lX4MKcmAB06i1vEna+Nzio8HpyfvLPurE8+ZnBGTNHP3+qR/6VXPwLLLyUH7l72teDMm7oyrZxHHueU/FWh2Tvk3l9Riq/WzZFLMm/c2c9VrVl8bFhnwRtWtzxQF3YErYvlVLzrafgvPb/BGv/k1j7P30V7d/O2v9nrP33dEX718isQ3sHlPih+gBcSJ5ko+Annibt+CnsUSkC4jQmUve5h3xvXN9iyT+BLLKQZBE4PxPX1bCZ5DGfUdCaHhTx8VTSDD9w4eTfuasLB3EqK/nNzyb/O1+m2B0TKfqHAPKb14d0U5YTJ/uB/X9hgjY7zr1cxnGuHjnZNtKMvoUiP42jyE/uIc3Ik0j+eXLTZHXnN2cTRa7vyY69q9kTlQjK1bYTdlziVHlI/kGrNm2nbdnvZpL5z5NYxzy3gz3q68SWZFtb3O7hGw+Me6Iltzs4qNBvU691P8klfHfsJi2Ktzkkeek1UY+N3j31E6NdbhN7gSeG54Y8lLJraUffigVSzuFPuP/BE9p/JGv/m1j77+DEt29ddnzI9f841eNr1CRAK2j8Mplq33qH+Lp+hDGAW1ITyeMeoNAXXiFpSMtf/FcsXk2m/Y96aGzQA/C/JGw/if6GfOc8TZrh+1v0PdmrFWT4viPZyvuy333YqWcvclgi2F/k1DwOMLTA+Tw7nTURpzxAPoM+JVXXr0gzugBhETHDDzFU994SspXcyM7Ag3E9cymXKWQlTlZHJNtFqi7bSNlpB2srh0jR1o7wwEV56i3Ao1OG+n7X81Nh9k2lsxpWpcXn3dDNd89zxsaHBp+J/bbnpzuUEnss9sKrrysLLy3KrIl88Ym8Pq9vrkzwulmYJ4XnJK5KSX+wo2/lNBnH41aVlmn/r7H2f6ez2v9PvT/ZyVZjnFUA9v6fYe9/OaoSoJVY89RUcd8KsuuXsEOKBgG5akaSxy+n0H+8QtJQ5/T8qf/oWqp9/Scnnls6ExKAJDGQPPo78p3zDGmGZ7nkPdpKJdS0PY6tdaaGL7sTX9eNHNbO5DAJk4oI45thTNBLS2YICb9q4hTppO6zmZRdhYk9ChAaL2P4IYxMB2aT8ec5rA0lEcYI/LV9WNlibp6xXpJFuul7SKJKJ0XbbFJ2tCJEcFmcmAB06gdeb/+SLs48QbM5JEdH7Z622Fnb31IVV/hcfq8Fq1LShR46cuyJV3ZANPPS6syayDefyuvz8qbKBK+d9WhDWeoptsxbkrj3jdUpu5b7y82jCGNQXU37P8ja/zJnbX+7Pqbwm/Lk28eG5X3lxGNlb9QkQCuSJzdR1IaHSP/UJjJu/Sc5moTzFvQGvMLLQpInrKTQ/3Ne8k+g7HSCOFk+OWztEHJPImkkecx35Dv7/0gzfK9LX1oWwbOLcXZRTqfZ7w3nnhMmBTJlCcmLtmQ51oZM+zqz9Q5krwk/f26m8vJjgTA0TxNJ/SuIuF2k7LKblB33sfZ3mBTJmMXXm2lGlbPlWfK94QXWbgZRw/oJZK8dQw5jKPurjzdc29K5ZOuUh4cAABm5SURBVLjMRBJdGVs/SLLYfeQz+BhbP3QuPhINhh8At+XUHoDP90lacm/i3n846RXs7529ZvQth6770ZkB8pObZUVDX31LK7PMxu5y2eoqLD4blmcPevrds9ecRDh+E6Ouly1O2DdsTvTRB4MUTcKMwfj27PJYWfsfydr/Vhe0//dY+7/RGds32WX6kXumxW7XxxhRpQCtfbmbq6WGT5aQYfPd7FEwAnJZmpN/Ic+9TLIw54/5VX7ne2Q+7InnZeLrAWg905bMh/r/7QUzp2YXxsP3uH15GjcKbT+NHOZ4ql+bdG6dqB3xDeHkMAmdGoTEoPBbLMlB/lwyQ+i9Kw3UE0kPkaLNYVL3PsSeO07aMafZc0hmwN8cB/LVZD7WhR2X+5Fp/yByGLoSbxR62PqQ594qLOz3TecWiW8DccoT59qEZtgJkkVnkzQ4j9R9y1D54BSeegswf2PN2xw55jpj83qLemvw5kVDXBH/ESGnUzf1Wn+AvONbjZZgLDVrNr1xpvOzr57purvC7IMThwuIV9ep7krYP2VRwr775Rwv9GbA2DSX1v6/Ze1/rCte67G0HZ1XpaSns1W1My417jgyst+/z3Q+jFoFcJcEwDftqP6DR8hWeh0+9y9JA8kTV1HIs65J/gkql99MTbve88ALS/ElAL2F+ZCObMVC78BotoST4cdYspXEn38cTQ5TANmrhcSgsAhf6srJPb7cFc7BhR57wqQDJuIUJpIGl7P1XLbkkXZsLkmDCtl6PqkHlZLEB5N2wNWznPQla35HatpzDVmyO5PD3p3s5UL70Z0/n3aX2+7N/20bEl0TW8rPtQuiAlL1yiFlmzPn1pWdikgWZUPFgst46i3ATLKzNvxyQdcXXRX/rLrw07VW5SZ/uXkS9saLH0SLTbo9bxZ2evqNM51+KjVrcYvA3yho8jMtOz74o+36mB9WpqTf3M2v/G4Zx8cRBtb9u/b/mqte68XT3Y/fFZ+1mbX/CU7YvHBxIIwxiAQggLvQjj1O2tHTSf/McGraeR/xDcIkIRiu4a9wsgrSzbiPtBM/clnyT6CbvI+adgkzUoaiEsAllJ0azi3NiTMizXV//Lu9QkmmQ0LvwQC2BJ5PdPhRw8dB5LAI61HUnBQMEv43NfcgjKRfv/h1WDmylV5uz0IHyWJMxJ2baVtITgjD7AhjjZWwpZo4bQ3pppxl6zVs0bOliqR+ZaTq2YQKBadSpNWzZSdrJzub91QTR8Ydwr6fdG6/N25JINvZRLYee26xlevIYRbOiZXn8xO/H0JMev6xkKizX7Q9NPdmFX7/2rOVZ59NZuKUwp02FeeXKraUk25aCXE+wnrluecUieUkT0LbANFzdgIwwUnbrfm8NG2zq4Kkt6it60vablgQdxAJwL9mN/PSIzuro1+cfXDsp8UmLW5nvEwby5Or2PL8uLC8dQ+mZCzu7ld6k5RzhCMyf6mStf8tLmz/Ftb+P2ft3xkJQHmo0hCJKgVwN1KeglZuIkvOVmr4bBw17VxIfEMfck5PYE/USNKQDNJNfpx8Z213+avLk/NIFn2SbEVIAIKbHDJCzaQZLiTg/jjWtWb4pf1/3sCRaY8fXd6Y4zz5DKjGLbrg9jiVg7UFIdlW9ZftwpSlIb7el635U3OyT2gLv3aGEB4Lf6uj5t6sF7wepeZk968TcgjrNlJ1rSWJH9oIwHnOTgBGOGm72483BptdGaj1pW12Log7KHyTgF4AvxFm9j21vTrm5afzen+wpSquGiG5Ol+XJxez5f4xofnvvnLNj0vi1HVTz38Iwm9+EVH7526LPRj1aE4/1CqAO1KkWiho5edkyfmWGj4bSpbsW8laMPD8RYoXkpSQImUTqXu9R5px6SQLb51boqSBFpL4ConH/thJQRxNS+Mgn8G1CAR4JVU3AwljyRKVIhgAzuW0BOCMyGwNR2FOGc9sXUmbI7yDc2km/2RjoPAtQj5b2mO3OTcDa8k2fex7T+b2eWOrPvYMItKyvq1Iyj6REXTb/NhD79wUfeyBKFWD8FUZxqJqbv+HW6H9Cyflwn6e5oTNo0cRgLtTpJooaOW35DBuJuPWrlS/fiZZTwn3ACaQ+4xl5Cx1JA09SrLwteQ3ezOpeua6xbvSDNtGluNLCV/MAgAAAFwSp520JvnUBhOFOWXb+caA/Fboxyv0/hG+lfD2BGDdKaP/+tfPdH7x2fxex9GEnCff6M+vODEw463CTlPnxx4aOSv62JJoVcMA8vKJQlj7P9NK7V+4rccZCcAw7O0AHoLzsZJmzG5SD9pDluxnybCpH1lyp5M1vzc1j+clhvFb7efOd6Qh2SSL2kR+s7aSLOYYySLNbvUuNSMySJ4wktxjooVLVU/yeAyTAgAAAK3CU7+1Lm+F1/x1PAFvZTpl9P/27cKOz31Y3GHv2SYdZglzkXyjv3XFiYHfvFXYaesd8fsnLU3cu4Q93Ykub6BoMWmN9i/s7866+FViLwfwMMLteqruJWz5lPiGL8ian0CNX/ckS94Ysp7qSs09Az2lbVefO64qO5wmTnWAFKk7Sd0nh6QhhW4966HEz8Divx07IwAAAMCl8dQEIC6YXcd2yui/8+3Cjk9+UNRhe5FJZ0ZIWke+0d+w4sSgjzZXJmxekZw5Y1BQ4V3s6RQctwAAWpFEZydl57xzC1+3lqxFYWTNjaem9N5kK+tP1tPCcTqemmcFbU3CDKYV7P1WkLJDAVs/SrKoo+QzLI+EGUIVyZXEKfHlHgAAAAAupC9PjiHQmbc4RLVCrITbLjVetn9kfVeR+MKio8O/yjf6N6K5tD4rL6HNlQkVv+hjXxoYVPjlA0m7FwwJPjOP/cmbZgxujVlzhWOlr5O2jclzAMRCmGlQ6VdGyvZlpJ2YSfbal8heHsD+Ekr1H8aTgxd6byeT9VQM2YpD2HogW7TUPKnI5fbqFoYm+PWzuYmaB1BvIE5qIlVfPVuvZMtZthSR1K+AvR+h93Qdceo6ksfiMx0AAADAyzgtAfhpaVqlg2qIo5YfrautVp8oDLLj4nHAhEGmY71kvzj1bUXSP57I7bNuT22E3u6QoKW4GTMvdWyuTCjcro95qH9Q0X/e7/ztoghl4w3kvCSV22DtP7UV2r8wUUe8k7Zdjz0aQKSk/na2VLG1Kgp+XBg397tzz9v1CuLrhMSfMLmT8twxxl4rp8YvI+jPiUCetOPKSBr0v8OQCI8t59ct5x+b2H+3kTzegOADAAAAwO85+1Y64Rvo4Jbe6KTwnH4SziGxOziX3apyR/wBoddhjMj3h7Kvy5PfeCqvz5v7asOLrQ6JA03EvZl4Gf9jZXx2zx03L1oQd/CdBbGHHghTGsaSiG+TZ+2/F2v/nN2FMwGz9h/PfkU4Y9tHGkLKsScDeBlpkIUtQu/f33oAy9mi6noAwQEAAAAAZ3B2165SJ223213xWS6dOTNY3jSCxDv7amNhk++r92cPGnx91sRHMmoii5D88yxFJp31oZP993bZPmfWo7n9JlZZfH6h5okrxKi3K9u/Wmrj+gUUX+ek46X9y7LUSuzBAAAAAAAA4EzOTgDmO2m7sqHBZ6a6KkjBiibNjdHHpomw/i3FJt1n92cPHtB1x5zFz+X3OmHlpRgA3IOVmrWmNSev/aH9L/PGfljU4Sb21BFy+d2yTidn7d9l7VEns2gGBhVOdNLmhVv2irHnAgAAAAAAgDM5NQG4pzb8pLO2PTYsf1F3/zKX3Oa4LGn3EI3U2l1E9W4vM2u23pc9eFSHX+bOei6/5wG9RW1DcxCPCrNP462HR308JGNm/x8r4++l5oHgRcOV7X9J4p7B7FcnJ21emFU7H3ssAAAAAAAAOJPzbmlVdaIY/9SAgUFnndJTjyMKjFAaGtaWtNvlzACNCjmle7H9lndlnCNKJHV+5KuylMW3Hh615ouytFwTL7OjGYiTMHlLQZOfeV1p2z0/V8WtjVY3NiX61HYhEYwPyNp/AGv/etb+d7ug/X/A2r9Txv+rsqiLbz449glMtAMAAAAAAABk3s+WQ07ZtLOvOvc5c+PjwvJW35Owr62zti+X2CUPpmQsUUrsXUWwGxVvLE9e2GPH7L7XZ01cf7A+rAktyztYeKljmz62bPTuqWsGZ8zsYOJl79BvM0d6Ko61/zUuav/O6v1HDuKyhBmdsZcCAAAAAACAMzk1AfhEXp9C9qvQiS+hfbLNL+t7BZSEtPSGZRxPP/VaN+bawKIH6VyHI49V+3V58qPdd8xuP2nv5Nf21YU3oreRd7I5JEIi8Kzu+3vnrz7Zvzt7/LWHFymAtf+Pndj+xzu5/Tt26KPTsWcCAAAAAACAszk1E8Q7ON7u4DY78zXUUluHrb3Xftc3oDi8BS/+ua191g4fEHR2LXso99C6NddaVa/ee2xox/F7r1+TVRdex3t0HhNaipAIfDy37xH5t/eNX5Nz7WALL91DHjpjMGv/nVn7/5i1/2AntP+PnNz+zduqY3dgjwQAAAAAAABnc2oCUEg0PJvf61sXJAG6b+697psHUzKukbOL96vZllZmkW3p88m8awOLNrCHGg+sU0uNVfXVPceGdgnYtPjOF093P4vdHC7k0Zx+27TfL+nzU1X8LCsvOU4emAhk7X8Ya/8/DAg827YF2//Xzm7/Jl5WmF4ddQh7IQAAAAAAADibUycBIVU3YSKC0jkxR+8QnnFmQRQSPnJI8JkpvQJKmwpNvtmlZq3lcm51VUlskhEhp+MPDnjvpQSfupXCJj2sLq1Ndtmu+7MHz520b/Izu2sjq7B7w6XgiXN8WNTh6I7qmHej1I36aFVDexnn0JEH3foutP9bYo5MY+2/gbX/ky3Q/mXOfs9VFvXbS48P2Yw9EAAAAAAAAM5x4iQgzrvA97uZLbeSSmqTVI3417saqfVmF4VLGFD/6KbKhJefyuuz8WhDsF5vUVv/6h+qpTbOT2ZW35O4L6lvQNEt/QOLZrOnAz1s97AZ7PLszZUJjz+T12vD7tpIK1oMXI0hwWfClidl3t0/qOg2lcQW7GFvX2j/h1j7f4m1/+/ctf2zN2lZeGRk/3+f6bwHexwAAAAAAACcU/cmWz5wyqadngAUrE5JH/po2g6hp4urZ5+orDD77PqqPGUvWxdub9Sff14Y1ys+RVNzzaCgwl5sXZjlV+lhu4Wj0abI31wV/6/n8nu9k1kTaUBLgZY0PTI77cX2W5aFKw1T2EN/DyyC27Z/o12+V/P9kp7YywAAAAAAAOC/PD0B6Cczq2pHvbiTrXZDbV41oYdT6cby5Defzuv9SkZNVCVCAs4SKDdJbos70PPO+APLo1QNw8gzx8V0uza8tqTtrTfsH/82QgEAAAAAAAD/5cQEoNPHABTwJLH18C81J2tqJxBhKtqroD9l9H9nzclrF67O6f/FKWMAev2BUzXxMsfO6piiD4vaf15jVWelaGpi/OTmCKceO0TO7uDKZh4Yf1ulxQe36wMAAAAAAMBvnDgGoEtuybXyEnoyt68wq+5h1OYVacw1BKy7++jwkV23z1n8UkG3nEabwoGwgKsIyaqn8np/33PnzaO/q0ic32SXZbGn7YjM5Vtf2uafxxuCkbwHAAAAAAAAl3FJD0BBmVlj7u5X1pSiqUEvwEtnarAptiw7PmTxomPDnt9eHVNs5mVI/EGrMdgV1o+L2x/eWRPzRajSWBajbkiScXwA2vQlOzN136T5eqvajFAAAAAAAADAHzixB6DLEoB2h4TyDAGnx4Xl99PKrHGo1YuyNdoUezeUpd5/x5GRT7LfJ0y8jEdYwF2cafIzflzcLnO7PnZDqNJoiVfXJ0k5hw6Rubi1xe2WvVHYOQORAAAAAAAAgD8RQwJQUGzSmVVS2+khwYXTqHkmTvgjh8Euz95QlvbYbUdGLf/X6W5ZLGYWhAXcVWGTb/3Hxe221FmVPyRraiRBClOK0PoRmb+0Y0rWxPv0VjVunQYAAAAAAIA/E0sCUHDCEFRyY9Rxf53M0gc1+wdnt+tj/m/G/vFLXiro9nOJSWtCSMBT7KmNrPysLO2HMpP2p3if+qAgRZPQyxdJ/t/UP5bbd9bnpWmFuFsaAAAAAAAA/pKYEoAGu5zfXh17YGxofi+dzIJbgYn0RxpC3lyT0/+uh3Ou/SrfGNCAkIAnEiamSa+JKvm8LO3LUpN2d4JPXVSQwiS0cW/PePFri9stX3Rs2AYHkn8AAAAAAABwIWJKAApKTFqjVmY9MDiocBR76O+t1XqkIWTtQzn971yePeiDHdUxVUY7OkyB52u0KewZNVH5X5SlfZ6sqT2Spq1OYE9Hems88o3+7849fN2j1Ra1DXsHAAAAAAAAXJDYEoCCzJqoCq3Mkts7oGQ0e6j2ouq088Rtvv3wyAUPnBj06s7qmGKjXY6ZfUF0GmwK6/qSNsc2lid/EaY0lrTRVgvjAwZ6Uwzyjf5bR+2edlu+IaAeewQAAAAAAABclBgTgMKswNv0cae0MktF74CS4eQd44Xt/k9xu7umZk16+seqhPwmuxwz+4KoCbe8lpq1xs9K2+z5qjzl8xCl0dBWq2/P/uTjBcXPeuhk/1mbKhNLsCcAAAAAAADA3xJjAlBgd0gc2/RxR7QyS23vgJJBJN4kYO5Hxe1XTMmatPztwk6H9Va1FXs1eJPzicCGL0rTfqm2qr9M1dbIA+SmNuxPCpEWOWvliQHT/3m6+ymM+wcAAAAAAACXRKwJQIHdIeG36uP2+8osVb0DSgawp5Qiqrry4w3BT/ZLn3XnO2c77tRb1GbszeDNeOIcu2sj9R8WddhUYtZtaqvVB/rLzclOPRa53rnk37P5vfKFns4AAAAAAAAAl0TMCUCBkATcUhW/31duOd47oGQwe0rr4VVWf6Ix6NX7swfPvff4kO/LzFoDegEB/MbEy/jdtZEl75695ivWPnZ20FXF+8nNMeThMwbnG/2/7r9r1g0by1MKkfwDAAAAAACAyyL2BKBA6Bn0U1V8jr/cvLVXQGlP9lS4B1aVLdcQ8PF92UPm3n1s+H/21kbUWXgpJvgAuNCxjZfZd9dGnt5UmbguVGk81F5X1Y49HeqBRbHkG/1fGpE5fXGOIbAKCX8AAAAAAAC4/ItkL0gACnh20fxjVULphrLUzyeH5wRpZNaO7GlP6EYjTObx84MnBtw06+C4V7PqwsttDgkSfwCXqNLiY/u8LO3456VpH4YojSXtdHqh7ft6yNsv/bCo/e1zD43552mjfxNqEwAAAOD/27u70CrLAA7gZ266tTPnNpebpI50zSWJFDI/0giCICJIC6qLhIoKLy0QMilv1kUUQUQ3FaVelDW0zK5lsYHix1DzO1k63RdubnMf7ZztrOewQVIgZDvuePz94IH3PRcv5zzv+7/5c97nAeCW3C0FYFLynzPtw9HBT5prfi7LHTjzSFFHTVYkUpSmt2YsMZZ1dMeVpW+uO7x+276OypZRxR/cWphC9jtj0VhdW/WhurbF28tyB2NLZnY9HEnfdUFHLw7N2rPp1BMvbTu3tuFaPM+u3gAAANy6u6kAvLEM2NdZefLH9qrt68vPTYvmxJdlpc+OoWOxRPYfOy8/9PbzR5596+uWpad74nmKP5gknbHo0Pdt1fs7h6M7lxe1F4T8L8lKn13CEyH/p0P+33jt2FO1+7squt0xAAAA/rcUFoCpW6hq1oYwXp+0y22saHrg/arGzXNyB14MXzoamZrNAhJDozmXdrU++OkHv6/66vxAcZ+nE1Iv5H9ZyP+7If9Ph+DnT9HXGA35Pxvy/3HI/7ch/173BQAAYPL0fhHGjpRc+o4pAG8oAqreq2p8tTAn9nJ+djy5WUDObbgFQ/0jM07+0Lb4yw8vrPjuTP/sXk8l3H4h/0tC/jeG/L8Q8l8SSeW/mP82GPJ/LOT/85D/3SH/g+4EAAAAk04B+G/Li9oLVxVdefKdygPPFU4ffjyaHS+OTO5aYQN9IzM6rsbyf/noQs2u+u75B05dLx31NMLUC/kv3rzo4DNrS1rWlecOrImMbxgyWUsEJF/n7w/5bw353xPyvzvk/6j8AwAAkFIKwJtbWdw6e0VRa82mhYdXhtNHS2cMVkez48nXBO+JjJeCN/udyYX7/wxjqG8kt/taPO/kr13zGuq7FzQc6pnbdLzv3pgnENLT9GmJyIZ5v80pyI6tCvlfHT5aHfK/8B/5v5nRifwPtgwVXk1Eso6E/B+cyP+JkH+lHwAAALeHAvC/WVNyeeb9+T0LwuF98/L6y16Zf3zuRBFQEMbsMFrDiB/vm9PzU0dlZzhuT3526npp85He8hFPHNy5Qv6LQ/7nT+S/POS/LDK+gUjBxOgIYyzkv2si/8nz5Nqel2KJbJv5AAAAGac6erV0y6KGLeGw1Gykr7qzDXV7zx/cm4prZ2QBCAAAAMC4x0ouVtTXfFMfDivMRvraeujC1tqm5tpUXHua6QUAAACAzKUABAAAAIAMpgAEAAAAgAymAAQAAACADKYABAAAAIAMpgAEAAAAgAymAAQAAACADKYABAAAAIAMpgAEAAAAgAymAAQAAACADKYABAAAAIAMpgAEAAAAgAymAAQAAACADJaTsisPn4hE+naYYQAAAIApdCne01vb1PxZOCwyG+mrsaOn0SwAAAAAAAAAAAAAAAAAAAAAAAAAAAAAAAAAAAAAAAAAAAAAAAAAAAAAAAAAAAAAAAAAAAAAAAAAAAAAAAAAAAAAAAAAAAAAAAAAAAAAAAAAAAAAAAAAAAAAAAAAAAAAAAAAAAAAAAAAAAAAAAAAJP0FTxn4vQgRgHsAAAAASUVORK5CYII=;" vertex="1" parent="H5XLg-262uGlo7exfHj2-715">
          <mxGeometry x="327.27" y="205.88" width="65.47" height="20" as="geometry" />
        </mxCell>
        <mxCell id="H5XLg-262uGlo7exfHj2-721" value="Medallion Architecture - Bankme" style="fillColor=#4DA1F5;strokeColor=none;shadow=1;gradientColor=none;fontSize=14;align=left;spacingLeft=50;fontColor=#ffffff;html=1;" parent="1" vertex="1">
          <mxGeometry x="270" y="100" width="730" height="40" as="geometry" />
        </mxCell>
        <mxCell id="tUD9NKAxfMahRDJT9SFy-8" style="edgeStyle=orthogonalEdgeStyle;rounded=0;orthogonalLoop=1;jettySize=auto;html=1;exitX=1;exitY=0.5;exitDx=0;exitDy=0;entryX=0;entryY=0.5;entryDx=0;entryDy=0;" edge="1" parent="1" source="H5XLg-262uGlo7exfHj2-727" target="tUD9NKAxfMahRDJT9SFy-5">
          <mxGeometry relative="1" as="geometry" />
        </mxCell>
        <mxCell id="H5XLg-262uGlo7exfHj2-727" value="Plataforma" style="strokeColor=#dddddd;shadow=1;strokeWidth=1;rounded=1;absoluteArcSize=1;arcSize=2;" parent="1" vertex="1">
          <mxGeometry x="287" y="249" width="75" height="60" as="geometry" />
        </mxCell>
        <mxCell id="tUD9NKAxfMahRDJT9SFy-12" style="edgeStyle=orthogonalEdgeStyle;rounded=0;orthogonalLoop=1;jettySize=auto;html=1;exitX=1;exitY=0.5;exitDx=0;exitDy=0;entryX=0;entryY=0.5;entryDx=0;entryDy=0;" edge="1" parent="1" source="H5XLg-262uGlo7exfHj2-729" target="tUD9NKAxfMahRDJT9SFy-5">
          <mxGeometry relative="1" as="geometry" />
        </mxCell>
        <mxCell id="H5XLg-262uGlo7exfHj2-729" value="Hubspot" style="strokeColor=#dddddd;shadow=1;strokeWidth=1;rounded=1;absoluteArcSize=1;arcSize=2;" parent="1" vertex="1">
          <mxGeometry x="287" y="319" width="75" height="60" as="geometry" />
        </mxCell>
        <mxCell id="tUD9NKAxfMahRDJT9SFy-33" style="edgeStyle=orthogonalEdgeStyle;rounded=0;orthogonalLoop=1;jettySize=auto;html=1;exitX=1;exitY=0.5;exitDx=0;exitDy=0;entryX=0;entryY=0.5;entryDx=0;entryDy=0;" edge="1" parent="1" source="H5XLg-262uGlo7exfHj2-731" target="tUD9NKAxfMahRDJT9SFy-5">
          <mxGeometry relative="1" as="geometry" />
        </mxCell>
        <mxCell id="H5XLg-262uGlo7exfHj2-731" value="Jira" style="strokeColor=#dddddd;shadow=1;strokeWidth=1;rounded=1;absoluteArcSize=1;arcSize=2;" parent="1" vertex="1">
          <mxGeometry x="287" y="392.5" width="75" height="60" as="geometry" />
        </mxCell>
        <mxCell id="tUD9NKAxfMahRDJT9SFy-10" style="edgeStyle=orthogonalEdgeStyle;rounded=0;orthogonalLoop=1;jettySize=auto;html=1;exitX=1;exitY=0.5;exitDx=0;exitDy=0;entryX=0;entryY=0.5;entryDx=0;entryDy=0;" edge="1" parent="1" source="tUD9NKAxfMahRDJT9SFy-3" target="tUD9NKAxfMahRDJT9SFy-5">
          <mxGeometry relative="1" as="geometry" />
        </mxCell>
        <mxCell id="tUD9NKAxfMahRDJT9SFy-3" value="OData" style="strokeColor=#dddddd;shadow=1;strokeWidth=1;rounded=1;absoluteArcSize=1;arcSize=2;" vertex="1" parent="1">
          <mxGeometry x="287" y="469" width="75" height="60" as="geometry" />
        </mxCell>
        <mxCell id="tUD9NKAxfMahRDJT9SFy-16" style="edgeStyle=orthogonalEdgeStyle;rounded=0;orthogonalLoop=1;jettySize=auto;html=1;exitX=1;exitY=0.5;exitDx=0;exitDy=0;entryX=0;entryY=0.5;entryDx=0;entryDy=0;" edge="1" parent="1" source="tUD9NKAxfMahRDJT9SFy-5" target="tUD9NKAxfMahRDJT9SFy-14">
          <mxGeometry relative="1" as="geometry" />
        </mxCell>
        <mxCell id="tUD9NKAxfMahRDJT9SFy-5" value="Bronze" style="strokeColor=#dddddd;shadow=1;strokeWidth=1;rounded=1;absoluteArcSize=1;arcSize=2;" vertex="1" parent="1">
          <mxGeometry x="504" y="345" width="75" height="60" as="geometry" />
        </mxCell>
      </root>
    </mxGraphModel>
  </diagram>
</mxfile>
